# This file uses centimeters as units for non-parametric coordinates.

mtllib center2Ramp.mtl
v -0.750000 -0.750000 2.000000
v 0.750000 -0.750000 2.000000
v -0.750000 0.750000 2.000000
v -0.750000 0.750000 -2.000000
v 0.750000 -0.750000 -2.000000
v -0.750000 -0.750000 -2.000000
vt 0.375000 0.000000
vt 0.625000 0.125000
vt 0.375000 0.250000
vt 0.375000 0.500000
vt 0.625000 0.625000
vt 0.375000 0.750000
vt 0.375000 1.000000
vt 0.625000 1.000000
vt 0.125000 0.000000
vt 0.125000 0.250000
vn 0.000000 0.000000 1.000000
vn 0.000000 0.000000 1.000000
vn 0.000000 0.000000 1.000000
vn 0.707107 0.707107 0.000000
vn 0.707107 0.707107 0.000000
vn 0.707107 0.707107 0.000000
vn 0.707107 0.707107 0.000000
vn 0.000000 0.000000 -1.000000
vn 0.000000 0.000000 -1.000000
vn 0.000000 0.000000 -1.000000
vn 0.000000 -1.000000 0.000000
vn 0.000000 -1.000000 0.000000
vn 0.000000 -1.000000 0.000000
vn 0.000000 -1.000000 0.000000
vn -1.000000 0.000000 0.000000
vn -1.000000 0.000000 0.000000
vn -1.000000 0.000000 0.000000
vn -1.000000 0.000000 0.000000
g center2Ramp
usemtl initialShadingGroup
f 1/1/1 2/2/2 3/3/3
f 3/3/4 2/2/5 4/4/6
f 4/4/6 2/2/5 5/5/7
f 4/4/8 5/5/9 6/6/10
f 6/6/11 5/5/12 1/7/13
f 1/7/13 5/5/12 2/8/14
f 6/9/15 1/1/16 4/10/17
f 4/10/17 1/1/16 3/3/18

