# Blender v2.63 (sub 0) OBJ File: 'xkill2.blend'
# www.blender.org
mtllib bottom_13.mtl
g Cylinder.016
v -1.961571 -0.300000 -0.390181
v -2.000000 -0.300000 -0.000000
v -37.473537 0.500000 -7.453942
v -38.207687 0.500000 0.000008
v -29.764154 4.500000 -5.920453
v -25.909464 4.500000 -5.153707
v -22.054770 0.500000 -4.386962
v -18.200077 0.500000 -3.620217
v -14.345386 0.100000 -2.853472
v -10.490694 0.100000 -2.086727
v -6.636001 -0.300000 -1.319982
v -30.347267 4.500000 0.000006
v -26.417059 4.500000 0.000005
v -22.486847 0.500000 0.000004
v -18.556637 0.500000 0.000004
v -14.626428 0.100000 0.000003
v -10.696218 0.100000 0.000002
v -6.766008 -0.300000 0.000001
v -22.590656 0.500000 -9.357352
v -38.207687 4.500000 0.000008
v -16.272732 0.100000 -3.236844
v -16.591532 0.100000 0.000003
v -37.473537 4.500000 -7.453942
v -35.299301 4.500000 -14.621442
v -16.272732 4.500000 -3.236844
v -15.328574 4.500000 -6.349301
v -34.277477 4.500000 0.000007
v -14.345386 4.500000 -2.853472
v -18.200077 4.500000 -3.620217
v -13.513055 4.500000 -5.597289
v -23.982117 0.500000 -4.770335
v -22.590656 4.500000 -9.357352
v -18.556637 4.500000 0.000004
v -16.591532 4.500000 0.000003
v -24.406176 4.500000 -10.109365
v -22.054770 4.500000 -4.386962
v -23.982117 4.500000 -4.770335
v -33.618843 4.500000 -6.687197
v -24.451952 4.500000 0.000005
v -22.486847 4.500000 0.000004
v -6.250976 -0.300000 -2.589238
v -1.847759 -0.300000 -0.765367
v -24.406176 3.500000 -10.109365
v -28.037216 3.500000 -11.613391
v -17.144094 0.500000 -7.101314
v -20.775133 0.500000 -8.605340
v -9.882016 0.100000 -4.093263
v -13.513055 0.100000 -5.597289
v -20.775133 4.500000 -8.605340
v -35.299301 0.500000 -14.621442
v -6.250976 4.500000 -2.589238
v -28.037216 4.500000 -11.613391
v -17.144094 4.500000 -7.101314
v -9.882016 4.500000 -4.093263
v -31.668259 4.500000 -13.117417
vt 0.820902 0.461886
vt 0.820696 0.394678
vt 0.859545 0.394559
vt 0.859751 0.461767
vt 0.821088 0.522372
vt 0.859936 0.522253
vt 0.163761 0.805877
vt 0.163851 0.835253
vt 0.125003 0.835373
vt 0.124912 0.805996
vt 0.381615 0.384307
vt 0.384307 0.381615
vt 0.420088 0.410979
vt 0.410980 0.420088
vt 0.449595 0.435195
vt 0.435195 0.449595
vt 0.479101 0.459410
vt 0.459410 0.479101
vt 0.483625 0.508608
vt 0.508608 0.483625
vt 0.538114 0.507841
vt 0.507841 0.538114
vt 0.532056 0.567620
vt 0.567620 0.532056
vt 0.597127 0.556271
vt 0.556271 0.597127
vt 0.978648 0.241092
vt 0.995460 0.241040
vt 0.995591 0.283773
vt 0.978779 0.283825
vt 0.378449 0.386423
vt 0.400269 0.427245
vt 0.418262 0.460909
vt 0.436256 0.494572
vt 0.454249 0.528236
vt 0.472243 0.561900
vt 0.490236 0.595563
vt 0.508230 0.629227
vt 0.812047 0.939181
vt 0.785781 0.939261
vt 0.785650 0.896528
vt 0.811916 0.896447
vt 0.978648 0.163287
vt 0.996899 0.163231
vt 0.997019 0.202080
vt 0.978768 0.202136
vt 0.900466 0.309747
vt 0.900387 0.284019
vt 0.943120 0.283888
vt 0.943199 0.309616
vt 0.471518 0.493854
vt 0.445253 0.511404
vt 0.716499 0.807299
vt 0.707422 0.777043
vt 0.725076 0.769793
vt 0.735229 0.803633
vt 0.697769 0.810965
vt 0.689767 0.784292
vt 0.163661 0.773235
vt 0.124812 0.773354
vt 0.719498 0.838745
vt 0.738584 0.838804
vt 0.202806 0.963507
vt 0.166304 0.963395
vt 0.166435 0.920662
vt 0.202949 0.916889
vt 0.552867 0.519948
vt 0.519948 0.552867
vt 0.574733 0.917008
vt 0.574601 0.960020
vt 0.535752 0.959900
vt 0.535884 0.916889
vt 0.481240 0.578731
vt 0.626633 0.580486
vt 0.580486 0.626633
vt 0.238713 0.985227
vt 0.203115 0.985336
vt 0.202996 0.946487
vt 0.238594 0.946378
vt 0.996317 0.974777
vt 0.979505 0.974726
vt 0.979624 0.935877
vt 0.996436 0.935929
vt 0.526224 0.662890
vt 0.656140 0.604702
vt 0.604702 0.656140
vt 0.544217 0.696554
vt 0.898260 0.835878
vt 0.898096 0.889259
vt 0.888548 0.835848
vt 0.949969 0.237327
vt 0.940399 0.283825
vt 0.940257 0.237357
vn -0.956940 0.000000 -0.290285
vn -0.995185 0.000000 -0.098017
vn 0.000000 1.000000 0.000000
vn 0.097357 0.994811 0.029533
vn 0.051350 0.984230 -0.169279
vn -0.195090 0.000000 0.980785
vn 0.101248 0.994811 0.009972
vn 0.995185 0.000000 0.098017
vn -0.382683 0.000000 0.923880
vn 0.956940 0.000000 0.290286
vn 0.956940 0.000000 0.290285
vn 0.195090 0.000000 -0.980785
vn -0.956940 0.000000 -0.290286
usemtl Material_Bottom_bottom
s off
f 23/1/1 24/2/1 50/3/1
f 23/1/1 50/3/1 3/4/1
f 20/5/2 23/1/2 3/4/2
f 20/5/2 3/4/2 4/6/2
f 8/7/2 15/8/2 33/9/2
f 8/7/2 33/9/2 29/10/2
f 1/11/3 42/12/3 41/13/3
f 1/11/3 41/13/3 11/14/3
f 11/14/4 41/13/4 47/15/4
f 11/14/4 47/15/4 10/16/4
f 10/16/3 47/15/3 48/17/3
f 10/16/3 48/17/3 9/18/3
f 8/19/3 45/20/3 46/21/3
f 8/19/3 46/21/3 7/22/3
f 6/23/5 43/24/5 44/25/5
f 6/23/5 44/25/5 5/26/5
f 21/27/6 9/28/6 28/29/6
f 21/27/6 28/29/6 25/30/6
f 2/31/3 1/11/3 11/14/3
f 2/31/3 11/14/3 18/32/3
f 18/32/7 11/14/7 10/16/7
f 18/32/7 10/16/7 17/33/7
f 17/33/3 10/16/3 9/18/3
f 17/33/3 9/18/3 16/34/3
f 15/35/3 8/19/3 7/22/3
f 15/35/3 7/22/3 14/36/3
f 13/37/3 6/23/3 5/26/3
f 13/37/3 5/26/3 12/38/3
f 25/39/8 34/40/8 22/41/8
f 25/39/8 22/41/8 21/42/8
f 19/43/9 46/44/9 49/45/9
f 19/43/9 49/45/9 32/46/9
f 30/47/10 28/48/10 9/49/10
f 30/47/10 9/49/10 48/50/10
f 16/34/3 9/18/3 21/51/3
f 16/34/3 21/51/3 22/52/3
f 25/53/3 26/54/3 53/55/3
f 25/53/3 53/55/3 29/56/3
f 28/57/3 30/58/3 26/54/3
f 28/57/3 26/54/3 25/53/3
f 45/59/1 8/7/1 29/10/1
f 45/59/1 29/10/1 53/60/1
f 34/61/3 25/53/3 29/56/3
f 34/61/3 29/56/3 33/62/3
f 51/63/9 54/64/9 47/65/9
f 51/63/9 47/65/9 41/66/9
f 7/22/3 46/21/3 19/67/3
f 7/22/3 19/67/3 31/68/3
f 32/69/11 37/70/11 31/71/11
f 32/69/11 31/71/11 19/72/11
f 39/73/3 37/68/3 6/23/3
f 39/73/3 6/23/3 13/37/3
f 5/26/3 52/25/3 55/74/3
f 5/26/3 55/74/3 38/75/3
f 36/76/8 40/77/8 14/78/8
f 36/76/8 14/78/8 7/79/8
f 40/36/3 36/22/3 37/68/3
f 40/36/3 37/68/3 39/73/3
f 37/80/12 36/81/12 7/82/12
f 37/80/12 7/82/12 31/83/12
f 12/38/3 5/26/3 38/75/3
f 12/38/3 38/75/3 27/84/3
f 38/75/3 55/74/3 24/85/3
f 38/75/3 24/85/3 23/86/3
f 27/84/3 38/75/3 23/86/3
f 27/84/3 23/86/3 20/87/3
f 52/88/11 5/89/11 44/90/11
f 43/91/13 6/92/13 35/93/13
f 37/68/3 32/67/3 35/24/3
f 37/68/3 35/24/3 6/23/3
