# Blender v2.63 (sub 0) OBJ File: 'xkill2.blend'
# www.blender.org
mtllib bottom_08.mtl
g Cylinder.013
v 0.390181 -0.300000 1.961570
v 0.765368 -0.300000 1.847759
v 7.453969 0.500000 37.473553
v 14.621470 0.500000 35.299309
v 5.920474 0.500000 29.764160
v 5.153726 0.500000 25.909468
v 4.386978 0.500000 22.054771
v 3.620230 0.500000 18.200079
v 2.853482 0.100000 14.345388
v 2.086734 0.100000 10.490697
v 1.319986 -0.300000 6.636003
v 11.613413 0.500000 28.037224
v 10.109385 0.500000 24.406179
v 8.605356 0.500000 20.775137
v 7.101328 0.500000 17.144098
v 5.597300 0.100000 13.513059
v 4.093271 0.100000 9.882018
v 2.589243 -0.300000 6.250977
v 3.236856 0.100000 16.272734
v 3.236856 4.500000 16.272734
v 0.000012 4.500000 30.347281
v 5.597300 4.500000 13.513059
v 7.101328 4.500000 17.144098
v 10.109385 4.500000 24.406179
v 8.605356 4.500000 20.775137
v 2.853482 4.500000 14.345388
v 3.620230 4.500000 18.200079
v 4.770352 4.500000 23.982119
v 4.770352 0.500000 23.982119
v 6.687221 4.500000 33.618855
v 5.920474 4.500000 29.764160
v 6.349314 4.500000 15.328578
v 14.621470 4.500000 35.299309
v 7.453969 4.500000 37.473553
v 4.386978 4.500000 22.054771
v 5.153726 4.500000 25.909468
v 11.613413 4.500000 28.037224
v 13.117442 4.500000 31.668264
v 9.357371 4.500000 22.590660
v 0.000013 4.500000 34.277493
v 0.000006 4.500000 16.591537
v 0.000007 4.500000 18.556644
v 0.000006 0.100000 16.591537
v 0.000015 0.500000 38.207706
v 0.000015 4.500000 38.207706
v 0.000001 -0.300000 2.000000
v 0.000006 0.100000 14.626432
v 0.000004 0.100000 10.696222
v 0.000009 0.500000 22.486855
v 0.000007 0.500000 18.556644
v 0.000009 0.500000 24.451962
v 0.000012 0.500000 30.347281
v 0.000010 0.500000 26.417067
v 0.000003 -0.300000 6.766011
v 2.589243 4.500000 6.250977
v 4.093271 4.500000 9.882018
vt 0.819360 0.563461
vt 0.819213 0.611500
vt 0.780365 0.611381
vt 0.780512 0.563341
vt 0.899128 0.410454
vt 0.898943 0.470937
vt 0.860094 0.470818
vt 0.860280 0.410335
vt 0.367382 0.763565
vt 0.367472 0.792940
vt 0.328624 0.793059
vt 0.328534 0.763684
vt 0.819486 0.522607
vt 0.780637 0.522488
vt 0.350704 0.374930
vt 0.352161 0.378448
vt 0.311339 0.400268
vt 0.306409 0.388367
vt 0.277675 0.418262
vt 0.269882 0.399448
vt 0.244011 0.436256
vt 0.233355 0.410528
vt 0.196828 0.421608
vt 0.210348 0.454249
vt 0.176684 0.472243
vt 0.160300 0.432689
vt 0.142037 0.438229
vt 0.159852 0.481240
vt 0.143021 0.490236
vt 0.123773 0.443769
vt 0.109357 0.508230
vt 0.087246 0.454849
vt 0.349961 0.371196
vt 0.303896 0.375733
vt 0.265909 0.379474
vt 0.227922 0.383215
vt 0.189935 0.386957
vt 0.151948 0.390698
vt 0.113961 0.394440
vt 0.075974 0.398181
vt 0.245879 0.897498
vt 0.245808 0.920651
vt 0.203075 0.920520
vt 0.203146 0.897366
vt 0.898785 0.522372
vt 0.859936 0.522253
vt 0.227180 0.445252
vt 0.215091 0.416068
vt 0.367305 0.738584
vt 0.328457 0.738703
vt 0.048817 0.784292
vt 0.040815 0.810965
vt 0.022085 0.807299
vt 0.031162 0.777043
vt 0.019085 0.838745
vt 0.000000 0.838804
vt 0.003355 0.803633
vt 0.013507 0.769793
vt 0.994457 0.896932
vt 0.979677 0.896977
vt 0.979546 0.854244
vt 0.994326 0.854199
vt 0.999949 0.806129
vt 0.977614 0.806197
vt 0.977483 0.763464
vt 0.999818 0.763396
vt 0.945699 0.889259
vt 0.979415 0.893041
vt 0.979546 0.935774
vt 0.945842 0.935877
vt 0.977212 0.522372
vt 0.977340 0.564190
vt 0.938492 0.564309
vt 0.938363 0.522491
vt 0.132955 0.392569
vt 0.424924 0.954268
vt 0.439704 0.954223
vt 0.439823 0.993071
vt 0.425043 0.993116
vt 0.613878 0.835492
vt 0.613769 0.871088
vt 0.574920 0.870969
vt 0.575029 0.835373
vt 0.410263 0.993162
vt 0.410144 0.954313
vt 0.050719 0.465930
vt 0.075693 0.526223
vt 0.042030 0.544217
vt 0.014192 0.477010
vt 0.037987 0.401922
vt 0.000000 0.405664
vn -0.290285 0.000000 -0.956940
vn 0.290285 0.000000 0.956940
vn -0.098018 0.000000 -0.995185
vn 0.000000 1.000000 0.000000
vn -0.009972 0.994811 -0.101248
vn -0.029533 0.994811 -0.097357
vn 0.098018 0.000000 0.995185
vn -0.980785 0.000000 0.195091
vn -0.923879 0.000000 0.382684
vn 0.290286 0.000000 0.956940
vn -0.980785 0.000000 0.195090
usemtl Material_Bottom_bottom
s off
f 31/1/1 37/2/1 12/3/1
f 31/1/1 12/3/1 5/4/1
f 33/5/2 34/6/2 3/7/2
f 33/5/2 3/7/2 4/8/2
f 8/9/2 15/10/2 23/11/2
f 8/9/2 23/11/2 27/12/2
f 21/13/3 31/1/3 5/4/3
f 21/13/3 5/4/3 52/14/3
f 1/15/4 46/16/4 54/17/4
f 1/15/4 54/17/4 11/18/4
f 11/18/5 54/17/5 48/19/5
f 11/18/5 48/19/5 10/20/5
f 10/20/4 48/19/4 47/21/4
f 10/20/4 47/21/4 9/22/4
f 8/23/4 50/24/4 49/25/4
f 8/23/4 49/25/4 7/26/4
f 29/27/4 51/28/4 53/29/4
f 29/27/4 53/29/4 6/30/4
f 6/30/4 53/29/4 52/31/4
f 6/30/4 52/31/4 5/32/4
f 2/33/4 1/15/4 11/18/4
f 2/33/4 11/18/4 18/34/4
f 18/34/6 11/18/6 10/20/6
f 18/34/6 10/20/6 17/35/6
f 17/35/4 10/20/4 9/22/4
f 17/35/4 9/22/4 16/36/4
f 15/37/4 8/23/4 7/26/4
f 15/37/4 7/26/4 14/38/4
f 13/39/4 6/30/4 5/32/4
f 13/39/4 5/32/4 12/40/4
f 26/41/1 22/42/1 16/43/1
f 26/41/1 16/43/1 9/44/1
f 34/6/7 45/45/7 44/46/7
f 34/6/7 44/46/7 3/7/7
f 9/22/4 47/21/4 43/47/4
f 9/22/4 43/47/4 19/48/4
f 50/49/7 8/9/7 27/12/7
f 50/49/7 27/12/7 42/50/7
f 22/51/4 26/52/4 20/53/4
f 22/51/4 20/53/4 32/54/4
f 20/53/4 41/55/4 42/56/4
f 20/53/4 42/56/4 27/57/4
f 32/54/4 20/53/4 27/57/4
f 32/54/4 27/57/4 23/58/4
f 20/59/8 26/60/8 9/61/8
f 20/59/8 9/61/8 19/62/8
f 41/63/3 20/64/3 19/65/3
f 41/63/3 19/65/3 43/66/3
f 18/67/9 17/68/9 56/69/9
f 18/67/9 56/69/9 55/70/9
f 7/26/4 49/25/4 51/28/4
f 7/26/4 51/28/4 29/27/4
f 6/71/10 13/72/10 24/73/10
f 6/71/10 24/73/10 36/74/10
f 39/75/4 28/27/4 36/30/4
f 39/75/4 36/30/4 24/39/4
f 25/38/4 35/26/4 28/27/4
f 25/38/4 28/27/4 39/75/4
f 29/76/11 6/77/11 36/78/11
f 29/76/11 36/78/11 28/79/11
f 35/80/1 25/81/1 14/82/1
f 35/80/1 14/82/1 7/83/1
f 28/79/8 35/84/8 7/85/8
f 28/79/8 7/85/8 29/76/8
f 30/86/4 40/87/4 45/88/4
f 30/86/4 45/88/4 34/89/4
f 38/90/4 30/86/4 34/89/4
f 38/90/4 34/89/4 33/91/4
f 31/32/4 21/31/4 40/87/4
f 31/32/4 40/87/4 30/86/4
f 37/40/4 31/32/4 30/86/4
f 37/40/4 30/86/4 38/90/4
