# Blender v2.63 (sub 0) OBJ File: 'xkill2.blend'
# www.blender.org
mtllib bottom_17.mtl
g Cylinder.003
v 0.000001 -0.300000 2.000000
v 0.000000 -0.300000 0.000041
v -0.390181 -0.300000 -1.961571
v 0.000000 -0.300000 -2.000000
v -0.765367 -0.300000 -1.847759
v -1.111140 -0.300000 -1.662939
v -1.414214 -0.300000 -1.414214
v -1.662939 -0.300000 -1.111140
v -1.847759 -0.300000 -0.765367
v -1.961571 -0.300000 -0.390181
v -2.000000 -0.300000 -0.000000
v -1.961571 -0.300000 0.390180
v -1.847759 -0.300000 0.765367
v -1.662939 -0.300000 1.111140
v -1.414214 -0.300000 1.414214
v -1.111140 -0.300000 1.662939
v -0.765367 -0.300000 1.847759
v -0.390180 -0.300000 1.961571
v 0.390181 -0.300000 1.961570
v 0.765368 -0.300000 1.847759
v 1.111141 -0.300000 1.662939
v 1.414214 -0.300000 1.414213
v 1.662940 -0.300000 1.111139
v 1.847760 -0.300000 0.765365
v 1.961571 -0.300000 0.390179
v 2.000000 -0.300000 -0.000002
v 1.961570 -0.300000 -0.390183
v 1.847758 -0.300000 -0.765369
v 1.662938 -0.300000 -1.111143
v 1.414212 -0.300000 -1.414215
v 1.111138 -0.300000 -1.662941
v 0.765364 -0.300000 -1.847760
v 0.390178 -0.300000 -1.961571
vt 0.352161 0.378448
vt 0.369292 0.369292
vt 0.354277 0.381615
vt 0.350704 0.374930
vt 0.381615 0.384307
vt 0.378449 0.386423
vt 0.360135 0.352161
vt 0.363653 0.350704
vt 0.349961 0.371196
vt 0.387880 0.363653
vt 0.386423 0.360135
vt 0.349961 0.367388
vt 0.388623 0.367388
vt 0.350704 0.363653
vt 0.388623 0.371196
vt 0.387880 0.374930
vt 0.352161 0.360135
vt 0.386423 0.378448
vt 0.354277 0.356969
vt 0.356969 0.354277
vt 0.384307 0.381615
vt 0.356969 0.384307
vt 0.384307 0.356969
vt 0.381615 0.354277
vt 0.360135 0.386423
vt 0.378449 0.352161
vt 0.363653 0.387880
vt 0.374931 0.350704
vt 0.367388 0.388623
vt 0.371196 0.349961
vt 0.371196 0.388623
vt 0.367388 0.349961
vt 0.374931 0.387880
vn -0.000000 1.000000 0.000000
usemtl Material_Bottom_bottom
s off
f 1/1/1 2/2/1 18/3/1
f 2/2/1 1/1/1 19/4/1
f 10/5/1 11/6/1 2/2/1
f 2/2/1 26/7/1 27/8/1
f 2/2/1 19/4/1 20/9/1
f 3/10/1 2/2/1 4/11/1
f 2/2/1 20/9/1 21/12/1
f 3/10/1 5/13/1 2/2/1
f 2/2/1 21/12/1 22/14/1
f 5/13/1 6/15/1 2/2/1
f 6/15/1 7/16/1 2/2/1
f 2/2/1 22/14/1 23/17/1
f 7/16/1 8/18/1 2/2/1
f 2/2/1 23/17/1 24/19/1
f 2/2/1 24/19/1 25/20/1
f 8/18/1 9/21/1 2/2/1
f 9/21/1 10/5/1 2/2/1
f 26/7/1 2/2/1 25/20/1
f 18/3/1 2/2/1 17/22/1
f 4/11/1 2/2/1 33/23/1
f 33/23/1 2/2/1 32/24/1
f 17/22/1 2/2/1 16/25/1
f 32/24/1 2/2/1 31/26/1
f 16/25/1 2/2/1 15/27/1
f 31/26/1 2/2/1 30/28/1
f 15/27/1 2/2/1 14/29/1
f 30/28/1 2/2/1 29/30/1
f 14/29/1 2/2/1 13/31/1
f 29/30/1 2/2/1 28/32/1
f 13/31/1 2/2/1 12/33/1
f 28/32/1 2/2/1 27/8/1
f 2/2/1 11/6/1 12/33/1
