# Blender v2.63 (sub 0) OBJ File: 'xkill2.blend'
# www.blender.org
mtllib bottom_03.mtl
g Cylinder.008
v 1.662938 -0.300000 -1.111143
v 31.768511 0.500000 -21.227087
v 27.016884 0.500000 -27.016941
v 6.250975 -0.300000 -2.589245
v 13.513056 0.100000 -5.597304
v 17.144094 0.500000 -7.101333
v 20.775133 0.500000 -8.605362
v 24.406174 3.500000 -10.109391
v 28.037210 3.500000 -11.613421
v 25.232813 2.500000 -16.860064
v 21.964966 2.500000 -14.676553
v 18.697119 0.500000 -12.493043
v 15.429270 0.500000 -10.309531
v 12.161421 0.100000 -8.126020
v 8.893574 0.100000 -5.942510
v 5.625727 -0.300000 -3.758999
v 21.458736 1.500000 -21.458780
v 18.679661 1.500000 -18.679699
v 13.121510 0.500000 -13.121536
v 13.795345 0.300000 -9.217776
v 4.784286 4.500000 -4.784296
v 21.964966 4.500000 -14.676553
v 18.697119 4.500000 -12.493043
v 6.250975 4.500000 -2.589245
v 12.161421 4.500000 -8.126020
v 15.429270 4.500000 -10.309531
v 17.144094 4.500000 -7.101333
v 31.768511 4.500000 -21.227087
v 13.795345 4.500000 -9.217776
v 5.625727 4.500000 -3.758999
v 8.893574 4.500000 -5.942510
v 31.668251 4.500000 -13.117453
v 28.037210 4.500000 -11.613421
v 22.590652 4.500000 -9.357376
v 24.406174 4.500000 -10.109391
v 20.775133 4.500000 -8.605362
v 25.232813 4.500000 -16.860064
v 28.500662 4.500000 -19.043577
v 24.237810 4.500000 -24.237860
v 15.900584 4.500000 -15.900617
v 18.679661 4.500000 -18.679699
v 17.290123 4.500000 -17.290157
v 20.331041 4.500000 -13.584798
v 4.784286 -0.300000 -4.784296
v 1.414212 -0.300000 -1.414215
v 15.900584 0.500000 -15.900617
v 11.731972 0.300000 -11.731997
v 7.563360 0.100000 -7.563376
v 10.342434 0.100000 -10.342456
v 27.016884 4.500000 -27.016941
v 21.458736 4.500000 -21.458780
v 7.563360 4.500000 -7.563376
v 1.847758 -0.300000 -0.765369
v 9.882015 0.100000 -4.093275
v 13.513056 4.500000 -5.597304
v 35.299294 4.500000 -14.621481
v 35.299294 0.500000 -14.621481
v 9.882015 4.500000 -4.093275
v 15.328575 4.500000 -6.349319
vt 0.739583 0.848450
vt 0.739419 0.795021
vt 0.758844 0.794961
vt 0.749295 0.848420
vt 0.371196 0.349961
vt 0.367388 0.349961
vt 0.362851 0.303896
vt 0.375733 0.303896
vt 0.379474 0.265909
vt 0.359110 0.265909
vt 0.355368 0.227922
vt 0.383216 0.227922
vt 0.018263 0.981515
vt 0.000000 0.981459
vt 0.000119 0.942611
vt 0.018388 0.940724
vt 0.386957 0.189935
vt 0.351627 0.189935
vt 0.347886 0.151948
vt 0.390699 0.151948
vt 0.394440 0.113961
vt 0.344144 0.113961
vt 0.340403 0.075974
vt 0.398182 0.075974
vt 0.443770 0.123773
vt 0.454850 0.087246
vt 0.739134 0.179514
vt 0.738928 0.112246
vt 0.777776 0.112127
vt 0.777983 0.179395
vt 0.246537 0.923231
vt 0.246458 0.897480
vt 0.289191 0.897349
vt 0.289270 0.923100
vt 0.036658 0.938838
vt 0.036526 0.981571
vt 0.496155 0.765518
vt 0.492415 0.753191
vt 0.527681 0.738584
vt 0.533592 0.758072
vt 0.078738 0.928283
vt 0.093544 0.900379
vt 0.111199 0.907628
vt 0.094640 0.938838
vt 0.289508 0.771255
vt 0.289609 0.738584
vt 0.328457 0.738703
vt 0.328357 0.771374
vt 0.497417 0.778338
vt 0.535588 0.778338
vt 0.062837 0.917729
vt 0.075889 0.893129
vt 0.899375 0.856466
vt 0.899338 0.844554
vt 0.945956 0.844411
vt 0.945993 0.856323
vt 0.449242 0.897235
vt 0.449300 0.878403
vt 0.492033 0.878535
vt 0.491976 0.897366
vt 0.927909 0.764349
vt 0.918340 0.717809
vt 0.937764 0.717869
vt 0.937621 0.764379
vt 0.908779 0.668429
vt 0.937915 0.668518
vt 0.346015 0.132954
vt 0.392569 0.132954
vt 0.289609 0.907549
vt 0.289487 0.867959
vt 0.328336 0.867840
vt 0.328457 0.907430
vt 0.401923 0.037987
vt 0.336662 0.037987
vt 0.332920 0.000000
vt 0.405664 0.000000
vt 0.739246 0.738328
vt 0.768382 0.738238
vt 0.739353 0.250892
vt 0.778202 0.250773
vt 0.374931 0.350704
vt 0.388367 0.306409
vt 0.399448 0.269882
vt 0.410528 0.233355
vt 0.416068 0.215091
vt 0.385087 0.208928
vt 0.421609 0.196828
vt 0.432689 0.160300
vt 0.899299 0.831914
vt 0.945918 0.831771
vt 0.449362 0.858421
vt 0.492095 0.858553
vt 0.438229 0.142037
vt 0.289358 0.825950
vt 0.328207 0.825831
vt 0.465930 0.050719
vt 0.477011 0.014192
vn -0.881921 0.000000 0.471398
vn 0.000000 1.000000 0.000000
vn -0.555571 0.000000 -0.831469
vn -0.083388 0.984230 -0.156008
vn -0.112222 0.984230 -0.136743
vn 0.881921 0.000000 -0.471398
vn -0.881920 0.000000 0.471399
vn 0.881920 0.000000 -0.471398
vn 0.881920 0.000000 -0.471399
vn 0.773010 0.000000 -0.634394
vn -0.773010 0.000000 0.634394
vn 0.773009 0.000000 -0.634395
vn -0.078644 0.994811 0.064542
vn -0.773009 0.000000 0.634395
usemtl Material_Bottom_bottom
s off
f 33/1/1 37/2/1 10/3/1
f 33/1/1 10/3/1 9/4/1
f 1/5/2 53/6/2 4/7/2
f 1/5/2 4/7/2 16/8/2
f 15/9/2 54/10/2 5/11/2
f 15/9/2 5/11/2 14/12/2
f 29/13/3 26/14/3 13/15/3
f 29/13/3 13/15/3 20/16/3
f 13/17/2 6/18/2 7/19/2
f 13/17/2 7/19/2 12/20/2
f 11/21/4 8/22/4 9/23/4
f 11/21/4 9/23/4 10/24/4
f 18/25/5 11/21/5 10/24/5
f 18/25/5 10/24/5 17/26/5
f 28/27/6 56/28/6 57/29/6
f 28/27/6 57/29/6 2/30/6
f 55/31/7 25/32/7 14/33/7
f 55/31/7 14/33/7 5/34/7
f 20/16/3 14/35/3 25/36/3
f 20/16/3 25/36/3 29/13/3
f 30/37/2 24/38/2 58/39/2
f 30/37/2 58/39/2 31/40/2
f 29/41/2 59/42/2 27/43/2
f 29/41/2 27/43/2 26/44/2
f 6/45/8 13/46/8 26/47/8
f 6/45/8 26/47/8 27/48/8
f 21/49/2 30/37/2 31/40/2
f 21/49/2 31/40/2 52/50/2
f 25/51/2 55/52/2 59/42/2
f 25/51/2 59/42/2 29/41/2
f 24/53/1 30/54/1 16/55/1
f 24/53/1 16/55/1 4/56/1
f 54/57/9 15/58/9 31/59/9
f 54/57/9 31/59/9 58/60/9
f 8/61/6 11/62/6 22/63/6
f 8/61/6 22/63/6 35/64/6
f 11/62/10 18/65/10 41/66/10
f 11/62/10 41/66/10 22/63/10
f 23/20/2 36/19/2 34/67/2
f 23/20/2 34/67/2 43/68/2
f 43/68/2 34/67/2 35/22/2
f 43/68/2 35/22/2 22/21/2
f 36/69/1 23/70/1 12/71/1
f 36/69/1 12/71/1 7/72/1
f 38/73/2 32/74/2 56/75/2
f 38/73/2 56/75/2 28/76/2
f 37/24/2 33/23/2 32/74/2
f 37/24/2 32/74/2 38/73/2
f 37/2/11 51/77/11 17/78/11
f 37/2/11 17/78/11 10/3/11
f 50/79/12 28/27/12 2/30/12
f 50/79/12 2/30/12 3/80/12
f 45/81/2 1/5/2 16/8/2
f 45/81/2 16/8/2 44/82/2
f 48/83/2 15/9/2 14/12/2
f 48/83/2 14/12/2 49/84/2
f 47/85/13 20/86/13 13/17/13
f 47/85/13 13/17/13 19/87/13
f 19/87/2 13/17/2 12/20/2
f 19/87/2 12/20/2 46/88/2
f 49/84/13 14/12/13 20/86/13
f 49/84/13 20/86/13 47/85/13
f 30/54/11 21/89/11 44/90/11
f 30/54/11 44/90/11 16/55/11
f 15/58/10 48/91/10 52/92/10
f 15/58/10 52/92/10 31/59/10
f 40/88/2 23/20/2 43/68/2
f 40/88/2 43/68/2 42/93/2
f 42/93/2 43/68/2 22/21/2
f 42/93/2 22/21/2 41/25/2
f 23/70/14 40/94/14 46/95/14
f 23/70/14 46/95/14 12/71/14
f 39/96/2 38/73/2 28/76/2
f 39/96/2 28/76/2 50/97/2
f 51/26/2 37/24/2 38/73/2
f 51/26/2 38/73/2 39/96/2
