# Blender v2.63 (sub 0) OBJ File: 'xkill2.blend'
# www.blender.org
mtllib bottom_12.mtl
g Cylinder.010
v -1.961571 -0.300000 0.390180
v -1.847759 -0.300000 0.765367
v -37.473541 0.500000 7.453957
v -35.299305 0.500000 14.621455
v -9.882018 0.100000 4.093267
v -20.775139 0.500000 8.605349
v -29.764154 4.500000 5.920464
v -25.909464 4.500000 5.153717
v -22.054770 0.500000 4.386971
v -18.200077 0.500000 3.620224
v -14.345386 0.100000 2.853477
v -10.490694 0.100000 2.086730
v -6.636001 -0.300000 1.319984
v -37.473541 4.500000 7.453957
v -22.590660 0.500000 9.357363
v -16.272732 0.100000 3.236851
v -9.882018 4.500000 4.093267
v -6.250977 4.500000 2.589241
v -22.486847 4.500000 0.000004
v -16.272732 4.500000 3.236851
v -23.982117 0.500000 4.770343
v -15.328578 4.500000 6.349308
v -23.982117 4.500000 4.770343
v -14.345386 4.500000 2.853477
v -18.200077 4.500000 3.620224
v -22.054770 4.500000 4.386971
v -24.451952 4.500000 0.000005
v -33.618847 4.500000 6.687211
v -35.299305 4.500000 14.621455
v -20.775139 4.500000 8.605349
v -6.766008 -0.300000 0.000001
v -2.000000 -0.300000 -0.000000
v -26.417059 4.500000 0.000005
v -30.347267 4.500000 0.000006
v -18.556637 0.500000 0.000004
v -22.486847 0.500000 0.000004
v -10.696218 0.100000 0.000002
v -14.626428 0.100000 0.000003
v -16.591532 0.100000 0.000003
v -16.591532 4.500000 0.000003
v -38.207687 4.500000 0.000008
v -38.207687 0.500000 0.000008
v -18.556637 4.500000 0.000004
v -34.277477 4.500000 0.000007
v -6.250977 -0.300000 2.589241
v -13.513058 0.100000 5.597294
v -17.144098 0.500000 7.101321
v -28.037224 3.500000 11.613403
v -24.406179 3.500000 10.109377
v -28.037224 4.500000 11.613403
v -13.513058 4.500000 5.597294
v -17.144098 4.500000 7.101321
v -24.406179 4.500000 10.109377
v -31.668261 4.500000 13.117430
v -22.590660 4.500000 9.357363
vt 0.779379 0.112246
vt 0.779193 0.051671
vt 0.818041 0.051552
vt 0.818227 0.112126
vt 0.398181 0.662610
vt 0.454850 0.651338
vt 0.465930 0.687865
vt 0.401923 0.700597
vt 0.448975 0.738584
vt 0.449052 0.763621
vt 0.410204 0.763741
vt 0.410127 0.738703
vt 0.995599 0.163180
vt 0.978768 0.163231
vt 0.978648 0.124383
vt 0.995480 0.124331
vt 0.449142 0.793041
vt 0.410294 0.793160
vt 0.374931 0.387880
vt 0.378449 0.386423
vt 0.400269 0.427245
vt 0.388367 0.432175
vt 0.418262 0.460909
vt 0.399448 0.468702
vt 0.436256 0.494572
vt 0.410528 0.505229
vt 0.421608 0.541756
vt 0.454249 0.528236
vt 0.472243 0.561900
vt 0.432689 0.578283
vt 0.443769 0.614811
vt 0.490236 0.595563
vt 0.508230 0.629227
vt 0.779035 0.000119
vt 0.817883 0.000000
vt 0.647683 0.985352
vt 0.614021 0.985456
vt 0.613878 0.938838
vt 0.647552 0.942619
vt 0.371196 0.388623
vt 0.375733 0.434688
vt 0.379474 0.472675
vt 0.383216 0.510662
vt 0.062222 0.981640
vt 0.039836 0.981571
vt 0.039967 0.938838
vt 0.062353 0.938907
vt 0.386957 0.548649
vt 0.390698 0.586636
vt 0.394440 0.624623
vt 0.253624 0.989153
vt 0.238871 0.989199
vt 0.238740 0.946465
vt 0.253492 0.946420
vt 0.445253 0.511404
vt 0.416068 0.523493
vt 0.492565 0.946420
vt 0.492494 0.923231
vt 0.535228 0.923100
vt 0.535299 0.946289
vt 0.689433 0.893015
vt 0.697599 0.866392
vt 0.716306 0.870173
vt 0.707043 0.900373
vt 0.719498 0.838745
vt 0.738584 0.838804
vt 0.735013 0.873953
vt 0.724653 0.907731
vt 0.438229 0.596547
vt 0.392569 0.605629
vt 0.825035 0.985490
vt 0.794695 0.985583
vt 0.794576 0.946735
vt 0.824916 0.946642
vt 0.492006 0.985345
vt 0.453240 0.985227
vt 0.453360 0.946378
vt 0.492126 0.946497
vt 0.393922 0.957285
vt 0.408675 0.957240
vt 0.408794 0.996088
vt 0.394042 0.996133
vt 0.481240 0.578731
vt 0.938658 0.283888
vt 0.929075 0.241977
vt 0.938787 0.242007
vt 0.526224 0.662890
vt 0.544217 0.696554
vt 0.477010 0.724392
vt 0.405664 0.738584
vt 0.820633 0.896447
vt 0.820485 0.848335
vt 0.830198 0.848305
vn -0.956940 0.000000 0.290285
vn -0.000000 1.000000 0.000000
vn -0.995185 0.000000 0.098017
vn -0.382684 0.000000 -0.923879
vn 0.101248 0.994811 -0.009972
vn -0.382683 0.000000 -0.923880
vn 0.097357 0.994811 -0.029533
vn 0.995185 0.000000 -0.098017
vn 0.051350 0.984230 0.169279
vn -0.195090 0.000000 -0.980785
vn 0.956940 0.000000 -0.290285
vn 0.195090 0.000000 0.980785
vn 0.956940 0.000000 -0.290284
usemtl Material_Bottom_bottom
s off
f 29/1/1 14/2/1 3/3/1
f 29/1/1 3/3/1 4/4/1
f 50/5/2 7/6/2 28/7/2
f 50/5/2 28/7/2 54/8/2
f 35/9/3 10/10/3 25/11/3
f 35/9/3 25/11/3 43/12/3
f 55/13/4 30/14/4 6/15/4
f 55/13/4 6/15/4 15/16/4
f 10/10/1 47/17/1 52/18/1
f 10/10/1 52/18/1 25/11/1
f 1/19/2 32/20/2 31/21/2
f 1/19/2 31/21/2 13/22/2
f 13/22/5 31/21/5 37/23/5
f 13/22/5 37/23/5 12/24/5
f 12/24/2 37/23/2 38/25/2
f 12/24/2 38/25/2 11/26/2
f 10/27/2 35/28/2 36/29/2
f 10/27/2 36/29/2 9/30/2
f 8/31/2 33/32/2 34/33/2
f 8/31/2 34/33/2 7/6/2
f 14/2/3 41/34/3 42/35/3
f 14/2/3 42/35/3 3/3/3
f 17/36/6 18/37/6 45/38/6
f 17/36/6 45/38/6 5/39/6
f 2/40/2 1/19/2 13/22/2
f 2/40/2 13/22/2 45/41/2
f 45/41/7 13/22/7 12/24/7
f 45/41/7 12/24/7 5/42/7
f 5/42/2 12/24/2 11/26/2
f 5/42/2 11/26/2 46/43/2
f 40/44/8 20/45/8 16/46/8
f 40/44/8 16/46/8 39/47/8
f 47/48/2 10/27/2 9/30/2
f 47/48/2 9/30/2 6/49/2
f 49/50/9 8/31/9 7/6/9
f 49/50/9 7/6/9 48/5/9
f 20/51/10 24/52/10 11/53/10
f 20/51/10 11/53/10 16/54/10
f 11/26/2 38/25/2 39/55/2
f 11/26/2 39/55/2 16/56/2
f 24/57/11 51/58/11 46/59/11
f 24/57/11 46/59/11 11/60/11
f 51/61/2 24/62/2 20/63/2
f 51/61/2 20/63/2 22/64/2
f 20/63/2 40/65/2 43/66/2
f 20/63/2 43/66/2 25/67/2
f 22/64/2 20/63/2 25/67/2
f 22/64/2 25/67/2 52/68/2
f 6/49/2 9/30/2 21/69/2
f 6/49/2 21/69/2 15/70/2
f 19/71/8 26/72/8 9/73/8
f 19/71/8 9/73/8 36/74/8
f 23/75/11 55/76/11 15/77/11
f 23/75/11 15/77/11 21/78/11
f 21/79/12 9/80/12 26/81/12
f 21/79/12 26/81/12 23/82/12
f 26/30/2 19/29/2 27/83/2
f 26/30/2 27/83/2 23/69/2
f 8/84/1 49/85/1 53/86/1
f 28/7/2 44/87/2 41/88/2
f 28/7/2 41/88/2 14/89/2
f 54/8/2 28/7/2 14/89/2
f 54/8/2 14/89/2 29/90/2
f 7/6/2 34/33/2 44/87/2
f 7/6/2 44/87/2 28/7/2
f 7/91/13 50/92/13 48/93/13
f 55/70/2 23/69/2 8/31/2
f 55/70/2 8/31/2 53/50/2
f 23/69/2 27/83/2 33/32/2
f 23/69/2 33/32/2 8/31/2
