# Blender v2.63 (sub 0) OBJ File: 'xkill2.blend'
# www.blender.org
mtllib bottom_15.mtl
g Cylinder.007
v -1.111140 -0.300000 -1.662939
v -1.414214 -0.300000 -1.414214
v -21.227053 0.500000 -31.768520
v -27.016916 0.500000 -27.016907
v -16.860039 0.500000 -25.232822
v -14.676532 0.500000 -21.964975
v -12.493025 0.500000 -18.697126
v -10.309518 0.500000 -15.429276
v -8.126009 0.100000 -12.161427
v -5.942502 0.100000 -8.893578
v -3.758993 -0.300000 -5.625729
v -21.458757 1.500000 -21.458755
v -18.679678 1.500000 -18.679678
v -15.900602 0.500000 -15.900599
v -13.121523 0.500000 -13.121522
v -10.342446 0.100000 -10.342443
v -7.563367 0.100000 -7.563367
v -4.784290 -0.300000 -4.784290
v -9.217764 0.300000 -13.795352
v -11.731984 0.300000 -11.731982
v -13.584779 0.500000 -20.331053
v -6.349304 4.500000 -15.328574
v -4.784290 4.500000 -4.784290
v -7.563367 4.500000 -7.563367
v -4.093265 4.500000 -9.882015
v -5.597291 4.500000 -13.513055
v -21.227053 4.500000 -31.768520
v -14.676532 4.500000 -21.964975
v -12.493025 4.500000 -18.697126
v -19.043545 4.500000 -28.500671
v -16.860039 4.500000 -25.232822
v -3.758993 4.500000 -5.625729
v -9.217764 4.500000 -13.795352
v -17.290140 0.500000 -17.290138
v -17.290140 4.500000 -17.290138
v -5.942502 4.500000 -8.893578
v -8.126009 4.500000 -12.161427
v -10.309518 4.500000 -15.429276
v -15.900602 4.500000 -15.900599
v -18.679678 4.500000 -18.679678
v -21.458757 4.500000 -21.458755
v -24.237835 4.500000 -24.237833
v -10.109369 4.500000 -24.406178
v -13.584779 4.500000 -20.331053
v -9.357355 4.500000 -22.590656
v -11.613396 4.500000 -28.037214
v -27.016916 4.500000 -27.016907
v -2.589239 -0.300000 -6.250975
v -0.765367 -0.300000 -1.847759
v -10.109369 0.500000 -24.406178
v -11.613396 0.500000 -28.037214
v -7.101317 0.500000 -17.144094
v -8.605343 0.500000 -20.775135
v -4.093265 0.100000 -9.882015
v -5.597291 0.100000 -13.513055
v -14.621448 4.500000 -35.299294
v -14.621448 0.500000 -35.299294
v -8.605343 4.500000 -20.775135
v -2.589239 4.500000 -6.250975
v -7.101317 4.500000 -17.144094
v -13.117421 4.500000 -31.668255
vt 0.898785 0.664764
vt 0.898611 0.721431
vt 0.869475 0.721342
vt 0.859936 0.664644
vt 0.820035 0.179242
vt 0.819829 0.112037
vt 0.858677 0.111918
vt 0.858884 0.179123
vt 0.978506 0.041818
vt 0.978648 0.088284
vt 0.939800 0.088403
vt 0.939657 0.041937
vt 0.898949 0.611384
vt 0.860100 0.611265
vt 0.969088 0.137643
vt 0.939951 0.137732
vt 0.340969 0.995307
vt 0.321972 0.995248
vt 0.322091 0.956400
vt 0.341089 0.956458
vt 0.388623 0.371196
vt 0.388623 0.367388
vt 0.434688 0.362851
vt 0.434688 0.375733
vt 0.246365 0.897218
vt 0.246423 0.878404
vt 0.289156 0.878535
vt 0.289099 0.897349
vt 0.472675 0.379474
vt 0.472675 0.359110
vt 0.510662 0.355368
vt 0.510662 0.383216
vt 0.548649 0.386957
vt 0.548649 0.351627
vt 0.586636 0.347885
vt 0.586636 0.390698
vt 0.624623 0.394440
vt 0.624623 0.344144
vt 0.662610 0.340403
vt 0.662610 0.398181
vt 0.246484 0.858431
vt 0.289218 0.858562
vt 0.387880 0.374930
vt 0.432175 0.388367
vt 0.468702 0.399448
vt 0.505229 0.410528
vt 0.523493 0.416068
vt 0.529655 0.385086
vt 0.541756 0.421608
vt 0.578283 0.432689
vt 0.614811 0.443769
vt 0.651338 0.454850
vt 0.820254 0.250588
vt 0.859103 0.250468
vt 0.124827 0.875045
vt 0.124706 0.835492
vt 0.163554 0.835373
vt 0.163676 0.874926
vt 0.738737 0.946757
vt 0.738701 0.934856
vt 0.785319 0.934713
vt 0.785355 0.946614
vt 0.614362 0.917729
vt 0.627414 0.893129
vt 0.645069 0.900379
vt 0.630263 0.928283
vt 0.662723 0.907628
vt 0.646165 0.938838
vt 0.454244 0.778338
vt 0.452982 0.765518
vt 0.490419 0.758072
vt 0.492415 0.778338
vt 0.683619 0.940724
vt 0.701901 0.938838
vt 0.701770 0.981571
vt 0.683494 0.981515
vt 0.449242 0.753191
vt 0.484508 0.738584
vt 0.492055 0.920651
vt 0.491976 0.946378
vt 0.449242 0.946247
vt 0.449321 0.920520
vt 0.665218 0.981459
vt 0.665337 0.942611
vt 0.410027 0.792940
vt 0.410127 0.825580
vt 0.371278 0.825699
vt 0.371178 0.793059
vt 0.738662 0.922222
vt 0.785280 0.922079
vt 0.328597 0.956400
vt 0.328457 0.910741
vt 0.367305 0.910622
vt 0.367446 0.956281
vt 0.605629 0.392569
vt 0.596547 0.438229
vt 0.978648 0.202192
vt 0.996924 0.202136
vt 0.997043 0.240984
vt 0.978768 0.241040
vt 0.605629 0.346015
vt 0.700597 0.401923
vt 0.700597 0.336661
vt 0.738584 0.332920
vt 0.738584 0.405664
vt 0.687865 0.465930
vt 0.724392 0.477010
vn 0.634393 0.000000 0.773011
vn -0.471397 0.000000 -0.881921
vn 0.471397 0.000000 0.881921
vn -0.634393 0.000000 -0.773010
vn 0.707107 0.000000 -0.707107
vn 0.000000 1.000000 0.000000
vn 0.064542 0.994811 0.078644
vn 0.136743 0.984229 -0.112222
vn -0.634393 0.000000 -0.773011
vn 0.471396 0.000000 0.881921
vn -0.831469 0.000000 0.555570
vn 0.634393 0.000000 0.773010
vn 0.634394 0.000000 0.773010
vn -0.831470 0.000000 0.555570
usemtl Material_Bottom_bottom
s off
f 31/1/1 41/2/1 12/3/1
f 31/1/1 12/3/1 5/4/1
f 27/5/2 56/6/2 57/7/2
f 27/5/2 57/7/2 3/8/2
f 50/9/2 6/10/2 28/11/2
f 50/9/2 28/11/2 43/12/2
f 46/13/3 31/1/3 5/4/3
f 46/13/3 5/4/3 51/14/3
f 6/10/4 13/15/4 40/16/4
f 6/10/4 40/16/4 28/11/4
f 35/17/5 39/18/5 14/19/5
f 35/17/5 14/19/5 34/20/5
f 1/21/6 49/22/6 48/23/6
f 1/21/6 48/23/6 11/24/6
f 54/25/2 10/26/2 36/27/2
f 54/25/2 36/27/2 25/28/2
f 10/29/6 54/30/6 55/31/6
f 10/29/6 55/31/6 9/32/6
f 8/33/6 52/34/6 53/35/6
f 8/33/6 53/35/6 7/36/6
f 6/37/6 50/38/6 51/39/6
f 6/37/6 51/39/6 5/40/6
f 10/26/4 17/41/4 24/42/4
f 10/26/4 24/42/4 36/27/4
f 2/43/6 1/21/6 11/24/6
f 2/43/6 11/24/6 18/44/6
f 17/45/6 10/29/6 9/32/6
f 17/45/6 9/32/6 16/46/6
f 20/47/7 19/48/7 8/33/7
f 20/47/7 8/33/7 15/49/7
f 15/49/6 8/33/6 7/36/6
f 15/49/6 7/36/6 14/50/6
f 13/51/8 6/37/8 5/40/8
f 13/51/8 5/40/8 12/52/8
f 47/53/9 27/5/9 3/8/9
f 47/53/9 3/8/9 4/54/9
f 58/55/3 29/56/3 7/57/3
f 58/55/3 7/57/3 53/58/3
f 16/46/7 9/32/7 19/48/7
f 16/46/7 19/48/7 20/47/7
f 59/59/10 32/60/10 11/61/10
f 59/59/10 11/61/10 48/62/10
f 37/63/6 26/64/6 22/65/6
f 37/63/6 22/65/6 33/66/6
f 33/66/6 22/65/6 60/67/6
f 33/66/6 60/67/6 38/68/6
f 23/69/6 32/70/6 36/71/6
f 23/69/6 36/71/6 24/72/6
f 19/73/11 9/74/11 37/75/11
f 19/73/11 37/75/11 33/76/11
f 32/70/6 59/77/6 25/78/6
f 32/70/6 25/78/6 36/71/6
f 26/79/3 37/80/3 9/81/3
f 26/79/3 9/81/3 55/82/3
f 33/76/11 38/83/11 8/84/11
f 33/76/11 8/84/11 19/73/11
f 52/85/2 8/86/2 38/87/2
f 52/85/2 38/87/2 60/88/2
f 32/60/12 23/89/12 18/90/12
f 32/60/12 18/90/12 11/61/12
f 44/91/13 35/92/13 34/93/13
f 44/91/13 34/93/13 21/94/13
f 14/50/6 7/36/6 21/95/6
f 14/50/6 21/95/6 34/96/6
f 21/97/14 7/98/14 29/99/14
f 21/97/14 29/99/14 44/100/14
f 35/96/6 44/95/6 28/37/6
f 35/96/6 28/37/6 40/51/6
f 44/95/6 45/101/6 43/38/6
f 44/95/6 43/38/6 28/37/6
f 29/36/6 58/35/6 45/101/6
f 29/36/6 45/101/6 44/95/6
f 30/102/6 61/103/6 56/104/6
f 30/102/6 56/104/6 27/105/6
f 42/106/6 30/102/6 27/105/6
f 42/106/6 27/105/6 47/107/6
f 31/40/6 46/39/6 61/103/6
f 31/40/6 61/103/6 30/102/6
f 41/52/6 31/40/6 30/102/6
f 41/52/6 30/102/6 42/106/6
