# Blender v2.63 (sub 0) OBJ File: 'xkill2.blend'
# www.blender.org
mtllib bottom_11.mtl
g Cylinder.015
v -1.662939 -0.300000 1.111140
v -1.414214 -0.300000 1.414214
v -31.768534 0.500000 21.227062
v -27.016916 0.500000 27.016930
v -6.250977 -0.300000 2.589241
v -13.513058 0.100000 5.597294
v -17.144098 0.500000 7.101321
v -24.406179 3.500000 10.109377
v -28.037224 3.500000 11.613403
v -25.232832 2.500000 16.860046
v -21.964981 2.500000 14.676538
v -18.697130 0.500000 12.493029
v -15.429280 0.500000 10.309521
v -12.161431 0.100000 8.126012
v -8.893580 0.100000 5.942503
v -5.625730 -0.300000 3.758995
v -21.458757 1.500000 21.458771
v -18.679678 1.500000 18.679689
v -15.900602 0.500000 15.900612
v -13.121523 0.500000 13.121531
v -10.342446 0.100000 10.342453
v -7.563367 0.100000 7.563373
v -4.784290 -0.300000 4.784293
v -13.795356 0.300000 9.217766
v -11.731984 0.300000 11.731993
v -13.513058 4.500000 5.597294
v -13.795356 4.500000 9.217766
v -4.784290 4.500000 4.784293
v -7.563367 4.500000 7.563373
v -5.625730 4.500000 3.758995
v -24.237835 4.500000 24.237850
v -8.893580 4.500000 5.942503
v -12.161431 4.500000 8.126012
v -15.429280 4.500000 10.309521
v -17.144098 4.500000 7.101321
v -20.331057 4.500000 13.584784
v -22.590660 4.500000 9.357363
v -27.016916 4.500000 27.016930
v -15.900602 4.500000 15.900612
v -18.679678 4.500000 18.679689
v -18.697130 4.500000 12.493029
v -21.964981 4.500000 14.676538
v -25.232832 4.500000 16.860046
v -28.500685 4.500000 19.043552
v -31.668261 4.500000 13.117430
v -28.037224 4.500000 11.613403
v -31.768534 4.500000 21.227062
v -24.406179 4.500000 10.109377
v -21.458757 4.500000 21.458771
v -17.290140 4.500000 17.290150
v -20.775139 4.500000 8.605349
v -20.775139 0.500000 8.605349
v -1.847759 -0.300000 0.765367
v -9.882018 0.100000 4.093267
v -9.882018 4.500000 4.093267
v -6.250977 4.500000 2.589241
v -35.299305 4.500000 14.621455
v -35.299305 0.500000 14.621455
v -15.328578 4.500000 6.349308
vt 0.779804 0.250892
vt 0.779585 0.179514
vt 0.818434 0.179395
vt 0.818653 0.250772
vt 0.367388 0.388623
vt 0.371196 0.388623
vt 0.375733 0.434688
vt 0.362851 0.434688
vt 0.359110 0.472675
vt 0.379474 0.472675
vt 0.383216 0.510662
vt 0.355368 0.510662
vt 0.351627 0.548649
vt 0.386957 0.548649
vt 0.390698 0.586636
vt 0.347885 0.586636
vt 0.344144 0.624623
vt 0.394440 0.624623
vt 0.398181 0.662610
vt 0.340403 0.662610
vt 0.779379 0.112246
vt 0.818227 0.112126
vt 0.363653 0.387880
vt 0.350217 0.432175
vt 0.339136 0.468702
vt 0.328056 0.505229
vt 0.322516 0.523493
vt 0.353498 0.529655
vt 0.316975 0.541756
vt 0.305895 0.578283
vt 0.294815 0.614811
vt 0.283734 0.651338
vt 0.245787 0.836924
vt 0.245848 0.856906
vt 0.203115 0.857038
vt 0.203053 0.837055
vt 0.820322 0.794906
vt 0.820148 0.738212
vt 0.849284 0.738123
vt 0.839746 0.794846
vt 0.492494 0.923231
vt 0.492415 0.897480
vt 0.535149 0.897349
vt 0.535228 0.923100
vt 0.449121 0.865541
vt 0.448992 0.907549
vt 0.410144 0.907430
vt 0.410273 0.865421
vt 0.820485 0.848335
vt 0.830198 0.848305
vt 0.906672 0.901314
vt 0.906633 0.913954
vt 0.860015 0.913811
vt 0.860053 0.901172
vt 0.285602 0.791158
vt 0.289341 0.803485
vt 0.254076 0.818093
vt 0.248165 0.798605
vt 0.284339 0.778338
vt 0.246169 0.778338
vt 0.676231 0.917534
vt 0.689433 0.893015
vt 0.707043 0.900373
vt 0.692067 0.928186
vt 0.724653 0.907731
vt 0.707903 0.938838
vt 0.449142 0.793041
vt 0.449242 0.825712
vt 0.410394 0.825831
vt 0.410294 0.793160
vt 0.906708 0.889402
vt 0.860090 0.889259
vt 0.080741 0.940724
vt 0.099011 0.938838
vt 0.098879 0.981571
vt 0.080616 0.981515
vt 0.245729 0.818093
vt 0.202996 0.818224
vt 0.062353 0.981459
vt 0.062472 0.942611
vt 0.929075 0.241977
vt 0.919505 0.195437
vt 0.938930 0.195497
vt 0.938787 0.242007
vt 0.909945 0.146057
vt 0.939081 0.146146
vt 0.300355 0.596547
vt 0.346015 0.605629
vt 0.392569 0.605629
vt 0.449242 0.825950
vt 0.336661 0.700597
vt 0.401923 0.700597
vt 0.405664 0.738584
vt 0.332920 0.738584
vt 0.272654 0.687865
vt 0.261573 0.724392
vn -0.773011 0.000000 0.634393
vn 0.000000 1.000000 0.000000
vn 0.083388 0.984229 0.156009
vn -0.881921 0.000000 0.471397
vn 0.078644 0.994811 -0.064542
vn 0.112222 0.984230 0.136743
vn -0.773010 0.000000 0.634393
vn 0.773011 0.000000 -0.634393
vn 0.881921 0.000000 -0.471396
vn 0.881921 0.000000 -0.471397
vn 0.555570 0.000000 0.831469
vn 0.555571 0.000000 0.831469
usemtl Material_Bottom_bottom
s off
f 38/1/1 47/2/1 3/3/1
f 38/1/1 3/3/1 4/4/1
f 1/5/2 53/6/2 5/7/2
f 1/5/2 5/7/2 16/8/2
f 15/9/2 54/10/2 6/11/2
f 15/9/2 6/11/2 14/12/2
f 13/13/2 7/14/2 52/15/2
f 13/13/2 52/15/2 12/16/2
f 11/17/3 8/18/3 9/19/3
f 11/17/3 9/19/3 10/20/3
f 47/2/4 57/21/4 58/22/4
f 47/2/4 58/22/4 3/3/4
f 2/23/2 1/5/2 16/8/2
f 2/23/2 16/8/2 23/24/2
f 22/25/2 15/9/2 14/12/2
f 22/25/2 14/12/2 21/26/2
f 25/27/5 24/28/5 13/13/5
f 25/27/5 13/13/5 20/29/5
f 20/29/2 13/13/2 12/16/2
f 20/29/2 12/16/2 19/30/2
f 18/31/6 11/17/6 10/20/6
f 18/31/6 10/20/6 17/32/6
f 15/33/7 22/34/7 29/35/7
f 15/33/7 29/35/7 32/36/7
f 43/37/8 49/38/8 17/39/8
f 43/37/8 17/39/8 10/40/8
f 26/41/9 33/42/9 14/43/9
f 26/41/9 14/43/9 6/44/9
f 41/45/8 39/46/8 19/47/8
f 41/45/8 19/47/8 12/48/8
f 46/49/10 43/37/10 10/40/10
f 46/49/10 10/40/10 9/50/10
f 21/26/5 14/12/5 24/28/5
f 21/26/5 24/28/5 25/27/5
f 30/51/8 28/52/8 23/53/8
f 30/51/8 23/53/8 16/54/8
f 30/55/2 56/56/2 55/57/2
f 30/55/2 55/57/2 32/58/2
f 28/59/2 30/55/2 32/58/2
f 28/59/2 32/58/2 29/60/2
f 33/61/2 26/62/2 59/63/2
f 33/61/2 59/63/2 27/64/2
f 27/64/2 59/63/2 35/65/2
f 27/64/2 35/65/2 34/66/2
f 7/67/4 13/68/4 34/69/4
f 7/67/4 34/69/4 35/70/4
f 56/71/10 30/51/10 16/54/10
f 56/71/10 16/54/10 5/72/10
f 24/73/11 14/74/11 33/75/11
f 24/73/11 33/75/11 27/76/11
f 54/77/4 15/33/4 32/36/4
f 54/77/4 32/36/4 55/78/4
f 27/76/12 34/79/12 13/80/12
f 27/76/12 13/80/12 24/73/12
f 8/81/4 11/82/4 42/83/4
f 8/81/4 42/83/4 48/84/4
f 11/82/7 18/85/7 40/86/7
f 11/82/7 40/86/7 42/83/7
f 50/87/2 36/88/2 42/17/2
f 50/87/2 42/17/2 40/31/2
f 41/16/2 51/15/2 37/89/2
f 41/16/2 37/89/2 36/88/2
f 39/30/2 41/16/2 36/88/2
f 39/30/2 36/88/2 50/87/2
f 36/88/2 37/89/2 48/18/2
f 36/88/2 48/18/2 42/17/2
f 51/90/10 41/45/10 12/48/10
f 51/90/10 12/48/10 52/69/10
f 44/91/2 45/92/2 57/93/2
f 44/91/2 57/93/2 47/94/2
f 31/95/2 44/91/2 47/94/2
f 31/95/2 47/94/2 38/96/2
f 43/20/2 46/19/2 45/92/2
f 43/20/2 45/92/2 44/91/2
f 49/32/2 43/20/2 44/91/2
f 49/32/2 44/91/2 31/95/2
