# Blender v2.63 (sub 0) OBJ File: 'xkill2.blend'
# www.blender.org
mtllib bottom_10.mtl
g Cylinder.006
v -1.111140 -0.300000 1.662939
v -0.765367 -0.300000 1.847759
v -21.227051 0.500000 31.768547
v -14.621442 0.500000 35.299320
v -16.860037 0.500000 25.232843
v -14.676531 0.500000 21.964991
v -12.493023 0.500000 18.697136
v -10.309517 0.500000 15.429286
v -8.126008 0.100000 12.161435
v -5.942500 0.100000 8.893584
v -3.758993 -0.300000 5.625732
v -11.613392 0.500000 28.037235
v -10.109366 0.500000 24.406189
v -8.605340 0.500000 20.775148
v -7.101315 0.500000 17.144106
v -5.597289 0.100000 13.513064
v -2.589238 -0.300000 6.250979
v -9.217763 0.300000 13.795360
v -13.584777 0.500000 20.331064
v -10.109366 4.500000 24.406189
v -8.605340 4.500000 20.775148
v -7.101315 4.500000 17.144106
v -3.758993 4.500000 5.625732
v -5.942500 4.500000 8.893584
v -8.126008 4.500000 12.161435
v -10.309517 4.500000 15.429286
v -14.676531 4.500000 21.964991
v -12.493023 4.500000 18.697136
v -17.290140 4.500000 17.290150
v -17.290140 0.500000 17.290150
v -21.458757 4.500000 21.458771
v -9.217763 4.500000 13.795360
v -21.227051 4.500000 31.768547
v -16.860037 4.500000 25.232843
v -19.043545 4.500000 28.500694
v -13.584777 4.500000 20.331064
v -11.613392 4.500000 28.037235
v -13.117417 4.500000 31.668278
v -4.784290 -0.300000 4.784293
v -1.414214 -0.300000 1.414214
v -18.679678 1.500000 18.679689
v -21.458757 1.500000 21.458771
v -13.121523 0.500000 13.121531
v -15.900602 0.500000 15.900612
v -11.731984 0.300000 11.731993
v -7.563367 0.100000 7.563373
v -10.342446 0.100000 10.342453
v -27.016916 4.500000 27.016930
v -27.016916 0.500000 27.016930
v -15.900602 4.500000 15.900612
v -4.784290 4.500000 4.784293
v -7.563367 4.500000 7.563373
v -24.237835 4.500000 24.237850
v -18.679678 4.500000 18.679689
v -4.093264 0.100000 9.882023
v -4.093264 4.500000 9.882023
v -14.621442 4.500000 35.299320
v -5.597289 4.500000 13.513064
v -2.589238 4.500000 6.250979
v -6.349302 4.500000 15.328586
v -9.357353 4.500000 22.590668
vt 0.819970 0.680434
vt 0.819797 0.623791
vt 0.858645 0.623672
vt 0.858819 0.680315
vt 0.820148 0.738212
vt 0.849284 0.738123
vt 0.780027 0.323635
vt 0.779804 0.250892
vt 0.818653 0.250772
vt 0.818876 0.323516
vt 0.900387 0.095731
vt 0.900538 0.046424
vt 0.939387 0.046543
vt 0.939235 0.095850
vt 0.360135 0.386423
vt 0.363653 0.387880
vt 0.350217 0.432175
vt 0.338315 0.427245
vt 0.245848 0.856906
vt 0.245910 0.877271
vt 0.203177 0.877402
vt 0.203115 0.857038
vt 0.320322 0.460909
vt 0.339136 0.468702
vt 0.328056 0.505229
vt 0.302328 0.494572
vt 0.293331 0.511404
vt 0.322516 0.523493
vt 0.316975 0.541756
vt 0.284335 0.528236
vt 0.305895 0.578283
vt 0.266341 0.561900
vt 0.248347 0.595563
vt 0.294815 0.614811
vt 0.283734 0.651338
vt 0.230354 0.629227
vt 0.780246 0.394949
vt 0.819094 0.394830
vt 0.245972 0.897235
vt 0.203238 0.897366
vt 0.356969 0.384307
vt 0.327604 0.420088
vt 0.303389 0.449595
vt 0.279174 0.479101
vt 0.254958 0.508608
vt 0.230743 0.538114
vt 0.206528 0.567620
vt 0.182313 0.597127
vt 0.593912 0.996108
vt 0.574918 0.996166
vt 0.574799 0.957318
vt 0.593792 0.957259
vt 0.202949 0.835400
vt 0.202821 0.877372
vt 0.163972 0.877253
vt 0.164101 0.835281
vt 0.906633 0.913954
vt 0.906593 0.926836
vt 0.859975 0.926693
vt 0.860015 0.913811
vt 0.289341 0.753191
vt 0.285602 0.765518
vt 0.248165 0.758072
vt 0.254076 0.738584
vt 0.284339 0.778338
vt 0.246169 0.778338
vt 0.049151 0.893015
vt 0.062353 0.917534
vt 0.046517 0.928186
vt 0.031540 0.900373
vt 0.030680 0.938838
vt 0.013930 0.907731
vt 0.900550 0.469200
vt 0.900466 0.441900
vt 0.943199 0.441769
vt 0.943283 0.469069
vt 0.962282 0.428351
vt 0.981282 0.430236
vt 0.981401 0.469084
vt 0.962407 0.469142
vt 0.943414 0.469200
vt 0.943283 0.426467
vt 0.535588 0.835162
vt 0.535694 0.800526
vt 0.574543 0.800646
vt 0.574436 0.835281
vt 0.906554 0.939465
vt 0.859936 0.939322
vt 0.300355 0.596547
vt 0.257344 0.578731
vt 0.909945 0.146057
vt 0.939081 0.146146
vt 0.218636 0.552867
vt 0.410286 0.954223
vt 0.410144 0.907668
vt 0.448992 0.907549
vt 0.449135 0.954103
vt 0.977602 0.724489
vt 0.996595 0.724547
vt 0.996476 0.763396
vt 0.977483 0.763337
vt 0.212360 0.662890
vt 0.272654 0.687865
vt 0.261573 0.724392
vt 0.194367 0.696554
vt 0.158097 0.626633
vt 0.133882 0.656140
vn 0.471397 0.000000 -0.881921
vn 0.634393 0.000000 -0.773010
vn -0.634393 0.000000 0.773011
vn -0.471396 0.000000 0.881921
vn 0.000000 1.000000 0.000000
vn -0.634393 0.000000 0.773010
vn 0.064542 0.994811 -0.078644
vn 0.136743 0.984230 0.112222
vn -0.471397 0.000000 0.881921
vn -0.831470 0.000000 -0.555570
vn -0.831469 0.000000 -0.555571
vn -0.634394 0.000000 0.773010
vn 0.707107 0.000000 0.707107
usemtl Material_Bottom_bottom
s off
f 34/1/1 37/2/1 12/3/1
f 34/1/1 12/3/1 5/4/1
f 31/5/2 34/1/2 5/4/2
f 31/5/2 5/4/2 42/6/2
f 33/7/3 48/8/3 49/9/3
f 33/7/3 49/9/3 3/10/3
f 6/11/4 13/12/4 20/13/4
f 6/11/4 20/13/4 27/14/4
f 1/15/5 40/16/5 39/17/5
f 1/15/5 39/17/5 11/18/5
f 46/19/6 10/20/6 24/21/6
f 46/19/6 24/21/6 52/22/6
f 10/23/5 46/24/5 47/25/5
f 10/23/5 47/25/5 9/26/5
f 18/27/7 45/28/7 43/29/7
f 18/27/7 43/29/7 8/30/7
f 8/30/5 43/29/5 44/31/5
f 8/30/5 44/31/5 7/32/5
f 6/33/8 41/34/8 42/35/8
f 6/33/8 42/35/8 5/36/8
f 57/37/9 33/7/9 3/10/9
f 57/37/9 3/10/9 4/38/9
f 10/20/9 55/39/9 56/40/9
f 10/20/9 56/40/9 24/21/9
f 2/41/5 1/15/5 11/18/5
f 2/41/5 11/18/5 17/42/5
f 55/43/5 10/23/5 9/26/5
f 55/43/5 9/26/5 16/44/5
f 15/45/5 8/30/5 7/32/5
f 15/45/5 7/32/5 14/46/5
f 13/47/5 6/33/5 5/36/5
f 13/47/5 5/36/5 12/48/5
f 36/49/10 28/50/10 7/51/10
f 36/49/10 7/51/10 19/52/10
f 28/53/1 21/54/1 14/55/1
f 28/53/1 14/55/1 7/56/1
f 9/26/7 47/25/7 45/28/7
f 9/26/7 45/28/7 18/27/7
f 51/57/2 23/58/2 11/59/2
f 51/57/2 11/59/2 39/60/2
f 59/61/5 23/62/5 24/63/5
f 59/61/5 24/63/5 56/64/5
f 23/62/5 51/65/5 52/66/5
f 23/62/5 52/66/5 24/63/5
f 58/67/5 25/68/5 32/69/5
f 58/67/5 32/69/5 60/70/5
f 60/70/5 32/69/5 26/71/5
f 60/70/5 26/71/5 22/72/5
f 25/73/1 58/74/1 16/75/1
f 25/73/1 16/75/1 9/76/1
f 18/77/10 8/78/10 26/79/10
f 18/77/10 26/79/10 32/80/10
f 32/80/11 25/81/11 9/82/11
f 32/80/11 9/82/11 18/77/11
f 8/83/9 15/84/9 22/85/9
f 8/83/9 22/85/9 26/86/9
f 23/58/1 59/87/1 17/88/1
f 23/58/1 17/88/1 11/59/1
f 7/32/5 44/31/5 30/89/5
f 7/32/5 30/89/5 19/90/5
f 41/91/12 6/11/12 27/14/12
f 41/91/12 27/14/12 54/92/12
f 61/93/5 36/90/5 27/33/5
f 61/93/5 27/33/5 20/47/5
f 29/94/2 36/95/2 19/96/2
f 29/94/2 19/96/2 30/97/2
f 36/90/5 29/89/5 54/34/5
f 36/90/5 54/34/5 27/33/5
f 21/46/5 28/32/5 36/90/5
f 21/46/5 36/90/5 61/93/5
f 30/98/13 44/99/13 50/100/13
f 30/98/13 50/100/13 29/101/13
f 35/102/5 53/103/5 48/104/5
f 35/102/5 48/104/5 33/105/5
f 38/106/5 35/102/5 33/105/5
f 38/106/5 33/105/5 57/107/5
f 34/36/5 31/35/5 53/103/5
f 34/36/5 53/103/5 35/102/5
f 37/48/5 34/36/5 35/102/5
f 37/48/5 35/102/5 38/106/5
