# Blender v2.63 (sub 0) OBJ File: 'xkill3.blend'
# www.blender.org
mtllib middle_03.mtl
g Cylinder.026
v 32.034668 4.500000 -21.404873
v 32.034668 4.900000 -21.404873
v 35.595009 4.500000 -14.743927
v 35.595009 4.900000 -14.743927
v 24.351086 4.500000 -10.086545
v 5.642467 4.500000 -3.770175
v 8.423047 4.500000 -5.628098
v 11.796136 4.500000 -7.881923
v 15.169225 4.500000 -10.135748
v 18.542315 4.500000 -12.389573
v 21.915403 4.500000 -14.643398
v 25.288490 4.500000 -16.897223
v 28.661579 4.500000 -19.151049
v 31.847036 4.900000 -13.191465
v 28.099062 4.900000 -11.639006
v 24.351086 4.900000 -10.086545
v 20.603113 4.900000 -8.534083
v 16.855139 4.900000 -6.981622
v 13.107163 4.900000 -5.429161
v 9.359188 4.900000 -3.876700
v 6.269573 4.900000 -2.596941
v 28.661579 4.900000 -19.151049
v 25.288490 4.900000 -16.897224
v 21.915403 4.900000 -14.643399
v 18.542315 4.900000 -12.389574
v 15.169225 4.900000 -10.135749
v 11.796136 4.900000 -7.881924
v 8.423047 4.900000 -5.628099
v 5.642467 4.900000 -3.770175
v 24.374666 4.900000 -24.374660
v 18.637516 4.900000 -18.637510
v 15.768941 4.900000 -15.768935
v 12.900365 4.900000 -12.900361
v 10.031789 4.900000 -10.031786
v 7.163212 4.900000 -7.163210
v 4.798522 4.900000 -4.798522
v 15.169225 7.500000 -10.135749
v 11.796136 7.500000 -7.881924
v 12.900365 7.500000 -12.900361
v 10.031789 7.500000 -10.031786
v 28.099060 4.500000 -11.639006
v 20.603111 4.500000 -8.534083
v 27.243244 4.900000 -27.243237
v 27.243244 4.500000 -27.243237
v 24.374666 4.500000 -24.374660
v 21.506092 4.500000 -21.506086
v 15.768941 4.500000 -15.768935
v 18.637516 4.500000 -18.637510
v 12.900365 4.500000 -12.900361
v 10.031789 4.500000 -10.031786
v 7.163212 4.500000 -7.163210
v 4.798522 4.500000 -4.798522
v 16.855137 4.500000 -6.981623
v 21.506092 4.900000 -21.506086
v 13.107162 4.500000 -5.429162
v 6.269573 4.500000 -2.596941
v 9.359187 4.500000 -3.876700
v 31.847034 4.500000 -13.191465
vt 0.609075 0.177437
vt 0.634854 0.177358
vt 0.635004 0.225981
vt 0.609224 0.226060
vt 0.608927 0.129302
vt 0.634707 0.129223
vt 0.916345 0.361218
vt 0.916446 0.394148
vt 0.890666 0.394227
vt 0.890565 0.361297
vt 0.916548 0.427412
vt 0.890768 0.427491
vt 0.451519 0.033858
vt 0.491992 0.060902
vt 0.475405 0.081113
vt 0.439194 0.056917
vt 0.458819 0.101324
vt 0.426869 0.079975
vt 0.414544 0.103034
vt 0.442232 0.121535
vt 0.425645 0.141746
vt 0.402219 0.126092
vt 0.409059 0.161957
vt 0.389894 0.149151
vt 0.392472 0.182167
vt 0.377569 0.172209
vt 0.375886 0.202378
vt 0.365244 0.195268
vt 0.362212 0.219039
vt 0.355084 0.214276
vt 0.406547 0.015231
vt 0.398957 0.040250
vt 0.391367 0.065270
vt 0.383778 0.090290
vt 0.376188 0.115310
vt 0.368598 0.140330
vt 0.361009 0.165350
vt 0.353419 0.190370
vt 0.347162 0.210995
vt 0.262386 0.509458
vt 0.310128 0.499961
vt 0.312691 0.525981
vt 0.269976 0.534478
vt 0.315253 0.552001
vt 0.277565 0.559497
vt 0.812406 0.285869
vt 0.812524 0.324253
vt 0.786744 0.324332
vt 0.786626 0.285948
vt 0.285155 0.584517
vt 0.317816 0.578021
vt 0.320379 0.604041
vt 0.292745 0.609537
vt 0.322942 0.630060
vt 0.300335 0.634557
vt 0.325504 0.656080
vt 0.307924 0.659577
vt 0.328067 0.682100
vt 0.315514 0.684597
vt 0.330180 0.703549
vt 0.321771 0.705222
vt 0.812640 0.362250
vt 0.786860 0.362329
vt 0.358805 0.499961
vt 0.356242 0.525981
vt 0.353680 0.552001
vt 0.351117 0.578021
vt 0.348554 0.604041
vt 0.345991 0.630060
vt 0.712644 0.353306
vt 0.689619 0.353377
vt 0.689105 0.185809
vt 0.712130 0.185739
vt 0.343429 0.656080
vt 0.340866 0.682100
vt 0.338753 0.703549
vt 0.740970 0.140590
vt 0.715190 0.140669
vt 0.715164 0.132105
vt 0.740944 0.132025
vt 0.740996 0.149068
vt 0.715216 0.149147
vt 0.726934 0.730785
vt 0.729193 0.753723
vt 0.703047 0.753723
vt 0.701290 0.735885
vt 0.772869 0.524276
vt 0.790774 0.524221
vt 0.791288 0.691789
vt 0.773383 0.691843
vt 0.838375 0.524300
vt 0.864252 0.524221
vt 0.864766 0.691789
vt 0.838889 0.691868
vn 0.773010 0.000000 -0.634394
vn 0.881922 0.000000 -0.471396
vn 0.881922 -0.000001 -0.471396
vn 0.773010 -0.000001 -0.634394
vn 0.000000 -1.000000 0.000000
vn -0.000000 1.000000 0.000000
vn -0.773010 0.000002 0.634393
vn -0.881922 0.000003 0.471396
vn 0.773010 0.000000 -0.634393
vn -0.773010 0.000000 0.634394
vn -0.881921 0.000001 0.471397
vn 0.555570 0.000000 0.831470
usemtl Material_Middle_untitled
s off
f 2/1/1 1/2/1 44/3/1
f 2/1/1 44/3/1 43/4/1
f 1/2/2 2/1/2 4/5/2
f 1/2/2 4/5/2 3/6/2
f 5/7/3 11/8/3 24/9/3
f 5/7/3 24/9/3 16/10/3
f 11/8/4 48/11/4 31/12/4
f 11/8/4 31/12/4 24/9/4
f 1/13/5 3/14/5 58/15/5
f 1/13/5 58/15/5 13/16/5
f 13/16/5 58/15/5 41/17/5
f 13/16/5 41/17/5 12/18/5
f 11/19/5 5/20/5 42/21/5
f 11/19/5 42/21/5 10/22/5
f 10/22/5 42/21/5 53/23/5
f 10/22/5 53/23/5 9/24/5
f 9/24/5 53/23/5 55/25/5
f 9/24/5 55/25/5 8/26/5
f 8/26/5 55/25/5 57/27/5
f 8/26/5 57/27/5 7/28/5
f 7/28/5 57/27/5 56/29/5
f 7/28/5 56/29/5 6/30/5
f 44/31/5 1/13/5 13/16/5
f 44/31/5 13/16/5 45/32/5
f 45/32/5 13/16/5 12/18/5
f 45/32/5 12/18/5 46/33/5
f 48/34/5 11/19/5 10/22/5
f 48/34/5 10/22/5 47/35/5
f 47/35/5 10/22/5 9/24/5
f 47/35/5 9/24/5 49/36/5
f 49/36/5 9/24/5 8/26/5
f 49/36/5 8/26/5 50/37/5
f 50/37/5 8/26/5 7/28/5
f 50/37/5 7/28/5 51/38/5
f 51/38/5 7/28/5 6/30/5
f 51/38/5 6/30/5 52/39/5
f 4/40/6 2/41/6 22/42/6
f 4/40/6 22/42/6 14/43/6
f 14/43/6 22/42/6 23/44/6
f 14/43/6 23/44/6 15/45/6
f 46/46/7 12/47/7 23/48/7
f 46/46/7 23/48/7 54/49/7
f 16/50/6 24/51/6 25/52/6
f 16/50/6 25/52/6 17/53/6
f 17/53/6 25/52/6 26/54/6
f 17/53/6 26/54/6 18/55/6
f 18/55/6 26/54/6 27/56/6
f 18/55/6 27/56/6 19/57/6
f 19/57/6 27/56/6 28/58/6
f 19/57/6 28/58/6 20/59/6
f 20/59/6 28/58/6 29/60/6
f 20/59/6 29/60/6 21/61/6
f 12/47/8 41/62/8 15/63/8
f 12/47/8 15/63/8 23/48/8
f 2/41/6 43/64/6 30/65/6
f 2/41/6 30/65/6 22/42/6
f 22/42/6 30/65/6 54/66/6
f 22/42/6 54/66/6 23/44/6
f 24/51/6 31/67/6 32/68/6
f 24/51/6 32/68/6 25/52/6
f 25/52/6 32/68/6 33/69/6
f 25/52/6 33/69/6 26/54/6
f 39/70/9 37/71/9 26/72/9
f 39/70/9 26/72/9 33/73/9
f 27/56/6 34/74/6 35/75/6
f 27/56/6 35/75/6 28/58/6
f 28/58/6 35/75/6 36/76/6
f 28/58/6 36/76/6 29/60/6
f 6/77/10 29/78/10 36/79/10
f 6/77/10 36/79/10 52/80/10
f 56/81/11 21/82/11 29/78/11
f 56/81/11 29/78/11 6/77/11
f 37/83/6 39/84/6 40/85/6
f 37/83/6 40/85/6 38/86/6
f 34/87/10 27/88/10 38/89/10
f 34/87/10 38/89/10 40/90/10
f 27/91/12 26/92/12 37/93/12
f 27/91/12 37/93/12 38/94/12
