# Blender v2.63 (sub 0) OBJ File: 'xkill3.blend'
# www.blender.org
mtllib middle_10.mtl
g Cylinder.029
v -21.404903 4.500000 32.034672
v -21.404903 4.900000 32.034672
v -27.243265 4.500000 27.243240
v -27.243265 4.900000 27.243240
v -4.798527 4.500000 4.798522
v -7.163218 4.500000 7.163211
v -10.031796 4.500000 10.031787
v -12.900374 4.500000 12.900363
v -15.768952 4.500000 15.768938
v -18.637529 4.500000 18.637512
v -21.506109 4.500000 21.506088
v -24.374685 4.500000 24.374662
v -3.770180 4.500000 5.642467
v -5.628106 4.500000 8.423047
v -7.881934 4.500000 11.796136
v -10.135762 4.500000 15.169225
v -12.389590 4.500000 18.542315
v -14.643418 4.500000 21.915403
v -16.897245 4.500000 25.288490
v -19.151075 4.500000 28.661581
v -2.596946 4.500000 6.269574
v -3.876709 4.500000 9.359190
v -5.429173 4.500000 13.107166
v -6.981638 4.500000 16.855143
v -8.534102 4.500000 20.603119
v -10.086567 4.500000 24.351095
v -11.639031 4.500000 28.099070
v -13.191496 4.500000 31.847046
v -3.770180 4.900000 5.642467
v -5.628106 4.900000 8.423047
v -7.881934 4.900000 11.796136
v -10.135762 4.900000 15.169225
v -12.389590 4.900000 18.542315
v -14.643418 4.900000 21.915403
v -16.897245 4.900000 25.288490
v -19.151075 4.900000 28.661581
v -18.637529 4.900000 18.637514
v -12.900374 7.500000 12.900363
v -10.031796 7.500000 10.031788
v -7.881934 7.500000 11.796136
v -10.135762 7.500000 15.169225
v -4.798527 4.900000 4.798522
v -10.031796 4.900000 10.031788
v -7.163218 4.900000 7.163211
v -12.900374 4.900000 12.900363
v -15.768952 4.900000 15.768939
v -24.374685 4.900000 24.374664
v -21.506109 4.900000 21.506090
v -14.743960 4.900000 35.595020
v -14.743960 4.500000 35.595020
v -13.191496 4.900000 31.847046
v -11.639031 4.900000 28.099070
v -10.086567 4.900000 24.351095
v -8.534102 4.900000 20.603119
v -6.981638 4.900000 16.855143
v -5.429173 4.900000 13.107166
v -3.876709 4.900000 9.359190
v -2.596946 4.900000 6.269574
vt 0.636225 0.273304
vt 0.662004 0.273225
vt 0.662139 0.317273
vt 0.636360 0.317352
vt 0.636080 0.226060
vt 0.661859 0.225981
vt 0.310128 0.499961
vt 0.262386 0.490465
vt 0.269976 0.465445
vt 0.312691 0.473941
vt 0.277565 0.440425
vt 0.315253 0.447922
vt 0.317816 0.421902
vt 0.285155 0.415405
vt 0.292745 0.390385
vt 0.320379 0.395882
vt 0.300335 0.365365
vt 0.322941 0.369862
vt 0.307924 0.340345
vt 0.325504 0.343842
vt 0.315514 0.315326
vt 0.328067 0.317823
vt 0.321770 0.294701
vt 0.330180 0.296373
vt 0.810068 0.005734
vt 0.810183 0.043029
vt 0.784403 0.043108
vt 0.784289 0.005813
vt 0.358805 0.499961
vt 0.356242 0.473941
vt 0.353680 0.447922
vt 0.351117 0.421902
vt 0.348554 0.395882
vt 0.345991 0.369862
vt 0.343429 0.343842
vt 0.340866 0.317823
vt 0.338753 0.296373
vt 0.915899 0.659465
vt 0.915999 0.691785
vt 0.890219 0.691864
vt 0.890120 0.659544
vt 0.701129 0.730791
vt 0.701208 0.756569
vt 0.676519 0.756568
vt 0.676440 0.730789
vt 0.262386 0.984692
vt 0.217414 0.966064
vt 0.229739 0.943006
vt 0.269976 0.959672
vt 0.242064 0.919947
vt 0.277566 0.934652
vt 0.254389 0.896889
vt 0.285155 0.909632
vt 0.266714 0.873830
vt 0.292745 0.884612
vt 0.279039 0.850772
vt 0.300335 0.859593
vt 0.291364 0.827713
vt 0.307924 0.834573
vt 0.303689 0.804655
vt 0.315514 0.809553
vt 0.313849 0.785647
vt 0.321771 0.788928
vt 0.839564 0.292243
vt 0.864901 0.292165
vt 0.865415 0.459733
vt 0.840079 0.459811
vt 0.310128 0.994188
vt 0.312691 0.968169
vt 0.315253 0.942149
vt 0.317816 0.916129
vt 0.320379 0.890109
vt 0.322942 0.864089
vt 0.325504 0.838070
vt 0.328067 0.812050
vt 0.330180 0.790600
vt 0.727333 0.501163
vt 0.753112 0.501242
vt 0.753087 0.509564
vt 0.727307 0.509485
vt 0.753063 0.517322
vt 0.727283 0.517243
vt 0.779199 0.501281
vt 0.781458 0.478342
vt 0.807101 0.483443
vt 0.805344 0.501281
vt 0.727262 0.524081
vt 0.704891 0.524149
vt 0.704377 0.356582
vt 0.726748 0.356513
vt 0.748474 0.005842
vt 0.765870 0.005789
vt 0.766384 0.173357
vt 0.748988 0.173410
vn -0.471397 0.000000 0.881921
vn -0.634394 0.000000 0.773010
vn -0.000000 -1.000000 0.000000
vn 0.634394 0.000002 -0.773010
vn -0.634394 -0.000002 0.773010
vn -0.831469 0.000000 -0.555571
vn 0.000000 1.000000 -0.000000
vn 0.831469 0.000000 0.555571
vn 0.634394 0.000000 -0.773010
vn 0.471397 0.000001 -0.881921
usemtl Material_Middle_untitled
s off
f 2/1/1 1/2/1 50/3/1
f 2/1/1 50/3/1 49/4/1
f 1/2/2 2/1/2 4/5/2
f 1/2/2 4/5/2 3/6/2
f 1/7/3 3/8/3 12/9/3
f 1/7/3 12/9/3 20/10/3
f 20/10/3 12/9/3 11/11/3
f 20/10/3 11/11/3 19/12/3
f 18/13/3 10/14/3 9/15/3
f 18/13/3 9/15/3 17/16/3
f 17/16/3 9/15/3 8/17/3
f 17/16/3 8/17/3 16/18/3
f 16/18/3 8/17/3 7/19/3
f 16/18/3 7/19/3 15/20/3
f 15/20/3 7/19/3 6/21/3
f 15/20/3 6/21/3 14/22/3
f 14/22/3 6/21/3 5/23/3
f 14/22/3 5/23/3 13/24/3
f 19/25/4 11/26/4 48/27/4
f 19/25/4 48/27/4 35/28/4
f 50/29/3 1/7/3 20/10/3
f 50/29/3 20/10/3 28/30/3
f 28/30/3 20/10/3 19/12/3
f 28/30/3 19/12/3 27/31/3
f 27/31/3 19/12/3 18/13/3
f 27/31/3 18/13/3 26/32/3
f 26/32/3 18/13/3 17/16/3
f 26/32/3 17/16/3 25/33/3
f 25/33/3 17/16/3 16/18/3
f 25/33/3 16/18/3 24/34/3
f 24/34/3 16/18/3 15/20/3
f 24/34/3 15/20/3 23/35/3
f 23/35/3 15/20/3 14/22/3
f 23/35/3 14/22/3 22/36/3
f 22/36/3 14/22/3 13/24/3
f 22/36/3 13/24/3 21/37/3
f 10/38/5 18/39/5 34/40/5
f 10/38/5 34/40/5 37/41/5
f 19/42/6 35/43/6 34/44/6
f 19/42/6 34/44/6 18/45/6
f 2/46/7 49/47/7 51/48/7
f 2/46/7 51/48/7 36/49/7
f 36/49/7 51/48/7 52/50/7
f 36/49/7 52/50/7 35/51/7
f 35/51/7 52/50/7 53/52/7
f 35/51/7 53/52/7 34/53/7
f 34/53/7 53/52/7 54/54/7
f 34/53/7 54/54/7 33/55/7
f 33/55/7 54/54/7 55/56/7
f 33/55/7 55/56/7 32/57/7
f 32/57/7 55/56/7 56/58/7
f 32/57/7 56/58/7 31/59/7
f 31/59/7 56/58/7 57/60/7
f 31/59/7 57/60/7 30/61/7
f 30/61/7 57/60/7 58/62/7
f 30/61/7 58/62/7 29/63/7
f 32/64/8 31/65/8 40/66/8
f 32/64/8 40/66/8 41/67/8
f 4/68/7 2/46/7 36/49/7
f 4/68/7 36/49/7 47/69/7
f 47/69/7 36/49/7 35/51/7
f 47/69/7 35/51/7 48/70/7
f 37/71/7 34/53/7 33/55/7
f 37/71/7 33/55/7 46/72/7
f 46/72/7 33/55/7 32/57/7
f 46/72/7 32/57/7 45/73/7
f 43/74/7 31/59/7 30/61/7
f 43/74/7 30/61/7 44/75/7
f 44/75/7 30/61/7 29/63/7
f 44/75/7 29/63/7 42/76/7
f 5/77/9 42/78/9 29/79/9
f 5/77/9 29/79/9 13/80/9
f 13/80/10 29/79/10 58/81/10
f 13/80/10 58/81/10 21/82/10
f 38/83/7 41/84/7 40/85/7
f 38/83/7 40/85/7 39/86/7
f 41/87/2 38/88/2 45/89/2
f 41/87/2 45/89/2 32/90/2
f 31/91/9 43/92/9 39/93/9
f 31/91/9 39/93/9 40/94/9
