# Blender v2.63 (sub 0) OBJ File: 'xkill3.blend'
# www.blender.org
mtllib middle_14.mtl
g Cylinder.033
v -32.034649 4.500000 -21.404911
v -32.034649 4.900000 -21.404911
v -27.243212 4.500000 -27.243271
v -27.243212 4.900000 -27.243271
v -5.642463 4.500000 -3.770181
v -8.423041 4.500000 -5.628109
v -11.796128 4.500000 -7.881938
v -15.169215 4.500000 -10.135766
v -18.542303 4.500000 -12.389595
v -21.915388 4.500000 -14.643424
v -25.288475 4.500000 -16.897253
v -28.661562 4.500000 -19.151083
v -24.374638 4.500000 -24.374691
v -21.506065 4.500000 -21.506113
v -18.637491 4.500000 -18.637533
v -15.768919 4.500000 -15.768955
v -12.900347 4.500000 -12.900376
v -10.031775 4.500000 -10.031797
v -7.163203 4.500000 -7.163218
v -4.798516 4.500000 -4.798528
v -28.099056 4.500000 -11.639038
v -24.351082 4.500000 -10.086573
v -20.603109 4.500000 -8.534107
v -18.637491 4.900000 -18.637533
v -28.661560 4.900000 -19.151081
v -25.288473 4.900000 -16.897251
v -21.915386 4.900000 -14.643423
v -18.542301 4.900000 -12.389594
v -15.169213 4.900000 -10.135765
v -11.796127 4.900000 -7.881937
v -8.423041 4.900000 -5.628108
v -5.642463 4.900000 -3.770181
v -31.847033 4.900000 -13.191503
v -28.099058 4.900000 -11.639037
v -24.351084 4.900000 -10.086572
v -16.855137 4.900000 -6.981641
v -13.107162 4.900000 -5.429176
v -9.359186 4.900000 -3.876711
v -6.269571 4.900000 -2.596948
v -16.855135 4.500000 -6.981642
v -15.169213 7.500000 -10.135765
v -11.796127 7.500000 -7.881937
v -13.107161 4.500000 -5.429176
v -6.269571 4.500000 -2.596948
v -9.359186 4.500000 -3.876711
v -35.595005 4.900000 -14.743968
v -35.595005 4.500000 -14.743968
v -31.847031 4.500000 -13.191503
v -20.603111 4.900000 -8.534106
v -24.374638 4.900000 -24.374691
v -21.506065 4.900000 -21.506113
v -15.768919 4.900000 -15.768955
v -12.900347 4.900000 -12.900376
v -7.163203 4.900000 -7.163218
v -10.031775 4.900000 -10.031797
v -4.798516 4.900000 -4.798528
v -10.031775 7.500000 -10.031797
v -12.900347 7.500000 -12.900376
vt 0.607853 0.089318
vt 0.582075 0.089239
vt 0.582393 0.045067
vt 0.608171 0.045146
vt 0.607606 0.136631
vt 0.581827 0.136552
vt 0.087353 0.277186
vt 0.087353 0.228509
vt 0.113373 0.231072
vt 0.113373 0.274623
vt 0.139393 0.233634
vt 0.139392 0.272061
vt 0.165412 0.269498
vt 0.165412 0.236197
vt 0.191432 0.238760
vt 0.191432 0.266935
vt 0.217452 0.241323
vt 0.217452 0.264372
vt 0.243472 0.243885
vt 0.243472 0.261810
vt 0.269492 0.246448
vt 0.269492 0.259247
vt 0.290941 0.248561
vt 0.290941 0.257134
vt 0.096849 0.180767
vt 0.121869 0.188357
vt 0.146889 0.195946
vt 0.171909 0.203536
vt 0.196929 0.211126
vt 0.221949 0.218716
vt 0.246969 0.226305
vt 0.271989 0.233895
vt 0.292613 0.240152
vt 0.581580 0.771413
vt 0.572084 0.819155
vt 0.547064 0.811565
vt 0.555560 0.768850
vt 0.522044 0.803976
vt 0.529540 0.766288
vt 0.503521 0.763725
vt 0.497024 0.796386
vt 0.472004 0.788796
vt 0.477501 0.761162
vt 0.446984 0.781207
vt 0.451481 0.758600
vt 0.681353 0.524074
vt 0.658948 0.524094
vt 0.658434 0.356533
vt 0.680839 0.356513
vt 0.425461 0.756037
vt 0.421964 0.773617
vt 0.396944 0.766027
vt 0.399441 0.753474
vt 0.376319 0.759771
vt 0.377992 0.751362
vt 0.553456 0.864127
vt 0.530397 0.851802
vt 0.507339 0.839477
vt 0.755255 0.787990
vt 0.729476 0.787911
vt 0.729694 0.757693
vt 0.755473 0.757772
vt 0.484280 0.827152
vt 0.461222 0.814827
vt 0.438163 0.802502
vt 0.415105 0.790177
vt 0.392047 0.777852
vt 0.373038 0.767692
vt 0.755086 0.820358
vt 0.729307 0.820279
vt 0.915152 0.118333
vt 0.889373 0.118412
vt 0.889262 0.082284
vt 0.915042 0.082205
vt 0.915269 0.156320
vt 0.889489 0.156399
vt 0.779084 0.486795
vt 0.753304 0.486874
vt 0.753278 0.478398
vt 0.779058 0.478319
vt 0.753254 0.470338
vt 0.779033 0.470258
vt 0.840842 0.269226
vt 0.838583 0.292165
vt 0.812939 0.287065
vt 0.814696 0.269227
vt 0.735015 0.185779
vt 0.752734 0.185725
vt 0.753248 0.353293
vt 0.735529 0.353347
vt 0.889917 0.691789
vt 0.865280 0.691864
vt 0.864766 0.524296
vt 0.889403 0.524221
vn -0.881921 0.000000 -0.471398
vn -0.773009 0.000000 -0.634395
vn -0.000000 -1.000000 0.000000
vn 0.000000 1.000000 0.000000
vn -0.881921 0.000001 -0.471398
vn -0.773009 0.000003 -0.634395
vn 0.881921 -0.000002 0.471398
vn 0.773009 -0.000003 0.634395
vn 0.773009 -0.000000 0.634395
vn 0.881921 0.000000 0.471398
vn -0.555571 0.000000 0.831469
usemtl Material_Middle_untitled
s off
f 2/1/1 1/2/1 47/3/1
f 2/1/1 47/3/1 46/4/1
f 1/2/2 2/1/2 4/5/2
f 1/2/2 4/5/2 3/6/2
f 47/7/3 1/8/3 12/9/3
f 47/7/3 12/9/3 48/10/3
f 48/10/3 12/9/3 11/11/3
f 48/10/3 11/11/3 21/12/3
f 22/13/3 10/14/3 9/15/3
f 22/13/3 9/15/3 23/16/3
f 23/16/3 9/15/3 8/17/3
f 23/16/3 8/17/3 40/18/3
f 40/18/3 8/17/3 7/19/3
f 40/18/3 7/19/3 43/20/3
f 43/20/3 7/19/3 6/21/3
f 43/20/3 6/21/3 45/22/3
f 45/22/3 6/21/3 5/23/3
f 45/22/3 5/23/3 44/24/3
f 1/8/3 3/25/3 13/26/3
f 1/8/3 13/26/3 12/9/3
f 12/9/3 13/26/3 14/27/3
f 12/9/3 14/27/3 11/11/3
f 10/14/3 15/28/3 16/29/3
f 10/14/3 16/29/3 9/15/3
f 9/15/3 16/29/3 17/30/3
f 9/15/3 17/30/3 8/17/3
f 8/17/3 17/30/3 18/31/3
f 8/17/3 18/31/3 7/19/3
f 7/19/3 18/31/3 19/32/3
f 7/19/3 19/32/3 6/21/3
f 6/21/3 19/32/3 20/33/3
f 6/21/3 20/33/3 5/23/3
f 4/34/4 2/35/4 25/36/4
f 4/34/4 25/36/4 50/37/4
f 50/37/4 25/36/4 26/38/4
f 50/37/4 26/38/4 51/39/4
f 24/40/4 27/41/4 28/42/4
f 24/40/4 28/42/4 52/43/4
f 52/43/4 28/42/4 29/44/4
f 52/43/4 29/44/4 53/45/4
f 41/46/2 58/47/2 53/48/2
f 41/46/2 53/48/2 29/49/2
f 55/50/4 30/51/4 31/52/4
f 55/50/4 31/52/4 54/53/4
f 54/53/4 31/52/4 32/54/4
f 54/53/4 32/54/4 56/55/4
f 2/35/4 46/56/4 33/57/4
f 2/35/4 33/57/4 25/36/4
f 25/36/4 33/57/4 34/58/4
f 25/36/4 34/58/4 26/38/4
f 27/59/5 10/60/5 22/61/5
f 27/59/5 22/61/5 35/62/5
f 27/41/4 35/63/4 49/64/4
f 27/41/4 49/64/4 28/42/4
f 28/42/4 49/64/4 36/65/4
f 28/42/4 36/65/4 29/44/4
f 29/44/4 36/65/4 37/66/4
f 29/44/4 37/66/4 30/51/4
f 30/51/4 37/66/4 38/67/4
f 30/51/4 38/67/4 31/52/4
f 31/52/4 38/67/4 39/68/4
f 31/52/4 39/68/4 32/54/4
f 24/69/6 15/70/6 10/60/6
f 24/69/6 10/60/6 27/59/6
f 11/71/7 26/72/7 34/73/7
f 11/71/7 34/73/7 21/74/7
f 14/75/8 51/76/8 26/72/8
f 14/75/8 26/72/8 11/71/8
f 20/77/9 56/78/9 32/79/9
f 20/77/9 32/79/9 5/80/9
f 5/80/10 32/79/10 39/81/10
f 5/80/10 39/81/10 44/82/10
f 58/83/4 41/84/4 42/85/4
f 58/83/4 42/85/4 57/86/4
f 30/87/9 55/88/9 57/89/9
f 30/87/9 57/89/9 42/90/9
f 42/91/11 41/92/11 29/93/11
f 42/91/11 29/93/11 30/94/11
