# Blender v2.63 (sub 0) OBJ File: 'xkill3.blend'
# www.blender.org
mtllib middle_15.mtl
g Cylinder.021
v -21.404842 4.500000 -32.034687
v -21.404842 4.900000 -32.034687
v -14.743891 4.500000 -35.595032
v -14.743891 4.900000 -35.595032
v -3.770169 4.500000 -5.642471
v -5.628090 4.500000 -8.423054
v -7.881912 4.500000 -11.796144
v -10.135734 4.500000 -15.169234
v -12.389556 4.500000 -18.542326
v -14.643377 4.500000 -21.915417
v -16.897200 4.500000 -25.288507
v -19.151022 4.500000 -28.661596
v -19.151020 4.900000 -28.661596
v -16.897198 4.900000 -25.288507
v -14.643375 4.900000 -21.915417
v -12.389554 4.900000 -18.542326
v -10.135732 4.900000 -15.169234
v -7.881911 4.900000 -11.796144
v -5.628089 4.900000 -8.423054
v -3.770168 4.900000 -5.642471
v -13.191433 4.900000 -31.847054
v -11.638975 4.900000 -28.099077
v -10.086517 4.900000 -24.351101
v -8.534061 4.900000 -20.603125
v -6.981604 4.900000 -16.855148
v -5.429147 4.900000 -13.107171
v -3.876690 4.900000 -9.359194
v -2.596933 4.900000 -6.269577
v -24.374638 4.900000 -24.374691
v -21.506065 4.900000 -21.506113
v -15.768919 4.900000 -15.768955
v -12.900347 4.900000 -12.900376
v -10.031775 4.900000 -10.031797
v -7.163203 4.900000 -7.163218
v -4.798516 4.900000 -4.798528
v -10.135732 7.500000 -15.169234
v -7.881911 7.500000 -11.796144
v -12.900347 7.500000 -12.900376
v -10.031775 7.500000 -10.031797
v -11.638976 4.500000 -28.099075
v -27.243212 4.900000 -27.243271
v -27.243212 4.500000 -27.243271
v -24.374638 4.500000 -24.374691
v -21.506065 4.500000 -21.506113
v -15.768919 4.500000 -15.768955
v -18.637491 4.500000 -18.637533
v -12.900347 4.500000 -12.900376
v -10.031775 4.500000 -10.031797
v -7.163203 4.500000 -7.163218
v -4.798516 4.500000 -4.798528
v -18.637491 4.900000 -18.637533
v -10.086519 4.500000 -24.351099
v -8.534062 4.500000 -20.603123
v -6.981605 4.500000 -16.855146
v -5.429148 4.500000 -13.107170
v -2.596934 4.500000 -6.269576
v -3.876690 4.500000 -9.359193
v -13.191433 4.500000 -31.847054
vt 0.607439 0.185267
vt 0.581660 0.185188
vt 0.581827 0.136552
vt 0.607606 0.136631
vt 0.607359 0.233357
vt 0.581580 0.233278
vt 0.835928 0.243163
vt 0.810148 0.243084
vt 0.810229 0.216973
vt 0.836008 0.217052
vt 0.115477 0.135795
vt 0.142521 0.095322
vt 0.162732 0.111908
vt 0.138536 0.148120
vt 0.182943 0.128495
vt 0.161594 0.160445
vt 0.203154 0.145082
vt 0.184653 0.172770
vt 0.223365 0.161668
vt 0.207711 0.185095
vt 0.243575 0.178255
vt 0.230770 0.197420
vt 0.263786 0.194842
vt 0.253828 0.209745
vt 0.283997 0.211428
vt 0.276886 0.222070
vt 0.300658 0.225102
vt 0.295895 0.232230
vt 0.096849 0.180767
vt 0.121869 0.188357
vt 0.146889 0.195946
vt 0.171909 0.203536
vt 0.196929 0.211126
vt 0.221949 0.218716
vt 0.246969 0.226305
vt 0.271989 0.233895
vt 0.292613 0.240152
vt 0.581580 0.722736
vt 0.581580 0.771413
vt 0.555560 0.768850
vt 0.555560 0.725299
vt 0.529540 0.766288
vt 0.529540 0.727861
vt 0.503520 0.730424
vt 0.503521 0.763725
vt 0.477501 0.761162
vt 0.477501 0.732987
vt 0.451481 0.758600
vt 0.451481 0.735550
vt 0.752734 0.185725
vt 0.770641 0.185670
vt 0.771155 0.353238
vt 0.753248 0.353293
vt 0.425461 0.738113
vt 0.425461 0.756037
vt 0.399441 0.753474
vt 0.399441 0.740675
vt 0.377992 0.751362
vt 0.377992 0.742788
vt 0.572083 0.674994
vt 0.547064 0.682584
vt 0.522044 0.690174
vt 0.497024 0.697763
vt 0.472004 0.705353
vt 0.446984 0.712943
vt 0.421964 0.720532
vt 0.396944 0.728122
vt 0.376319 0.734379
vt 0.658948 0.524094
vt 0.635918 0.524156
vt 0.635404 0.356595
vt 0.658434 0.356533
vt 0.754971 0.853631
vt 0.729193 0.853552
vt 0.729307 0.820279
vt 0.755086 0.820358
vt 0.915387 0.194707
vt 0.889607 0.194786
vt 0.889489 0.156399
vt 0.915269 0.156320
vt 0.779110 0.495360
vt 0.753331 0.495439
vt 0.753304 0.486874
vt 0.779084 0.486795
vt 0.779136 0.503685
vt 0.753356 0.503765
vt 0.838582 0.246288
vt 0.840842 0.269226
vt 0.814696 0.269227
vt 0.812939 0.251389
vt 0.812939 0.292246
vt 0.839050 0.292165
vt 0.839564 0.459733
vt 0.813453 0.459813
vn -0.634392 0.000000 -0.773011
vn -0.471396 0.000000 -0.881922
vn -0.831470 0.000004 0.555569
vn 0.000000 -1.000000 -0.000000
vn 0.000000 1.000000 0.000000
vn 0.634393 0.000000 0.773011
vn -0.634393 0.000000 -0.773011
vn -0.634393 0.000002 -0.773011
vn 0.634393 -0.000002 0.773011
vn 0.634393 -0.000000 0.773010
vn 0.471396 0.000001 0.881922
vn 0.831470 0.000000 -0.555569
usemtl Material_Middle_untitled
s off
f 2/1/1 1/2/1 42/3/1
f 2/1/1 42/3/1 41/4/1
f 1/2/2 2/1/2 4/5/2
f 1/2/2 4/5/2 3/6/2
f 14/7/3 11/8/3 10/9/3
f 14/7/3 10/9/3 15/10/3
f 1/11/4 3/12/4 58/13/4
f 1/11/4 58/13/4 12/14/4
f 12/14/4 58/13/4 40/15/4
f 12/14/4 40/15/4 11/16/4
f 11/16/4 40/15/4 52/17/4
f 11/16/4 52/17/4 10/18/4
f 10/18/4 52/17/4 53/19/4
f 10/18/4 53/19/4 9/20/4
f 9/20/4 53/19/4 54/21/4
f 9/20/4 54/21/4 8/22/4
f 8/22/4 54/21/4 55/23/4
f 8/22/4 55/23/4 7/24/4
f 7/24/4 55/23/4 57/25/4
f 7/24/4 57/25/4 6/26/4
f 6/26/4 57/25/4 56/27/4
f 6/26/4 56/27/4 5/28/4
f 42/29/4 1/11/4 12/14/4
f 42/29/4 12/14/4 43/30/4
f 43/30/4 12/14/4 11/16/4
f 43/30/4 11/16/4 44/31/4
f 46/32/4 10/18/4 9/20/4
f 46/32/4 9/20/4 45/33/4
f 45/33/4 9/20/4 8/22/4
f 45/33/4 8/22/4 47/34/4
f 47/34/4 8/22/4 7/24/4
f 47/34/4 7/24/4 48/35/4
f 48/35/4 7/24/4 6/26/4
f 48/35/4 6/26/4 49/36/4
f 49/36/4 6/26/4 5/28/4
f 49/36/4 5/28/4 50/37/4
f 2/38/5 41/39/5 29/40/5
f 2/38/5 29/40/5 13/41/5
f 13/41/5 29/40/5 30/42/5
f 13/41/5 30/42/5 14/43/5
f 15/44/5 51/45/5 31/46/5
f 15/44/5 31/46/5 16/47/5
f 16/47/5 31/46/5 32/48/5
f 16/47/5 32/48/5 17/49/5
f 33/50/6 18/51/6 37/52/6
f 33/50/6 37/52/6 39/53/6
f 18/54/5 33/55/5 34/56/5
f 18/54/5 34/56/5 19/57/5
f 19/57/5 34/56/5 35/58/5
f 19/57/5 35/58/5 20/59/5
f 4/60/5 2/38/5 13/41/5
f 4/60/5 13/41/5 21/61/5
f 21/61/5 13/41/5 14/43/5
f 21/61/5 14/43/5 22/62/5
f 22/62/5 14/43/5 15/44/5
f 22/62/5 15/44/5 23/63/5
f 23/63/5 15/44/5 16/47/5
f 23/63/5 16/47/5 24/64/5
f 24/64/5 16/47/5 17/49/5
f 24/64/5 17/49/5 25/65/5
f 25/65/5 17/49/5 18/54/5
f 25/65/5 18/54/5 26/66/5
f 26/66/5 18/54/5 19/57/5
f 26/66/5 19/57/5 27/67/5
f 27/67/5 19/57/5 20/59/5
f 27/67/5 20/59/5 28/68/5
f 38/69/7 36/70/7 17/71/7
f 38/69/7 17/71/7 32/72/7
f 15/73/8 10/74/8 46/75/8
f 15/73/8 46/75/8 51/76/8
f 11/77/9 14/78/9 30/79/9
f 11/77/9 30/79/9 44/80/9
f 5/81/10 20/82/10 35/83/10
f 5/81/10 35/83/10 50/84/10
f 56/85/11 28/86/11 20/82/11
f 56/85/11 20/82/11 5/81/11
f 36/87/5 38/88/5 39/89/5
f 36/87/5 39/89/5 37/90/5
f 18/91/12 17/92/12 36/93/12
f 18/91/12 36/93/12 37/94/12
