# Blender v2.63 (sub 0) OBJ File: 'xkill3.blend'
# www.blender.org
mtllib middle_11.mtl
g Cylinder.030
v -32.034691 4.500000 21.404871
v -32.034691 4.900000 21.404871
v -35.595039 4.500000 14.743924
v -35.595039 4.900000 14.743924
v -5.642470 4.500000 3.770174
v -8.423054 4.500000 5.628098
v -11.796144 4.500000 7.881922
v -15.169234 4.500000 10.135747
v -18.542326 4.500000 12.389572
v -21.915417 4.500000 14.643397
v -25.288507 4.500000 16.897221
v -28.661596 4.500000 19.151045
v -31.847059 4.500000 13.191463
v -28.099081 4.500000 11.639004
v -24.351105 4.500000 10.086543
v -20.603127 4.500000 8.534082
v -16.855148 4.500000 6.981621
v -13.107170 4.500000 5.429160
v -9.359192 4.500000 3.876699
v -6.269575 4.500000 2.596939
v -24.351105 4.900000 10.086543
v -28.661600 4.900000 19.151045
v -25.288509 4.900000 16.897221
v -21.915419 4.900000 14.643396
v -18.542328 4.900000 12.389571
v -15.169236 4.900000 10.135746
v -11.796144 4.900000 7.881921
v -8.423054 4.900000 5.628097
v -5.642470 4.900000 3.770173
v -24.374685 4.900000 24.374664
v -21.506109 4.900000 21.506090
v -15.768952 4.900000 15.768939
v -12.900374 4.900000 12.900363
v -10.031796 4.900000 10.031788
v -7.163218 4.900000 7.163211
v -4.798527 4.900000 4.798522
v -6.269575 4.900000 2.596939
v -15.169236 7.500000 10.135746
v -11.796144 7.500000 7.881921
v -12.900374 7.500000 12.900363
v -10.031796 7.500000 10.031788
v -9.359192 4.900000 3.876699
v -13.107170 4.900000 5.429160
v -16.855148 4.900000 6.981621
v -20.603127 4.900000 8.534082
v -28.099081 4.900000 11.639004
v -31.847059 4.900000 13.191463
v -18.637529 4.900000 18.637514
v -21.506109 4.500000 21.506088
v -18.637529 4.500000 18.637512
v -15.768952 4.500000 15.768938
v -12.900374 4.500000 12.900363
v -10.031796 4.500000 10.031787
v -4.798527 4.500000 4.798522
v -7.163218 4.500000 7.163211
v -27.243265 4.900000 27.243240
v -27.243265 4.500000 27.243240
v -24.374685 4.500000 24.374662
vt 0.635930 0.177437
vt 0.661710 0.177358
vt 0.661859 0.225981
vt 0.636080 0.226060
vt 0.635783 0.129303
vt 0.661562 0.129223
vt 0.262386 0.490465
vt 0.217414 0.471837
vt 0.229739 0.448778
vt 0.269976 0.465445
vt 0.242064 0.425720
vt 0.277565 0.440425
vt 0.285155 0.415405
vt 0.254389 0.402661
vt 0.266714 0.379603
vt 0.292745 0.390385
vt 0.279039 0.356545
vt 0.300335 0.365365
vt 0.291364 0.333486
vt 0.307924 0.340345
vt 0.303689 0.310428
vt 0.315514 0.315326
vt 0.313849 0.291420
vt 0.321770 0.294701
vt 0.176941 0.444793
vt 0.193527 0.424582
vt 0.210114 0.404371
vt 0.810417 0.119410
vt 0.784637 0.119489
vt 0.784521 0.081492
vt 0.810301 0.081413
vt 0.226701 0.384161
vt 0.243287 0.363950
vt 0.259874 0.343739
vt 0.276461 0.323528
vt 0.293047 0.303317
vt 0.306720 0.286656
vt 0.810183 0.043029
vt 0.784403 0.043108
vt 0.915797 0.626201
vt 0.915899 0.659465
vt 0.890120 0.659544
vt 0.890018 0.626280
vt 0.915696 0.593271
vt 0.889917 0.593351
vt 0.406547 0.984692
vt 0.358805 0.994188
vt 0.356242 0.968169
vt 0.398957 0.959672
vt 0.353680 0.942149
vt 0.391368 0.934652
vt 0.383778 0.909632
vt 0.351117 0.916129
vt 0.348554 0.890109
vt 0.376188 0.884612
vt 0.345991 0.864089
vt 0.368598 0.859592
vt 0.343429 0.838069
vt 0.361009 0.834573
vt 0.340866 0.812050
vt 0.353419 0.809553
vt 0.338753 0.790600
vt 0.347162 0.788928
vt 0.310128 0.994188
vt 0.312691 0.968169
vt 0.315253 0.942149
vt 0.317816 0.916129
vt 0.320379 0.890109
vt 0.322942 0.864089
vt 0.325504 0.838070
vt 0.328067 0.812050
vt 0.330180 0.790600
vt 0.727385 0.484121
vt 0.753165 0.484200
vt 0.753138 0.492678
vt 0.727359 0.492599
vt 0.753112 0.501242
vt 0.727333 0.501163
vt 0.781458 0.524220
vt 0.779199 0.501281
vt 0.805344 0.501281
vt 0.807101 0.519119
vt 0.704891 0.524149
vt 0.681867 0.524220
vt 0.681353 0.356652
vt 0.704377 0.356582
vt 0.837856 0.049325
vt 0.863958 0.049392
vt 0.863444 0.216953
vt 0.837342 0.216886
vt 0.765870 0.005789
vt 0.783775 0.005734
vt 0.784289 0.173302
vt 0.766384 0.173357
vn -0.773010 0.000000 0.634393
vn -0.881921 0.000000 0.471397
vn -0.000000 -1.000000 0.000000
vn 0.881921 0.000002 -0.471396
vn 0.773011 0.000003 -0.634393
vn -0.773010 -0.000003 0.634394
vn -0.881921 -0.000002 0.471396
vn 0.000000 1.000000 0.000000
vn 0.881922 0.000000 -0.471396
vn 0.773011 -0.000000 -0.634393
vn -0.773011 0.000000 0.634393
vn -0.555570 0.000000 -0.831470
usemtl Material_Middle_untitled
s off
f 2/1/1 1/2/1 57/3/1
f 2/1/1 57/3/1 56/4/1
f 1/2/2 2/1/2 4/5/2
f 1/2/2 4/5/2 3/6/2
f 57/7/3 1/8/3 12/9/3
f 57/7/3 12/9/3 58/10/3
f 58/10/3 12/9/3 11/11/3
f 58/10/3 11/11/3 49/12/3
f 50/13/3 10/14/3 9/15/3
f 50/13/3 9/15/3 51/16/3
f 51/16/3 9/15/3 8/17/3
f 51/16/3 8/17/3 52/18/3
f 52/18/3 8/17/3 7/19/3
f 52/18/3 7/19/3 53/20/3
f 53/20/3 7/19/3 6/21/3
f 53/20/3 6/21/3 55/22/3
f 55/22/3 6/21/3 5/23/3
f 55/22/3 5/23/3 54/24/3
f 1/8/3 3/25/3 13/26/3
f 1/8/3 13/26/3 12/9/3
f 12/9/3 13/26/3 14/27/3
f 12/9/3 14/27/3 11/11/3
f 14/28/4 46/29/4 23/30/4
f 14/28/4 23/30/4 11/31/4
f 10/14/3 15/32/3 16/33/3
f 10/14/3 16/33/3 9/15/3
f 9/15/3 16/33/3 17/34/3
f 9/15/3 17/34/3 8/17/3
f 8/17/3 17/34/3 18/35/3
f 8/17/3 18/35/3 7/19/3
f 7/19/3 18/35/3 19/36/3
f 7/19/3 19/36/3 6/21/3
f 6/21/3 19/36/3 20/37/3
f 6/21/3 20/37/3 5/23/3
f 49/38/5 11/31/5 23/30/5
f 49/38/5 23/30/5 31/39/5
f 10/40/6 50/41/6 48/42/6
f 10/40/6 48/42/6 24/43/6
f 15/44/7 10/40/7 24/43/7
f 15/44/7 24/43/7 21/45/7
f 4/46/8 2/47/8 22/48/8
f 4/46/8 22/48/8 47/49/8
f 47/49/8 22/48/8 23/50/8
f 47/49/8 23/50/8 46/51/8
f 21/52/8 24/53/8 25/54/8
f 21/52/8 25/54/8 45/55/8
f 45/55/8 25/54/8 26/56/8
f 45/55/8 26/56/8 44/57/8
f 44/57/8 26/56/8 27/58/8
f 44/57/8 27/58/8 43/59/8
f 43/59/8 27/58/8 28/60/8
f 43/59/8 28/60/8 42/61/8
f 42/61/8 28/60/8 29/62/8
f 42/61/8 29/62/8 37/63/8
f 2/47/8 56/64/8 30/65/8
f 2/47/8 30/65/8 22/48/8
f 22/48/8 30/65/8 31/66/8
f 22/48/8 31/66/8 23/50/8
f 24/53/8 48/67/8 32/68/8
f 24/53/8 32/68/8 25/54/8
f 25/54/8 32/68/8 33/69/8
f 25/54/8 33/69/8 26/56/8
f 27/58/8 34/70/8 35/71/8
f 27/58/8 35/71/8 28/60/8
f 28/60/8 35/71/8 36/72/8
f 28/60/8 36/72/8 29/62/8
f 20/73/9 37/74/9 29/75/9
f 20/73/9 29/75/9 5/76/9
f 5/76/10 29/75/10 36/77/10
f 5/76/10 36/77/10 54/78/10
f 38/79/8 40/80/8 41/81/8
f 38/79/8 41/81/8 39/82/8
f 40/83/11 38/84/11 26/85/11
f 40/83/11 26/85/11 33/86/11
f 27/87/12 26/88/12 38/89/12
f 27/87/12 38/89/12 39/90/12
f 34/91/10 27/92/10 39/93/10
f 34/91/10 39/93/10 41/94/10
