# Blender v2.63 (sub 0) OBJ File: 'xkill3.blend'
# www.blender.org
mtllib middle_07.mtl
g Cylinder.023
v 21.404879 4.500000 32.034679
v 21.404879 4.900000 32.034679
v 14.743929 4.500000 35.595039
v 14.743929 4.900000 35.595039
v 2.596941 4.500000 6.269577
v 3.876701 4.500000 9.359195
v 5.429162 4.500000 13.107172
v 6.981624 4.500000 16.855150
v 8.534085 4.500000 20.603128
v 10.086547 4.500000 24.351107
v 11.639008 4.500000 28.099083
v 13.191467 4.500000 31.847061
v 3.770175 4.500000 5.642468
v 5.628099 4.500000 8.423050
v 7.881925 4.500000 11.796140
v 10.135751 4.500000 15.169230
v 12.389577 4.500000 18.542322
v 14.643403 4.500000 21.915413
v 16.897228 4.500000 25.288502
v 19.151052 4.500000 28.661589
v 4.798524 4.500000 4.798525
v 7.163212 4.500000 7.163215
v 10.031789 4.500000 10.031793
v 12.900365 4.500000 12.900370
v 15.768941 4.500000 15.768947
v 18.637516 4.500000 18.637524
v 21.506092 4.500000 21.506102
v 24.374666 4.500000 24.374678
v 18.637516 4.900000 18.637524
v 2.596941 4.900000 6.269577
v 3.876701 4.900000 9.359195
v 5.429162 4.900000 13.107172
v 6.981624 4.900000 16.855150
v 8.534085 4.900000 20.603128
v 10.086547 4.900000 24.351107
v 11.639008 4.900000 28.099083
v 13.191467 4.900000 31.847061
v 19.151052 4.900000 28.661589
v 16.897226 4.900000 25.288500
v 14.643401 4.900000 21.915409
v 12.389575 4.900000 18.542320
v 10.135749 4.900000 15.169230
v 7.881924 4.900000 11.796140
v 5.628099 4.900000 8.423049
v 3.770175 4.900000 5.642467
v 10.031789 7.500000 10.031794
v 10.135749 7.500000 15.169230
v 7.881924 7.500000 11.796140
v 27.243244 4.900000 27.243256
v 27.243244 4.500000 27.243256
v 24.374666 4.900000 24.374678
v 21.506092 4.900000 21.506102
v 15.768941 4.900000 15.768948
v 12.900365 4.900000 12.900371
v 7.163212 4.900000 7.163215
v 10.031789 4.900000 10.031794
v 4.798522 4.900000 4.798525
v 12.900365 7.500000 12.900371
vt 0.662761 0.169212
vt 0.688540 0.169133
vt 0.688689 0.217760
vt 0.662910 0.217840
vt 0.662616 0.121947
vt 0.688395 0.121868
vt 0.553456 0.369900
vt 0.526412 0.410373
vt 0.506201 0.393787
vt 0.530397 0.357575
vt 0.485990 0.377200
vt 0.507339 0.345250
vt 0.465779 0.360613
vt 0.484280 0.332925
vt 0.445568 0.344027
vt 0.461222 0.320600
vt 0.425358 0.327440
vt 0.438163 0.308275
vt 0.405147 0.310853
vt 0.415105 0.295950
vt 0.384936 0.294267
vt 0.392046 0.283625
vt 0.368275 0.280594
vt 0.373038 0.273465
vt 0.572084 0.324928
vt 0.547064 0.317338
vt 0.522044 0.309749
vt 0.497024 0.302159
vt 0.472004 0.294569
vt 0.446984 0.286979
vt 0.421964 0.279390
vt 0.396944 0.271800
vt 0.376319 0.265544
vt 0.890565 0.329810
vt 0.890667 0.296543
vt 0.916447 0.296622
vt 0.916345 0.329889
vt 0.087353 0.771413
vt 0.087353 0.722736
vt 0.113373 0.725299
vt 0.113373 0.768851
vt 0.139393 0.727862
vt 0.139393 0.766288
vt 0.165412 0.763725
vt 0.165412 0.730424
vt 0.191432 0.732987
vt 0.191432 0.761162
vt 0.217452 0.735550
vt 0.217452 0.758600
vt 0.243472 0.756037
vt 0.243472 0.738113
vt 0.269492 0.740675
vt 0.269492 0.753474
vt 0.290941 0.742788
vt 0.290941 0.751362
vt 0.096849 0.819155
vt 0.121869 0.811566
vt 0.146889 0.803976
vt 0.171909 0.796386
vt 0.196929 0.788796
vt 0.221949 0.781207
vt 0.246969 0.773617
vt 0.271989 0.766027
vt 0.292614 0.759771
vt 0.781389 0.833562
vt 0.755610 0.833641
vt 0.755507 0.795247
vt 0.781285 0.795168
vt 0.810068 0.243163
vt 0.784289 0.243084
vt 0.784369 0.216973
vt 0.810148 0.217052
vt 0.606499 0.524269
vt 0.624409 0.524221
vt 0.624923 0.691782
vt 0.607013 0.691830
vt 0.689315 0.130720
vt 0.715093 0.130799
vt 0.715079 0.139270
vt 0.689301 0.139191
vt 0.715050 0.147836
vt 0.689271 0.147757
vt 0.809361 0.524220
vt 0.807101 0.501281
vt 0.833247 0.501281
vt 0.835004 0.519119
vt 0.810716 0.049405
vt 0.836828 0.049325
vt 0.837342 0.216893
vt 0.811230 0.216973
vt 0.612617 0.524150
vt 0.589591 0.524221
vt 0.589077 0.356653
vt 0.612103 0.356582
vn 0.634393 0.000000 0.773010
vn 0.471398 0.000000 0.881921
vn 0.000000 -1.000000 0.000000
vn 0.634394 0.000005 0.773010
vn -0.000000 1.000000 -0.000000
vn -0.634393 -0.000003 -0.773010
vn 0.831470 -0.000000 -0.555570
vn -0.634393 0.000000 -0.773011
vn -0.471398 -0.000001 -0.881921
vn -0.634393 -0.000001 -0.773011
vn -0.831470 0.000000 0.555570
vn 0.634393 0.000000 0.773011
usemtl Material_Middle_untitled
s off
f 2/1/1 1/2/1 50/3/1
f 2/1/1 50/3/1 49/4/1
f 1/2/2 2/1/2 4/5/2
f 1/2/2 4/5/2 3/6/2
f 1/7/3 3/8/3 12/9/3
f 1/7/3 12/9/3 20/10/3
f 20/10/3 12/9/3 11/11/3
f 20/10/3 11/11/3 19/12/3
f 19/12/3 11/11/3 10/13/3
f 19/12/3 10/13/3 18/14/3
f 18/14/3 10/13/3 9/15/3
f 18/14/3 9/15/3 17/16/3
f 17/16/3 9/15/3 8/17/3
f 17/16/3 8/17/3 16/18/3
f 16/18/3 8/17/3 7/19/3
f 16/18/3 7/19/3 15/20/3
f 15/20/3 7/19/3 6/21/3
f 15/20/3 6/21/3 14/22/3
f 14/22/3 6/21/3 5/23/3
f 14/22/3 5/23/3 13/24/3
f 50/25/3 1/7/3 20/10/3
f 50/25/3 20/10/3 28/26/3
f 28/26/3 20/10/3 19/12/3
f 28/26/3 19/12/3 27/27/3
f 26/28/3 18/14/3 17/16/3
f 26/28/3 17/16/3 25/29/3
f 25/29/3 17/16/3 16/18/3
f 25/29/3 16/18/3 24/30/3
f 24/30/3 16/18/3 15/20/3
f 24/30/3 15/20/3 23/31/3
f 23/31/3 15/20/3 14/22/3
f 23/31/3 14/22/3 22/32/3
f 22/32/3 14/22/3 13/24/3
f 22/32/3 13/24/3 21/33/3
f 18/34/4 26/35/4 29/36/4
f 18/34/4 29/36/4 40/37/4
f 2/38/5 49/39/5 51/40/5
f 2/38/5 51/40/5 38/41/5
f 38/41/5 51/40/5 52/42/5
f 38/41/5 52/42/5 39/43/5
f 40/44/5 29/45/5 53/46/5
f 40/44/5 53/46/5 41/47/5
f 41/47/5 53/46/5 54/48/5
f 41/47/5 54/48/5 42/49/5
f 43/50/5 56/51/5 55/52/5
f 43/50/5 55/52/5 44/53/5
f 44/53/5 55/52/5 57/54/5
f 44/53/5 57/54/5 45/55/5
f 4/56/5 2/38/5 38/41/5
f 4/56/5 38/41/5 37/57/5
f 37/57/5 38/41/5 39/43/5
f 37/57/5 39/43/5 36/58/5
f 36/58/5 39/43/5 40/44/5
f 36/58/5 40/44/5 35/59/5
f 35/59/5 40/44/5 41/47/5
f 35/59/5 41/47/5 34/60/5
f 34/60/5 41/47/5 42/49/5
f 34/60/5 42/49/5 33/61/5
f 33/61/5 42/49/5 43/50/5
f 33/61/5 43/50/5 32/62/5
f 32/62/5 43/50/5 44/53/5
f 32/62/5 44/53/5 31/63/5
f 31/63/5 44/53/5 45/55/5
f 31/63/5 45/55/5 30/64/5
f 19/65/6 39/66/6 52/67/6
f 19/65/6 52/67/6 27/68/6
f 39/69/7 19/70/7 18/71/7
f 39/69/7 18/71/7 40/72/7
f 56/73/8 43/74/8 48/75/8
f 56/73/8 48/75/8 46/76/8
f 5/77/9 30/78/9 45/79/9
f 5/77/9 45/79/9 13/80/9
f 13/80/10 45/79/10 57/81/10
f 13/80/10 57/81/10 21/82/10
f 47/83/5 58/84/5 46/85/5
f 47/83/5 46/85/5 48/86/5
f 43/87/11 42/88/11 47/89/11
f 43/87/11 47/89/11 48/90/11
f 58/91/12 47/92/12 42/93/12
f 58/91/12 42/93/12 54/94/12
