# Blender v2.63 (sub 0) OBJ File: 'xkill3.blend'
# www.blender.org
mtllib middle_13.mtl
g Cylinder.031
v -37.787468 4.500000 -7.516424
v -37.787468 4.900000 -7.516424
v -35.595005 4.500000 -14.743968
v -35.595005 4.900000 -14.743968
v -6.269571 4.500000 -2.596948
v -9.359186 4.500000 -3.876711
v -13.107161 4.500000 -5.429176
v -16.855135 4.500000 -6.981642
v -20.603109 4.500000 -8.534107
v -24.351082 4.500000 -10.086573
v -28.099056 4.500000 -11.639038
v -31.847031 4.500000 -13.191503
v -6.655743 4.500000 -1.323915
v -9.935661 4.500000 -1.976334
v -13.914492 4.500000 -2.767776
v -17.893322 4.500000 -3.559217
v -21.872150 4.500000 -4.350658
v -25.850979 4.500000 -5.142099
v -29.829809 4.500000 -5.933541
v -33.808640 4.500000 -6.724982
v -6.786138 4.500000 -0.000005
v -10.130314 4.500000 -0.000007
v -31.847033 4.900000 -13.191503
v -24.351084 4.900000 -10.086572
v -22.300653 4.500000 -0.000015
v -30.414213 4.500000 -0.000020
v -34.470993 4.500000 -0.000023
v -6.655743 4.900000 -1.323915
v -9.935661 4.900000 -1.976334
v -13.914492 4.900000 -2.767776
v -17.893322 4.900000 -3.559217
v -21.872150 4.900000 -4.350658
v -29.829809 4.900000 -5.933541
v -33.808640 4.900000 -6.724982
v -18.243874 4.900000 -0.000013
v -6.786137 4.900000 -0.000005
v -20.603111 4.900000 -8.534106
v -9.935661 6.500000 -1.976334
v -13.914492 6.500000 -2.767776
v -10.130314 6.500000 -0.000007
v -38.527771 4.900000 -0.000026
v -38.527771 4.500000 -0.000026
v -14.187094 4.500000 -0.000010
v -18.243874 4.500000 -0.000013
v -26.357431 4.500000 -0.000018
v -34.470993 4.900000 -0.000023
v -30.414211 4.900000 -0.000020
v -22.300653 4.900000 -0.000015
v -10.130314 4.900000 -0.000007
v -14.187094 6.500000 -0.000010
v -28.099058 4.900000 -11.639037
v -16.855137 4.900000 -6.981641
v -13.107162 4.900000 -5.429176
v -9.359186 4.900000 -3.876711
v -6.269571 4.900000 -2.596948
vt 0.635404 0.005813
vt 0.661184 0.005734
vt 0.661294 0.041730
vt 0.635514 0.041810
vt 0.582770 0.005734
vt 0.608548 0.005813
vt 0.608171 0.045146
vt 0.582393 0.045067
vt 0.096849 0.324928
vt 0.087353 0.277186
vt 0.113373 0.274623
vt 0.121869 0.317338
vt 0.139392 0.272061
vt 0.146889 0.309748
vt 0.810716 0.216894
vt 0.784937 0.216973
vt 0.784849 0.188557
vt 0.810629 0.188478
vt 0.171909 0.302159
vt 0.165412 0.269498
vt 0.191432 0.266935
vt 0.196929 0.294569
vt 0.217452 0.264372
vt 0.221949 0.286979
vt 0.243472 0.261810
vt 0.246969 0.279390
vt 0.269492 0.259247
vt 0.271988 0.271800
vt 0.290941 0.257134
vt 0.292613 0.265544
vt 0.115477 0.369900
vt 0.138536 0.357575
vt 0.161594 0.345250
vt 0.276886 0.283625
vt 0.295894 0.273465
vt 0.484280 0.827152
vt 0.465779 0.854840
vt 0.445569 0.838254
vt 0.461222 0.814827
vt 0.526412 0.904600
vt 0.491992 0.939020
vt 0.475406 0.918809
vt 0.506201 0.888014
vt 0.458819 0.898598
vt 0.485990 0.871427
vt 0.553456 0.864127
vt 0.530397 0.851802
vt 0.507339 0.839477
vt 0.425358 0.821667
vt 0.438163 0.802502
vt 0.405147 0.805080
vt 0.415105 0.790177
vt 0.384936 0.788494
vt 0.392047 0.777852
vt 0.368275 0.774821
vt 0.373038 0.767692
vt 0.915042 0.082205
vt 0.889262 0.082284
vt 0.889161 0.049404
vt 0.914941 0.049325
vt 0.779033 0.470258
vt 0.753254 0.470338
vt 0.753231 0.463001
vt 0.779011 0.462922
vt 0.786512 0.356513
vt 0.767417 0.459691
vt 0.767101 0.356572
vt 0.748007 0.459750
vt 0.747690 0.356632
vt 0.729694 0.757693
vt 0.729952 0.730785
vt 0.755473 0.757772
vt 0.184653 0.332925
vt 0.207711 0.320600
vt 0.230769 0.308275
vt 0.253828 0.295950
vt 0.425646 0.858177
vt 0.409059 0.837966
vt 0.375886 0.797544
vt 0.362212 0.780883
vt 0.727452 0.462370
vt 0.753231 0.462449
vt 0.753212 0.468789
vt 0.727432 0.468710
vt 0.860741 0.488544
vt 0.862443 0.506387
vt 0.836298 0.506307
vt 0.835082 0.493566
vt 0.442232 0.878388
vt 0.738226 0.356661
vt 0.738542 0.459780
vt 0.838375 0.691868
vt 0.855316 0.693747
vt 0.859475 0.797959
vt 0.846301 0.796498
vn -0.995185 0.000000 -0.098017
vn -0.956940 0.000000 -0.290286
vn -0.000000 -1.000000 0.000000
vn 0.995185 -0.000002 0.098018
vn -0.059454 0.997900 0.025694
vn 0.000000 1.000000 0.000000
vn 0.956940 0.000002 0.290286
vn 0.956940 0.000000 0.290286
vn 0.195091 0.000000 -0.980785
vn -0.956940 -0.000004 -0.290286
vn 0.995185 -0.000001 0.098017
vn -0.098120 0.995128 -0.009664
vn 0.995185 0.000000 0.098018
vn -0.366657 0.929655 -0.036113
usemtl Material_Middle_untitled
s off
f 2/1/1 1/2/1 42/3/1
f 2/1/1 42/3/1 41/4/1
f 1/5/2 2/6/2 4/7/2
f 1/5/2 4/7/2 3/8/2
f 1/9/3 3/10/3 12/11/3
f 1/9/3 12/11/3 20/12/3
f 20/12/3 12/11/3 11/13/3
f 20/12/3 11/13/3 19/14/3
f 19/15/4 33/16/4 47/17/4
f 19/15/4 47/17/4 26/18/4
f 18/19/3 10/20/3 9/21/3
f 18/19/3 9/21/3 17/22/3
f 17/22/3 9/21/3 8/23/3
f 17/22/3 8/23/3 16/24/3
f 16/24/3 8/23/3 7/25/3
f 16/24/3 7/25/3 15/26/3
f 15/26/3 7/25/3 6/27/3
f 15/26/3 6/27/3 14/28/3
f 14/28/3 6/27/3 5/29/3
f 14/28/3 5/29/3 13/30/3
f 42/31/3 1/9/3 20/12/3
f 42/31/3 20/12/3 27/32/3
f 27/32/3 20/12/3 19/14/3
f 27/32/3 19/14/3 26/33/3
f 22/34/3 14/28/3 13/30/3
f 22/34/3 13/30/3 21/35/3
f 24/36/5 18/37/5 32/38/5
f 24/36/5 32/38/5 37/39/5
f 2/40/6 41/41/6 46/42/6
f 2/40/6 46/42/6 34/43/6
f 34/43/6 46/42/6 47/44/6
f 34/43/6 47/44/6 33/45/6
f 4/46/6 2/40/6 34/43/6
f 4/46/6 34/43/6 23/47/6
f 23/47/6 34/43/6 33/45/6
f 23/47/6 33/45/6 51/48/6
f 37/39/6 32/38/6 31/49/6
f 37/39/6 31/49/6 52/50/6
f 52/50/6 31/49/6 30/51/6
f 52/50/6 30/51/6 53/52/6
f 53/52/6 30/51/6 29/53/6
f 53/52/6 29/53/6 54/54/6
f 54/54/6 29/53/6 28/55/6
f 54/54/6 28/55/6 55/56/6
f 11/57/7 51/58/7 33/59/7
f 11/57/7 33/59/7 19/60/7
f 5/61/8 55/62/8 28/63/8
f 5/61/8 28/63/8 13/64/8
f 31/65/9 39/66/9 30/67/9
f 39/66/9 38/68/9 29/69/9
f 39/66/9 29/69/9 30/67/9
f 10/70/10 18/71/10 24/72/10
f 45/73/3 18/19/3 17/22/3
f 45/73/3 17/22/3 25/74/3
f 25/74/3 17/22/3 16/24/3
f 25/74/3 16/24/3 44/75/3
f 44/75/3 16/24/3 15/26/3
f 44/75/3 15/26/3 43/76/3
f 43/76/3 15/26/3 14/28/3
f 43/76/3 14/28/3 22/34/3
f 32/38/6 48/77/6 35/78/6
f 32/38/6 35/78/6 31/49/6
f 29/53/6 49/79/6 36/80/6
f 29/53/6 36/80/6 28/55/6
f 13/81/11 28/82/11 36/83/11
f 13/81/11 36/83/11 21/84/11
f 39/85/6 50/86/6 40/87/6
f 39/85/6 40/87/6 38/88/6
f 18/37/12 45/89/12 48/77/12
f 18/37/12 48/77/12 32/38/12
f 49/90/13 29/69/13 38/68/13
f 49/90/13 38/68/13 40/91/13
f 31/92/14 35/93/14 50/94/14
f 31/92/14 50/94/14 39/95/14
