# Blender v2.63 (sub 0) OBJ File: 'xkill3.blend'
# www.blender.org
mtllib top_04.mtl
g Cylinder.041
v 34.139900 14.301683 3.362494
v 38.157600 4.896630 3.758204
v 33.808723 14.301683 6.724980
v 29.528809 9.100842 2.908339
v 38.157600 14.303370 3.758204
v 29.242363 9.100842 5.816672
v 27.545700 9.100842 11.409807
v 29.829988 4.898315 5.933558
v 38.527752 14.303370 0.000009
v 37.787453 4.896630 7.516399
v 37.787453 14.303370 7.516399
v 35.595001 14.303370 14.743937
v 29.528809 8.699999 2.908339
v 29.242363 14.300840 5.816672
v 33.808723 9.100842 6.724980
v 29.829988 8.699999 5.933558
v 30.122190 14.300840 2.966783
v 27.545700 14.300840 11.409807
v 31.847122 4.898315 13.191515
v 29.829988 14.300840 5.933558
v 30.122190 8.699999 2.966783
v 30.122190 9.100842 2.966783
v 34.139900 9.100842 3.362494
v 33.808723 4.898315 6.724980
v 28.099234 14.300840 11.639088
v 29.528809 14.300840 2.908339
v 30.414392 4.898315 0.000006
v 29.242363 8.699999 5.816672
v 28.099234 4.898315 11.639088
v 34.471077 4.898315 0.000008
v 35.595001 4.896630 14.743937
v 27.545700 8.699999 11.409807
v 38.527752 4.896630 0.000009
v 29.829988 9.100842 5.933558
v 30.122190 4.898315 2.966782
v 34.139900 4.898315 3.362494
v 31.847122 14.301683 13.191515
v 31.847122 9.100842 13.191515
v 30.414392 8.699999 0.000006
v 30.414392 9.100842 0.000006
v 34.471077 14.301683 0.000008
v 34.471077 9.100842 0.000008
v 28.099234 8.699999 11.639088
v 28.099234 9.100842 11.639088
vt 0.866550 0.801348
vt 0.868934 0.764392
vt 0.872728 0.764264
vt 0.870296 0.801962
vt 0.227914 0.013510
vt 0.251381 0.008842
vt 0.253901 0.034422
vt 0.232905 0.038598
vt 0.673929 0.222590
vt 0.672020 0.203799
vt 0.697468 0.201213
vt 0.699632 0.222511
vt 0.939805 0.389514
vt 0.906853 0.389413
vt 0.906907 0.371706
vt 0.939859 0.371807
vt 0.870244 0.745540
vt 0.866499 0.746037
vt 0.294196 0.060001
vt 0.256420 0.060001
vt 0.296716 0.034422
vt 0.670111 0.185007
vt 0.695305 0.179916
vt 0.120447 0.548944
vt 0.160236 0.522357
vt 0.172352 0.545025
vt 0.136753 0.568812
vt 0.211908 0.528641
vt 0.192130 0.536833
vt 0.182342 0.513201
vt 0.204447 0.504045
vt 0.820774 0.727179
vt 0.761174 0.727362
vt 0.761114 0.707572
vt 0.820714 0.707389
vt 0.760979 0.663505
vt 0.820579 0.663322
vt 0.907028 0.332279
vt 0.939980 0.332380
vt 0.682750 0.138982
vt 0.659034 0.148891
vt 0.237895 0.063685
vt 0.219369 0.067370
vt 0.211908 0.042774
vt 0.299235 0.008842
vt 0.964817 0.358878
vt 0.940730 0.358804
vt 0.940778 0.343181
vt 0.964865 0.343255
vt 0.621065 0.748092
vt 0.624727 0.748080
vt 0.624828 0.781027
vt 0.621167 0.781038
vt 0.940885 0.308394
vt 0.964972 0.308468
vt 0.793232 0.780734
vt 0.795771 0.780727
vt 0.795818 0.796042
vt 0.793279 0.796049
vt 0.820835 0.746970
vt 0.761235 0.747153
vt 0.967309 0.374509
vt 0.964769 0.374501
vt 0.967357 0.358886
vt 0.939751 0.407220
vt 0.906799 0.407119
vt 0.940682 0.374427
vt 0.760332 0.796151
vt 0.760285 0.780835
vt 0.732579 0.780727
vt 0.732685 0.815514
vt 0.699739 0.815615
vt 0.699632 0.780828
vt 0.204447 0.018178
vt 0.795923 0.830144
vt 0.793383 0.830152
vt 0.608490 0.795067
vt 0.608497 0.797606
vt 0.605300 0.797616
vt 0.605292 0.795076
vt 0.621058 0.745552
vt 0.624719 0.745541
vt 0.862701 0.801962
vt 0.860269 0.764264
vt 0.864063 0.764392
vt 0.866447 0.801348
vt 0.862754 0.745540
vt 0.699787 0.831238
vt 0.732733 0.831137
vt 0.760437 0.830253
vt 0.608598 0.830553
vt 0.605401 0.830563
vn -0.000000 -1.000000 -0.000000
vn -0.000415 -1.000000 -0.000041
vn 0.000000 1.000000 0.000000
vn -0.995185 0.000000 -0.098017
vn -0.000400 1.000000 -0.000121
vn -0.000416 1.000000 -0.000041
vn 0.995185 0.000000 0.098017
vn 0.956940 0.000000 0.290285
vn -0.956940 0.000000 -0.290285
vn -0.000399 -1.000000 -0.000121
vn -0.382683 0.000000 0.923880
vn 0.995185 0.000000 0.098018
vn 0.098018 0.000000 -0.995185
usemtl Material_Top_top
s off
f 32/1/1 28/2/1 16/3/1
f 32/1/1 16/3/1 43/4/1
f 2/5/2 10/6/2 24/7/2
f 2/5/2 24/7/2 36/8/2
f 40/9/3 22/10/3 23/11/3
f 40/9/3 23/11/3 42/12/3
f 1/13/4 23/14/4 15/15/4
f 1/13/4 15/15/4 3/16/4
f 21/17/1 16/3/1 28/2/1
f 21/17/1 28/2/1 13/18/1
f 29/19/1 8/20/1 24/7/1
f 29/19/1 24/7/1 19/21/1
f 22/10/3 34/22/3 15/23/3
f 22/10/3 15/23/3 23/11/3
f 12/24/5 11/25/5 3/26/5
f 12/24/5 3/26/5 37/27/5
f 41/28/6 1/29/6 5/30/6
f 41/28/6 5/30/6 9/31/6
f 2/32/7 5/33/7 11/34/7
f 2/32/7 11/34/7 10/35/7
f 10/35/8 11/34/8 12/36/8
f 10/35/8 12/36/8 31/37/8
f 38/38/9 37/39/9 3/16/9
f 38/38/9 3/16/9 15/15/9
f 38/40/3 15/23/3 34/22/3
f 38/40/3 34/22/3 44/41/3
f 35/42/1 27/43/1 30/44/1
f 35/42/1 30/44/1 36/8/1
f 10/6/10 31/45/10 19/21/10
f 10/6/10 19/21/10 24/7/10
f 21/46/4 35/47/4 8/48/4
f 21/46/4 8/48/4 16/49/4
f 7/50/11 44/51/11 25/52/11
f 7/50/11 25/52/11 18/53/11
f 29/54/9 43/55/9 16/49/9
f 29/54/9 16/49/9 8/48/9
f 4/56/4 13/57/4 28/58/4
f 4/56/4 28/58/4 6/59/4
f 1/29/6 3/26/6 11/25/6
f 1/29/6 11/25/6 5/30/6
f 33/60/12 9/61/12 5/33/12
f 33/60/12 5/33/12 2/32/12
f 40/62/4 39/63/4 21/46/4
f 40/62/4 21/46/4 22/64/4
f 23/14/4 1/13/4 41/65/4
f 23/14/4 41/65/4 42/66/4
f 39/63/4 27/67/4 35/47/4
f 39/63/4 35/47/4 21/46/4
f 4/56/4 6/59/4 14/68/4
f 4/56/4 14/68/4 26/69/4
f 8/20/1 35/42/1 36/8/1
f 8/20/1 36/8/1 24/7/1
f 44/70/8 34/71/8 20/72/8
f 44/70/8 20/72/8 25/73/8
f 33/74/2 2/5/2 36/8/2
f 33/74/2 36/8/2 30/44/2
f 32/75/9 7/76/9 6/59/9
f 32/75/9 6/59/9 28/58/9
f 13/77/13 4/78/13 22/79/13
f 13/77/13 22/79/13 21/80/13
f 7/50/11 32/81/11 43/82/11
f 7/50/11 43/82/11 44/51/11
f 25/83/3 20/84/3 14/85/3
f 25/83/3 14/85/3 18/86/3
f 26/18/3 14/85/3 20/84/3
f 26/18/3 20/84/3 17/87/3
f 17/88/7 20/72/7 34/71/7
f 17/88/7 34/71/7 22/89/7
f 18/90/9 14/68/9 6/59/9
f 18/90/9 6/59/9 7/76/9
f 22/79/13 4/78/13 26/91/13
f 22/79/13 26/91/13 17/92/13
