# Blender v2.63 (sub 0) OBJ File: 'xkill3.blend'
# www.blender.org
mtllib top_09.mtl
g Cylinder.002_Cylinder.001
v -30.414389 9.100842 -0.000021
v -34.471077 4.898315 -0.000023
v -33.808731 14.301683 6.724954
v -34.471077 14.301683 -0.000023
v -30.122189 8.699999 2.966757
v -30.122189 9.100842 2.966757
v -30.122189 4.898315 2.966757
v -38.157604 14.303370 3.758172
v -38.157604 4.896630 3.758172
v -34.139904 14.301683 3.362465
v -34.139904 9.100842 3.362465
v -29.528805 9.100842 2.908314
v -29.528805 8.699999 2.908314
v -34.139904 4.898315 3.362465
v -37.787457 4.896630 7.516369
v -37.787457 14.303370 7.516369
v -38.527752 14.303370 -0.000026
v -28.099243 8.699999 11.639069
v -29.242363 9.100842 5.816650
v -27.545712 9.100842 11.409789
v -29.829990 9.100842 5.933536
v -29.829990 14.300840 5.933536
v -33.808731 4.898315 6.724954
v -33.808731 9.100842 6.724954
v -29.242363 8.699999 5.816650
v -30.414389 8.699999 -0.000021
v -29.829990 8.699999 5.933536
v -30.414389 4.898315 -0.000021
v -28.099243 14.300840 11.639069
v -28.099243 4.898315 11.639069
v -29.829990 4.898315 5.933536
v -30.122189 14.300840 2.966757
v -29.528805 14.300840 2.908314
v -27.545712 8.699999 11.409789
v -29.242363 14.300840 5.816650
v -38.527752 4.896630 -0.000026
v -27.545712 14.300840 11.409789
v -34.471077 9.100842 -0.000023
v -35.595013 14.303370 14.743915
v -35.595013 4.896630 14.743915
v -31.847134 4.898315 13.191494
v -31.847134 14.301683 13.191494
v -31.847134 9.100842 13.191494
v -28.099243 9.100842 11.639069
vt 0.940343 0.695001
vt 0.964430 0.695075
vt 0.964389 0.708327
vt 0.940302 0.708253
vt 0.964470 0.681824
vt 0.967010 0.681831
vt 0.966969 0.695083
vt 0.580028 0.710607
vt 0.612980 0.710506
vt 0.613087 0.745439
vt 0.580135 0.745541
vt 0.906500 0.714442
vt 0.939452 0.714543
vt 0.939406 0.729562
vt 0.906454 0.729461
vt 0.632113 0.783617
vt 0.632105 0.781077
vt 0.635467 0.781067
vt 0.635475 0.783606
vt 0.840425 0.297210
vt 0.851501 0.261094
vt 0.876695 0.266186
vt 0.864141 0.307119
vt 0.878859 0.244888
vt 0.853410 0.242303
vt 0.366148 0.421725
vt 0.397558 0.400737
vt 0.413863 0.420606
vt 0.378264 0.444393
vt 0.299235 0.980575
vt 0.251382 0.980575
vt 0.253901 0.954996
vt 0.296716 0.954996
vt 0.322702 0.975907
vt 0.317712 0.950820
vt 0.698695 0.476303
vt 0.639095 0.476486
vt 0.638975 0.437442
vt 0.698575 0.437259
vt 0.760234 0.763757
vt 0.700633 0.763940
vt 0.700582 0.747153
vt 0.760182 0.746970
vt 0.348697 0.428953
vt 0.358486 0.452585
vt 0.939360 0.744581
vt 0.906408 0.744480
vt 0.368275 0.476217
vt 0.346169 0.485373
vt 0.338708 0.460777
vt 0.855319 0.223511
vt 0.881022 0.223590
vt 0.942948 0.890011
vt 0.967035 0.889937
vt 0.967129 0.920759
vt 0.943042 0.920833
vt 0.430169 0.440474
vt 0.390380 0.467060
vt 0.331247 0.436181
vt 0.346169 0.971239
vt 0.338708 0.946643
vt 0.760285 0.780544
vt 0.700685 0.780727
vt 0.940383 0.681750
vt 0.588827 0.797606
vt 0.588835 0.795067
vt 0.591579 0.795075
vt 0.591571 0.797615
vt 0.854039 0.801465
vt 0.856475 0.783110
vt 0.860269 0.783238
vt 0.857784 0.801962
vt 0.518249 0.784431
vt 0.518241 0.781891
vt 0.548456 0.781798
vt 0.548464 0.784338
vt 0.638867 0.745541
vt 0.638874 0.748080
vt 0.625883 0.748120
vt 0.625876 0.745580
vt 0.668709 0.814745
vt 0.637887 0.814840
vt 0.637785 0.781893
vt 0.668608 0.781799
vt 0.857837 0.745540
vt 0.854091 0.746155
vt 0.621006 0.746155
vt 0.618622 0.783110
vt 0.614828 0.783239
vt 0.617260 0.745541
vt 0.617313 0.801963
vt 0.621058 0.801466
vt 0.638975 0.781027
vt 0.625985 0.781067
vt 0.635576 0.816553
vt 0.632214 0.816563
vt 0.548565 0.817285
vt 0.518350 0.817377
vt 0.591470 0.830561
vt 0.588726 0.830553
vt 0.732834 0.780727
vt 0.746086 0.780767
vt 0.745985 0.813714
vt 0.732733 0.813673
vn 0.995185 0.000000 -0.098016
vn 0.956941 0.000000 -0.290284
vn 0.382682 0.000000 0.923880
vn -0.000000 1.000000 0.000000
vn 0.000000 -1.000000 0.000000
vn 0.000400 1.000000 -0.000121
vn 0.000416 1.000000 -0.000041
vn -0.956941 0.000000 0.290284
vn -0.995185 0.000000 0.098017
vn 0.000415 -1.000000 -0.000041
vn 0.000399 -1.000000 -0.000121
vn -0.098017 0.000000 -0.995185
vn 0.956941 0.000000 -0.290283
vn -0.995185 0.000000 0.098016
usemtl Material_Top_top
s off
f 7/1/1 5/2/1 27/3/1
f 7/1/1 27/3/1 31/4/1
f 26/5/1 1/6/1 6/7/1
f 26/5/1 6/7/1 5/2/1
f 42/8/2 43/9/2 24/10/2
f 42/8/2 24/10/2 3/11/2
f 38/12/1 4/13/1 10/14/1
f 38/12/1 10/14/1 11/15/1
f 44/16/3 18/17/3 34/18/3
f 44/16/3 34/18/3 20/19/3
f 44/20/4 21/21/4 24/22/4
f 44/20/4 24/22/4 43/23/4
f 11/24/4 24/22/4 21/21/4
f 11/24/4 21/21/4 6/25/4
f 31/26/5 30/27/5 41/28/5
f 31/26/5 41/28/5 23/29/5
f 16/30/6 39/31/6 42/32/6
f 16/30/6 42/32/6 3/33/6
f 8/34/7 16/30/7 3/33/7
f 8/34/7 3/33/7 10/35/7
f 40/36/8 39/37/8 16/38/8
f 40/36/8 16/38/8 15/39/8
f 9/40/9 8/41/9 17/42/9
f 9/40/9 17/42/9 36/43/9
f 7/44/5 31/26/5 23/29/5
f 7/44/5 23/29/5 14/45/5
f 11/15/1 10/14/1 3/46/1
f 11/15/1 3/46/1 24/47/1
f 9/48/10 36/49/10 2/50/10
f 9/48/10 2/50/10 14/45/10
f 6/25/4 1/51/4 38/52/4
f 6/25/4 38/52/4 11/24/4
f 18/53/2 30/54/2 31/55/2
f 18/53/2 31/55/2 27/56/2
f 40/57/11 15/58/11 23/29/11
f 40/57/11 23/29/11 41/28/11
f 28/59/5 7/44/5 14/45/5
f 28/59/5 14/45/5 2/50/5
f 17/60/7 8/34/7 10/35/7
f 17/60/7 10/35/7 4/61/7
f 15/58/10 9/48/10 14/45/10
f 15/58/10 14/45/10 23/29/10
f 15/62/9 16/63/9 8/41/9
f 15/62/9 8/41/9 9/40/9
f 28/64/1 26/5/1 5/2/1
f 28/64/1 5/2/1 7/1/1
f 12/65/12 13/66/12 5/67/12
f 12/65/12 5/67/12 6/68/12
f 13/69/5 25/70/5 27/71/5
f 13/69/5 27/71/5 5/72/5
f 20/73/13 34/74/13 25/75/13
f 20/73/13 25/75/13 19/76/13
f 13/77/1 12/78/1 19/79/1
f 13/77/1 19/79/1 25/80/1
f 29/81/8 22/82/8 21/83/8
f 29/81/8 21/83/8 44/84/8
f 18/85/5 27/71/5 25/70/5
f 18/85/5 25/70/5 34/86/5
f 37/87/4 35/88/4 22/89/4
f 37/87/4 22/89/4 29/90/4
f 32/91/4 22/89/4 35/88/4
f 32/91/4 35/88/4 33/92/4
f 33/93/1 35/94/1 19/79/1
f 33/93/1 19/79/1 12/78/1
f 44/16/3 20/19/3 37/95/3
f 44/16/3 37/95/3 29/96/3
f 20/73/13 19/76/13 35/97/13
f 20/73/13 35/97/13 37/98/13
f 32/99/12 33/100/12 12/65/12
f 32/99/12 12/65/12 6/68/12
f 6/101/14 21/102/14 22/103/14
f 6/101/14 22/103/14 32/104/14
