# Blender v2.63 (sub 0) OBJ File: 'xkill3.blend'
# www.blender.org
mtllib top_03.mtl
g Cylinder.042
v 30.122190 9.100842 -2.966770
v 34.471077 14.301683 0.000008
v 33.808723 14.301683 -6.724964
v 29.528809 8.699999 -2.908327
v 29.829988 8.699999 -5.933546
v 27.545696 14.300840 -11.409795
v 37.787453 4.896630 -7.516381
v 37.787453 14.303370 -7.516381
v 38.527752 4.896630 0.000009
v 27.545696 9.100842 -11.409795
v 30.414392 8.699999 0.000006
v 29.242363 14.300840 -5.816660
v 30.414392 9.100842 0.000006
v 29.829988 9.100842 -5.933546
v 29.528809 14.300840 -2.908327
v 34.139900 4.898315 -3.362478
v 30.122190 8.699999 -2.966770
v 34.139900 9.100842 -3.362478
v 29.829988 14.300840 -5.933546
v 34.139900 14.301683 -3.362478
v 34.471077 4.898315 0.000008
v 30.122190 14.300840 -2.966770
v 29.242363 9.100842 -5.816660
v 29.829988 4.898315 -5.933546
v 28.099230 14.300840 -11.639074
v 30.414392 4.898315 0.000006
v 29.242363 8.699999 -5.816660
v 33.808723 9.100842 -6.724964
v 34.471077 9.100842 0.000008
v 33.808723 4.898315 -6.724964
v 38.157600 4.896630 -3.758186
v 38.157600 14.303370 -3.758186
v 30.122190 4.898315 -2.966769
v 29.528809 9.100842 -2.908327
v 27.545696 8.699999 -11.409795
v 38.527752 14.303370 0.000009
v 35.594997 4.896630 -14.743920
v 31.847118 4.898315 -13.191500
v 35.594997 14.303370 -14.743920
v 28.099230 4.898315 -11.639074
v 31.847118 14.301683 -13.191500
v 31.847118 9.100842 -13.191500
v 28.099230 8.699999 -11.639074
v 28.099230 9.100842 -11.639074
vt 0.120447 0.063077
vt 0.160236 0.036491
vt 0.172352 0.059159
vt 0.136753 0.082946
vt 0.201919 0.074599
vt 0.184469 0.081827
vt 0.192130 0.050967
vt 0.153059 0.102814
vt 0.227914 0.499377
vt 0.251381 0.494709
vt 0.253901 0.520288
vt 0.232905 0.524464
vt 0.299235 0.494709
vt 0.296716 0.520288
vt 0.577961 0.476303
vt 0.518361 0.476486
vt 0.518241 0.437442
vt 0.577842 0.437259
vt 0.820887 0.763757
vt 0.761287 0.763940
vt 0.761235 0.747153
vt 0.820835 0.746970
vt 0.672135 0.241393
vt 0.673929 0.222590
vt 0.699632 0.222511
vt 0.697599 0.243822
vt 0.659487 0.296379
vt 0.670342 0.260196
vt 0.695566 0.265133
vt 0.683263 0.306142
vt 0.964728 0.387753
vt 0.940641 0.387679
vt 0.940682 0.374427
vt 0.964769 0.374501
vt 0.182342 0.027335
vt 0.204447 0.018178
vt 0.211908 0.042774
vt 0.821776 0.710607
vt 0.854728 0.710506
vt 0.854835 0.745439
vt 0.821883 0.745540
vt 0.628308 0.837489
vt 0.625876 0.799791
vt 0.629670 0.799919
vt 0.632054 0.836874
vt 0.967268 0.387761
vt 0.967309 0.374509
vt 0.939705 0.422240
vt 0.906753 0.422139
vt 0.906799 0.407119
vt 0.939751 0.407220
vt 0.916120 0.926265
vt 0.940207 0.926191
vt 0.940302 0.957013
vt 0.916215 0.957087
vt 0.964688 0.401005
vt 0.940601 0.400931
vt 0.939659 0.437259
vt 0.906707 0.437158
vt 0.820938 0.780544
vt 0.761338 0.780727
vt 0.204447 0.504045
vt 0.211908 0.528641
vt 0.219369 0.067370
vt 0.548582 0.784431
vt 0.548574 0.781891
vt 0.578789 0.781798
vt 0.578797 0.784338
vt 0.699632 0.814745
vt 0.668810 0.814840
vt 0.668709 0.781893
vt 0.699531 0.781799
vt 0.795931 0.783306
vt 0.795923 0.780766
vt 0.808914 0.780727
vt 0.808922 0.783266
vt 0.621459 0.783578
vt 0.621466 0.781038
vt 0.624828 0.781048
vt 0.624820 0.783588
vt 0.605183 0.795067
vt 0.605191 0.797606
vt 0.602447 0.797615
vt 0.602440 0.795075
vt 0.632105 0.781564
vt 0.628360 0.781067
vt 0.579242 0.850874
vt 0.581626 0.813919
vt 0.585420 0.813791
vt 0.582988 0.851489
vt 0.582935 0.795067
vt 0.579190 0.795564
vt 0.605292 0.830553
vt 0.602548 0.830561
vt 0.809023 0.816213
vt 0.796032 0.816253
vt 0.746932 0.780767
vt 0.760184 0.780727
vt 0.760285 0.813673
vt 0.747033 0.813714
vt 0.578898 0.817285
vt 0.548683 0.817377
vt 0.624719 0.816535
vt 0.621358 0.816524
vn -0.000399 -1.000000 0.000121
vn -0.000000 -1.000000 0.000000
vn -0.000416 1.000000 0.000041
vn -0.000400 1.000000 0.000121
vn 0.956940 0.000000 -0.290285
vn 0.995185 0.000000 -0.098018
vn 0.000000 1.000000 0.000000
vn -0.995185 0.000000 0.098017
vn -0.000415 -1.000000 0.000041
vn -0.956940 0.000000 0.290285
vn 0.995185 0.000000 -0.098017
vn -0.956940 0.000000 0.290286
vn -0.382681 0.000000 -0.923881
vn 0.098017 0.000000 0.995185
usemtl Material_Top_top
s off
f 37/1/1 7/2/1 30/3/1
f 37/1/1 30/3/1 38/4/1
f 33/5/2 24/6/2 30/3/2
f 33/5/2 30/3/2 16/7/2
f 24/6/2 40/8/2 38/4/2
f 24/6/2 38/4/2 30/3/2
f 32/9/3 8/10/3 3/11/3
f 32/9/3 3/11/3 20/12/3
f 8/10/4 39/13/4 41/14/4
f 8/10/4 41/14/4 3/11/4
f 37/15/5 39/16/5 8/17/5
f 37/15/5 8/17/5 7/18/5
f 31/19/6 32/20/6 36/21/6
f 31/19/6 36/21/6 9/22/6
f 1/23/7 13/24/7 29/25/7
f 1/23/7 29/25/7 18/26/7
f 44/27/7 14/28/7 28/29/7
f 44/27/7 28/29/7 42/30/7
f 17/31/8 33/32/8 26/33/8
f 17/31/8 26/33/8 11/34/8
f 31/35/9 9/36/9 21/37/9
f 31/35/9 21/37/9 16/7/9
f 41/38/10 42/39/10 28/40/10
f 41/38/10 28/40/10 3/41/10
f 43/42/2 5/43/2 27/44/2
f 43/42/2 27/44/2 35/45/2
f 1/46/8 17/31/8 11/34/8
f 1/46/8 11/34/8 13/47/8
f 20/48/8 18/49/8 29/50/8
f 20/48/8 29/50/8 2/51/8
f 43/52/10 40/53/10 24/54/10
f 43/52/10 24/54/10 5/55/10
f 5/56/8 24/57/8 33/32/8
f 5/56/8 33/32/8 17/31/8
f 3/58/8 28/59/8 18/49/8
f 3/58/8 18/49/8 20/48/8
f 7/60/11 8/61/11 32/20/11
f 7/60/11 32/20/11 31/19/11
f 36/62/3 32/9/3 20/12/3
f 36/62/3 20/12/3 2/63/3
f 14/28/7 1/23/7 18/26/7
f 14/28/7 18/26/7 28/29/7
f 26/64/2 33/5/2 16/7/2
f 26/64/2 16/7/2 21/37/2
f 10/65/12 35/66/12 27/67/12
f 10/65/12 27/67/12 23/68/12
f 7/2/9 31/35/9 16/7/9
f 7/2/9 16/7/9 30/3/9
f 25/69/5 19/70/5 14/71/5
f 25/69/5 14/71/5 44/72/5
f 23/73/8 27/74/8 4/75/8
f 23/73/8 4/75/8 34/76/8
f 44/77/13 43/78/13 35/79/13
f 44/77/13 35/79/13 10/80/13
f 17/81/14 1/82/14 34/83/14
f 17/81/14 34/83/14 4/84/14
f 4/85/2 27/44/2 5/43/2
f 4/85/2 5/43/2 17/86/2
f 6/87/7 12/88/7 19/89/7
f 6/87/7 19/89/7 25/90/7
f 22/91/7 19/89/7 12/88/7
f 22/91/7 12/88/7 15/92/7
f 34/83/14 1/82/14 22/93/14
f 34/83/14 22/93/14 15/94/14
f 15/95/8 12/96/8 23/73/8
f 15/95/8 23/73/8 34/76/8
f 1/97/11 14/98/11 19/99/11
f 1/97/11 19/99/11 22/100/11
f 10/65/12 23/68/12 12/101/12
f 10/65/12 12/101/12 6/102/12
f 44/77/13 10/80/13 6/103/13
f 44/77/13 6/103/13 25/104/13
