# Blender v2.63 (sub 0) OBJ File: 'xkill3.blend'
# www.blender.org
mtllib top_10.mtl
g Cylinder.037
v -27.545689 9.100842 -11.409827
v -33.808720 14.301683 -6.724999
v -34.139900 4.898315 -3.362511
v -30.122185 4.898315 -2.966798
v -30.122185 8.699999 -2.966799
v -30.122185 9.100842 -2.966799
v -28.099218 14.300840 -11.639108
v -27.545689 8.699999 -11.409827
v -29.242355 9.100842 -5.816690
v -38.527752 4.896630 -0.000026
v -37.787445 4.896630 -7.516420
v -37.787445 14.303370 -7.516420
v -35.594982 4.896630 -14.743962
v -29.829981 14.300840 -5.933576
v -28.099218 9.100842 -11.639108
v -38.157600 14.303370 -3.758223
v -34.139900 14.301683 -3.362511
v -38.157600 4.896630 -3.758223
v -29.829981 4.898315 -5.933576
v -33.808720 4.898315 -6.724999
v -29.242355 8.699999 -5.816690
v -28.099218 4.898315 -11.639108
v -29.829981 8.699999 -5.933576
v -34.471077 9.100842 -0.000023
v -33.808720 9.100842 -6.724999
v -29.242355 14.300840 -5.816690
v -29.528801 8.699999 -2.908355
v -29.829981 9.100842 -5.933576
v -30.122185 14.300840 -2.966799
v -34.139900 9.100842 -3.362511
v -29.528801 9.100842 -2.908355
v -28.099218 8.699999 -11.639108
v -29.528801 14.300840 -2.908355
v -30.414389 4.898315 -0.000021
v -34.471077 4.898315 -0.000023
v -27.545689 14.300840 -11.409827
v -38.527752 14.303370 -0.000026
v -34.471077 14.301683 -0.000023
v -30.414389 8.699999 -0.000021
v -30.414389 9.100842 -0.000021
v -31.847107 9.100842 -13.191537
v -31.847107 14.301683 -13.191537
v -35.594982 14.303370 -14.743962
v -31.847107 4.898315 -13.191537
vt 0.299235 0.494709
vt 0.251381 0.494709
vt 0.253900 0.469130
vt 0.296716 0.469130
vt 0.939506 0.696836
vt 0.906554 0.696735
vt 0.906609 0.679028
vt 0.939561 0.679129
vt 0.312722 0.439866
vt 0.331247 0.436181
vt 0.338708 0.460777
vt 0.317712 0.464954
vt 0.851732 0.185905
vt 0.840877 0.149722
vt 0.864653 0.139959
vt 0.876956 0.180968
vt 0.430169 0.926340
vt 0.390380 0.952927
vt 0.378264 0.930259
vt 0.413864 0.906472
vt 0.368275 0.962083
vt 0.346169 0.971239
vt 0.338708 0.946643
vt 0.358486 0.938451
vt 0.760121 0.727180
vt 0.700521 0.727362
vt 0.700461 0.707572
vt 0.760061 0.707389
vt 0.700325 0.663505
vt 0.759925 0.663322
vt 0.256420 0.443551
vt 0.294196 0.443551
vt 0.853526 0.204708
vt 0.878989 0.202279
vt 0.964566 0.650578
vt 0.940479 0.650504
vt 0.940586 0.615716
vt 0.964673 0.615790
vt 0.939452 0.714543
vt 0.906500 0.714442
vt 0.322702 0.490041
vt 0.906730 0.639601
vt 0.939682 0.639702
vt 0.853992 0.761264
vt 0.853885 0.796052
vt 0.820938 0.795951
vt 0.821045 0.761163
vt 0.964518 0.666201
vt 0.940431 0.666127
vt 0.809124 0.783266
vt 0.809131 0.780727
vt 0.812793 0.780738
vt 0.812785 0.783277
vt 0.612137 0.745548
vt 0.612184 0.760864
vt 0.579237 0.760965
vt 0.579190 0.745649
vt 0.967010 0.681831
vt 0.964470 0.681824
vt 0.967058 0.666208
vt 0.940383 0.681750
vt 0.760182 0.746970
vt 0.700582 0.747153
vt 0.855319 0.223511
vt 0.881022 0.223590
vt 0.346169 0.485373
vt 0.614828 0.794958
vt 0.612288 0.794966
vt 0.614723 0.760856
vt 0.588726 0.795076
vt 0.588718 0.797616
vt 0.585521 0.797606
vt 0.585529 0.795067
vt 0.614676 0.745541
vt 0.814709 0.818425
vt 0.817141 0.780727
vt 0.820887 0.781341
vt 0.818503 0.818297
vt 0.817193 0.837149
vt 0.820938 0.836652
vt 0.812684 0.816224
vt 0.809023 0.816213
vt 0.611034 0.832637
vt 0.608650 0.795681
vt 0.612396 0.795067
vt 0.614828 0.832765
vt 0.608598 0.850992
vt 0.612343 0.851489
vt 0.579342 0.795067
vt 0.854039 0.745641
vt 0.821093 0.745540
vt 0.588617 0.830563
vt 0.585420 0.830553
vn 0.000399 -1.000000 0.000121
vn 0.995185 0.000000 0.098018
vn 0.000000 -1.000000 0.000000
vn -0.000000 1.000000 0.000000
vn 0.000400 1.000000 0.000121
vn 0.000416 1.000000 0.000041
vn -0.995185 0.000000 -0.098019
vn -0.956940 0.000000 -0.290286
vn 0.956940 0.000000 0.290286
vn 0.995185 0.000000 0.098017
vn 0.000415 -1.000000 0.000041
vn 0.382685 0.000000 -0.923879
vn -0.995185 0.000000 -0.098018
vn -0.098017 0.000000 0.995185
usemtl Material_Top_top
s off
f 11/1/1 13/2/1 44/3/1
f 11/1/1 44/3/1 20/4/1
f 17/5/2 30/6/2 25/7/2
f 17/5/2 25/7/2 2/8/2
f 4/9/3 34/10/3 35/11/3
f 4/9/3 35/11/3 3/12/3
f 28/13/4 15/14/4 41/15/4
f 28/13/4 41/15/4 25/16/4
f 43/17/5 12/18/5 2/19/5
f 43/17/5 2/19/5 42/20/5
f 16/21/6 37/22/6 38/23/6
f 16/21/6 38/23/6 17/24/6
f 18/25/7 16/26/7 12/27/7
f 18/25/7 12/27/7 11/28/7
f 11/28/8 12/27/8 43/29/8
f 11/28/8 43/29/8 13/30/8
f 22/31/3 19/32/3 20/4/3
f 22/31/3 20/4/3 44/3/3
f 6/33/4 28/13/4 25/16/4
f 6/33/4 25/16/4 30/34/4
f 23/35/9 19/36/9 22/37/9
f 23/35/9 22/37/9 32/38/9
f 38/39/10 24/40/10 30/6/10
f 38/39/10 30/6/10 17/5/10
f 18/41/11 11/1/11 20/4/11
f 18/41/11 20/4/11 3/12/11
f 2/8/9 25/7/9 41/42/9
f 2/8/9 41/42/9 42/43/9
f 14/44/8 7/45/8 15/46/8
f 14/44/8 15/46/8 28/47/8
f 12/18/6 16/21/6 17/24/6
f 12/18/6 17/24/6 2/19/6
f 5/48/2 4/49/2 19/36/2
f 5/48/2 19/36/2 23/35/2
f 19/32/3 4/9/3 3/12/3
f 19/32/3 3/12/3 20/4/3
f 1/50/12 8/51/12 32/52/12
f 1/50/12 32/52/12 15/53/12
f 31/54/10 9/55/10 26/56/10
f 31/54/10 26/56/10 33/57/10
f 40/58/2 39/59/2 5/48/2
f 40/58/2 5/48/2 6/60/2
f 39/59/2 34/61/2 4/49/2
f 39/59/2 4/49/2 5/48/2
f 10/62/13 37/63/13 16/26/13
f 10/62/13 16/26/13 18/25/13
f 40/64/4 6/33/4 30/34/4
f 40/64/4 30/34/4 24/65/4
f 10/66/11 18/41/11 3/12/11
f 10/66/11 3/12/11 35/11/11
f 8/67/9 1/68/9 9/55/9
f 8/67/9 9/55/9 21/69/9
f 27/70/14 31/71/14 6/72/14
f 27/70/14 6/72/14 5/73/14
f 31/54/10 27/74/10 21/69/10
f 31/54/10 21/69/10 9/55/10
f 23/75/3 32/76/3 8/77/3
f 23/75/3 8/77/3 21/78/3
f 5/79/3 23/75/3 21/78/3
f 5/79/3 21/78/3 27/80/3
f 1/50/12 15/53/12 7/81/12
f 1/50/12 7/81/12 36/82/12
f 26/83/4 36/84/4 7/85/4
f 26/83/4 7/85/4 14/86/4
f 33/87/4 26/83/4 14/86/4
f 33/87/4 14/86/4 29/88/4
f 9/55/9 1/68/9 36/89/9
f 9/55/9 36/89/9 26/56/9
f 29/90/13 14/44/13 28/47/13
f 29/90/13 28/47/13 6/91/13
f 33/92/14 29/93/14 6/72/14
f 33/92/14 6/72/14 31/71/14
