# This file uses centimeters as units for non-parametric coordinates.

mtllib center1Wall.mtl
v -1.000000 -0.750000 4.000000
v 1.000000 -0.750000 4.000000
v -1.000000 0.750000 4.000000
v 1.000000 0.750000 4.000000
v -1.000000 0.750000 -4.000000
v 1.000000 0.750000 -4.000000
v -1.000000 -0.750000 -4.000000
v 1.000000 -0.750000 -4.000000
vt 0.816849 0.225996
vt 0.816849 0.001794
vt 0.985000 0.225996
vt 0.985000 0.001794
vt 0.001992 0.001794
vt 0.226194 0.001794
vt 0.001992 0.898602
vt 0.226194 0.898602
vt 0.829856 0.454189
vt 0.829856 0.229987
vt 0.998008 0.454189
vt 0.998008 0.229987
vt 0.234112 0.001794
vt 0.458314 0.001794
vt 0.234112 0.898602
vt 0.458314 0.898602
vt 0.466038 0.898602
vt 0.466038 0.001794
vt 0.634189 0.898602
vt 0.634189 0.001794
vt 0.641443 0.898602
vt 0.641443 0.001794
vt 0.809595 0.898602
vt 0.809595 0.001794
vn 0.000000 0.000000 1.000000
vn 0.000000 0.000000 1.000000
vn 0.000000 0.000000 1.000000
vn 0.000000 0.000000 1.000000
vn 0.000000 0.000000 1.000000
vn 0.000000 0.000000 1.000000
vn 0.000000 1.000000 0.000000
vn 0.000000 1.000000 0.000000
vn 0.000000 1.000000 0.000000
vn 0.000000 1.000000 0.000000
vn 0.000000 1.000000 0.000000
vn 0.000000 1.000000 0.000000
vn 0.000000 0.000000 -1.000000
vn 0.000000 0.000000 -1.000000
vn 0.000000 0.000000 -1.000000
vn 0.000000 0.000000 -1.000000
vn 0.000000 0.000000 -1.000000
vn 0.000000 0.000000 -1.000000
vn 0.000000 -1.000000 0.000000
vn 0.000000 -1.000000 0.000000
vn 0.000000 -1.000000 0.000000
vn 0.000000 -1.000000 0.000000
vn 0.000000 -1.000000 0.000000
vn 0.000000 -1.000000 0.000000
vn 1.000000 0.000000 0.000000
vn 1.000000 0.000000 0.000000
vn 1.000000 0.000000 0.000000
vn 1.000000 0.000000 0.000000
vn 1.000000 0.000000 0.000000
vn 1.000000 0.000000 0.000000
vn -1.000000 0.000000 0.000000
vn -1.000000 0.000000 0.000000
vn -1.000000 0.000000 0.000000
vn -1.000000 0.000000 0.000000
vn -1.000000 0.000000 0.000000
vn -1.000000 0.000000 0.000000
g center1Wall
usemtl initialShadingGroup1
f 1/1/1 2/2/2 3/3/3
f 3/3/4 2/2/5 4/4/6
f 3/5/7 4/6/8 5/7/9
f 5/7/10 4/6/11 6/8/12
f 5/9/13 6/10/14 7/11/15
f 7/11/16 6/10/17 8/12/18
f 7/13/19 8/14/20 1/15/21
f 1/15/22 8/14/23 2/16/24
f 2/17/25 8/18/26 4/19/27
f 4/19/28 8/18/29 6/20/30
f 7/21/31 1/22/32 5/23/33
f 5/23/34 1/22/35 3/24/36
