# This file uses centimeters as units for non-parametric coordinates.

mtllib center2Ramp.mtl
v -0.750000 -0.750000 2.000000
v 0.750000 -0.750000 2.000000
v -0.750000 0.750000 2.000000
v -0.750000 0.750000 -2.000000
v 0.750000 -0.750000 -2.000000
v -0.750000 -0.750000 -2.000000
vt 0.654217 0.727376
vt 0.924849 0.727376
vt 0.654217 0.998008
vt 0.377899 0.727376
vt 0.648531 0.998008
vt 0.377899 0.998008
vt 0.278357 0.001992
vt 0.548989 0.001992
vt 0.278357 0.723677
vt 0.548989 0.723677
vt 0.554688 0.723677
vt 0.554688 0.001992
vt 0.825320 0.723677
vt 0.825320 0.001992
vt 0.001846 0.001992
vt 0.272478 0.001992
vt 0.001846 0.723677
vt 0.272478 0.723677
vn 0.000000 0.000000 1.000000
vn 0.000000 0.000000 1.000000
vn 0.000000 0.000000 1.000000
vn 0.707107 0.707107 0.000000
vn 0.707107 0.707107 0.000000
vn 0.707107 0.707107 0.000000
vn 0.707107 0.707107 0.000000
vn 0.707107 0.707107 0.000000
vn 0.707107 0.707107 0.000000
vn 0.000000 0.000000 -1.000000
vn 0.000000 0.000000 -1.000000
vn 0.000000 0.000000 -1.000000
vn 0.000000 -1.000000 0.000000
vn 0.000000 -1.000000 0.000000
vn 0.000000 -1.000000 0.000000
vn 0.000000 -1.000000 0.000000
vn 0.000000 -1.000000 0.000000
vn 0.000000 -1.000000 0.000000
vn -1.000000 0.000000 0.000000
vn -1.000000 0.000000 0.000000
vn -1.000000 0.000000 0.000000
vn -1.000000 0.000000 0.000000
vn -1.000000 0.000000 0.000000
vn -1.000000 0.000000 0.000000
g center2Ramp
usemtl initialShadingGroup1
f 1/1/1 2/2/2 3/3/3
f 3/15/4 2/16/5 4/17/6
f 4/17/7 2/16/8 5/18/9
f 4/4/10 5/5/11 6/6/12
f 6/7/13 5/8/14 1/9/15
f 1/9/16 5/8/17 2/10/18
f 6/11/19 1/12/20 4/13/21
f 4/13/22 1/12/23 3/14/24
