# This file uses centimeters as units for non-parametric coordinates.

mtllib center3Ramp.mtl
v -3.000000 -0.750000 0.750000
v 3.000000 -0.750000 0.750000
v -3.000000 0.750000 -0.750000
v 3.000000 0.750000 -0.750000
v -3.000000 -0.750000 -0.750000
v 3.000000 -0.750000 -0.750000
vt 0.239959 0.921904
vt 0.239959 0.001840
vt 0.469975 0.921904
vt 0.469975 0.001840
vt 0.477731 0.921904
vt 0.477731 0.001840
vt 0.707747 0.921904
vt 0.707747 0.001840
vt 0.715504 0.001840
vt 0.945519 0.001840
vt 0.945519 0.231856
vt 0.767992 0.235848
vt 0.998008 0.235848
vt 0.767992 0.465864
vt 0.001992 0.921904
vt 0.001992 0.001840
vt 0.232008 0.921904
vt 0.232008 0.001840
vn 0.000000 0.707107 0.707107
vn 0.000000 0.707107 0.707107
vn 0.000000 0.707107 0.707107
vn 0.000000 0.707107 0.707107
vn 0.000000 0.707107 0.707107
vn 0.000000 0.707107 0.707107
vn 0.000000 0.000000 -1.000000
vn 0.000000 0.000000 -1.000000
vn 0.000000 0.000000 -1.000000
vn 0.000000 0.000000 -1.000000
vn 0.000000 0.000000 -1.000000
vn 0.000000 0.000000 -1.000000
vn 0.000000 -1.000000 0.000000
vn 0.000000 -1.000000 0.000000
vn 0.000000 -1.000000 0.000000
vn 0.000000 -1.000000 0.000000
vn 0.000000 -1.000000 0.000000
vn 0.000000 -1.000000 0.000000
vn 1.000000 0.000000 0.000000
vn 1.000000 0.000000 0.000000
vn 1.000000 0.000000 0.000000
vn -1.000000 0.000000 0.000000
vn -1.000000 0.000000 0.000000
vn -1.000000 0.000000 0.000000
g center3Ramp
usemtl initialShadingGroup1
f 1/15/1 2/16/2 3/17/3
f 3/17/4 2/16/5 4/18/6
f 3/1/7 4/2/8 5/3/9
f 5/3/10 4/2/11 6/4/12
f 5/5/13 6/6/14 1/7/15
f 1/7/16 6/6/17 2/8/18
f 2/9/19 6/10/20 4/11/21
f 5/12/22 1/13/23 3/14/24
