# This file uses centimeters as units for non-parametric coordinates.

mtllib level1Wall.mtl
v -19.500000 -4.250000 0.500000
v 19.500000 -4.250000 0.500000
v -19.500000 4.250000 0.500000
v 19.500000 4.250000 0.500000
v -19.500000 4.250000 -0.500000
v 19.500000 4.250000 -0.500000
v -19.500000 -4.250000 -0.500000
v 19.500000 -4.250000 -0.500000
vt 0.001138 0.998008
vt 0.001138 0.001992
vt 0.218219 0.998008
vt 0.218219 0.001992
vt 0.224743 0.998008
vt 0.224743 0.001992
vt 0.250282 0.998008
vt 0.250282 0.001992
vt 0.256917 0.998008
vt 0.256917 0.001992
vt 0.473997 0.998008
vt 0.473997 0.001992
vt 0.480343 0.998008
vt 0.480343 0.001992
vt 0.505882 0.998008
vt 0.505882 0.001992
vt 0.512517 0.001992
vt 0.538055 0.001992
vt 0.512517 0.219072
vt 0.538055 0.219072
vt 0.544690 0.001992
vt 0.570229 0.001992
vt 0.544690 0.219072
vt 0.570229 0.219072
vn 0.000000 0.000000 1.000000
vn 0.000000 0.000000 1.000000
vn 0.000000 0.000000 1.000000
vn 0.000000 0.000000 1.000000
vn 0.000000 0.000000 1.000000
vn 0.000000 0.000000 1.000000
vn 0.000000 1.000000 0.000000
vn 0.000000 1.000000 0.000000
vn 0.000000 1.000000 0.000000
vn 0.000000 1.000000 0.000000
vn 0.000000 1.000000 0.000000
vn 0.000000 1.000000 0.000000
vn 0.000000 0.000000 -1.000000
vn 0.000000 0.000000 -1.000000
vn 0.000000 0.000000 -1.000000
vn 0.000000 0.000000 -1.000000
vn 0.000000 0.000000 -1.000000
vn 0.000000 0.000000 -1.000000
vn 0.000000 -1.000000 0.000000
vn 0.000000 -1.000000 0.000000
vn 0.000000 -1.000000 0.000000
vn 0.000000 -1.000000 0.000000
vn 0.000000 -1.000000 0.000000
vn 0.000000 -1.000000 0.000000
vn 1.000000 0.000000 0.000000
vn 1.000000 0.000000 0.000000
vn 1.000000 0.000000 0.000000
vn 1.000000 0.000000 0.000000
vn 1.000000 0.000000 0.000000
vn 1.000000 0.000000 0.000000
vn -1.000000 0.000000 0.000000
vn -1.000000 0.000000 0.000000
vn -1.000000 0.000000 0.000000
vn -1.000000 0.000000 0.000000
vn -1.000000 0.000000 0.000000
vn -1.000000 0.000000 0.000000
g level1Wall
usemtl initialShadingGroup1
f 1/1/1 2/2/2 3/3/3
f 3/3/4 2/2/5 4/4/6
f 3/5/7 4/6/8 5/7/9
f 5/7/10 4/6/11 6/8/12
f 5/9/13 6/10/14 7/11/15
f 7/11/16 6/10/17 8/12/18
f 7/13/19 8/14/20 1/15/21
f 1/15/22 8/14/23 2/16/24
f 2/17/25 8/18/26 4/19/27
f 4/19/28 8/18/29 6/20/30
f 7/21/31 1/22/32 5/23/33
f 5/23/34 1/22/35 3/24/36
