# This file uses centimeters as units for non-parametric coordinates.

mtllib middle2Floor.mtl
v -2.500000 -0.500000 10.000000
v 2.500000 -0.500000 10.000000
v -2.500000 0.500000 10.000000
v 2.500000 0.500000 10.000000
v -2.500000 0.500000 -10.000000
v 2.500000 0.500000 -10.000000
v -2.500000 -0.500000 -10.000000
v 2.500000 -0.500000 -10.000000
vt 0.626929 0.250996
vt 0.626929 0.001992
vt 0.676730 0.250996
vt 0.676730 0.001992
vt 0.001465 0.001992
vt 0.250469 0.001992
vt 0.001465 0.998008
vt 0.250469 0.998008
vt 0.683940 0.250996
vt 0.683940 0.001992
vt 0.733741 0.250996
vt 0.733741 0.001992
vt 0.257278 0.001992
vt 0.506282 0.001992
vt 0.257278 0.998008
vt 0.506282 0.998008
vt 0.512908 0.998008
vt 0.512908 0.001992
vt 0.562708 0.998008
vt 0.562708 0.001992
vt 0.569919 0.998008
vt 0.569919 0.001992
vt 0.619719 0.998008
vt 0.619719 0.001992
vn 0.000000 0.000000 1.000000
vn 0.000000 0.000000 1.000000
vn 0.000000 0.000000 1.000000
vn 0.000000 0.000000 1.000000
vn 0.000000 0.000000 1.000000
vn 0.000000 0.000000 1.000000
vn 0.000000 1.000000 0.000000
vn 0.000000 1.000000 0.000000
vn 0.000000 1.000000 0.000000
vn 0.000000 1.000000 0.000000
vn 0.000000 1.000000 0.000000
vn 0.000000 1.000000 0.000000
vn 0.000000 0.000000 -1.000000
vn 0.000000 0.000000 -1.000000
vn 0.000000 0.000000 -1.000000
vn 0.000000 0.000000 -1.000000
vn 0.000000 0.000000 -1.000000
vn 0.000000 0.000000 -1.000000
vn 0.000000 -1.000000 0.000000
vn 0.000000 -1.000000 0.000000
vn 0.000000 -1.000000 0.000000
vn 0.000000 -1.000000 0.000000
vn 0.000000 -1.000000 0.000000
vn 0.000000 -1.000000 0.000000
vn 1.000000 0.000000 0.000000
vn 1.000000 0.000000 0.000000
vn 1.000000 0.000000 0.000000
vn 1.000000 0.000000 0.000000
vn 1.000000 0.000000 0.000000
vn 1.000000 0.000000 0.000000
vn -1.000000 0.000000 0.000000
vn -1.000000 0.000000 0.000000
vn -1.000000 0.000000 0.000000
vn -1.000000 0.000000 0.000000
vn -1.000000 0.000000 0.000000
vn -1.000000 0.000000 0.000000
g middle2Floor
usemtl initialShadingGroup1
f 1/1/1 2/2/2 3/3/3
f 3/3/4 2/2/5 4/4/6
f 3/5/7 4/6/8 5/7/9
f 5/7/10 4/6/11 6/8/12
f 5/9/13 6/10/14 7/11/15
f 7/11/16 6/10/17 8/12/18
f 7/13/19 8/14/20 1/15/21
f 1/15/22 8/14/23 2/16/24
f 2/17/25 8/18/26 4/19/27
f 4/19/28 8/18/29 6/20/30
f 7/21/31 1/22/32 5/23/33
f 5/23/34 1/22/35 3/24/36
