# This file uses centimeters as units for non-parametric coordinates.

mtllib middle3Wall.mtl
v -4.500000 -3.500000 0.250000
v 4.500000 -3.500000 0.250000
v -4.500000 3.500000 0.250000
v 4.500000 3.500000 0.250000
v -4.500000 3.500000 -0.250000
v 4.500000 3.500000 -0.250000
v -4.500000 -3.500000 -0.250000
v 4.500000 -3.500000 -0.250000
vt 0.001992 0.552322
vt 0.001992 0.001721
vt 0.430237 0.552322
vt 0.430237 0.001721
vt 0.436803 0.552322
vt 0.436803 0.001721
vt 0.467392 0.552322
vt 0.467392 0.001721
vt 0.473833 0.552322
vt 0.473833 0.001721
vt 0.902079 0.552322
vt 0.902079 0.001721
vt 0.908450 0.552322
vt 0.908450 0.001721
vt 0.939039 0.552322
vt 0.939039 0.001721
vt 0.945480 0.001721
vt 0.976069 0.001721
vt 0.945480 0.429966
vt 0.976069 0.429966
vt 0.967419 0.433958
vt 0.998008 0.433958
vt 0.967419 0.862203
vt 0.998008 0.862203
vn 0.000000 0.000000 1.000000
vn 0.000000 0.000000 1.000000
vn 0.000000 0.000000 1.000000
vn 0.000000 0.000000 1.000000
vn 0.000000 0.000000 1.000000
vn 0.000000 0.000000 1.000000
vn 0.000000 1.000000 0.000000
vn 0.000000 1.000000 0.000000
vn 0.000000 1.000000 0.000000
vn 0.000000 1.000000 0.000000
vn 0.000000 1.000000 0.000000
vn 0.000000 1.000000 0.000000
vn 0.000000 0.000000 -1.000000
vn 0.000000 0.000000 -1.000000
vn 0.000000 0.000000 -1.000000
vn 0.000000 0.000000 -1.000000
vn 0.000000 0.000000 -1.000000
vn 0.000000 0.000000 -1.000000
vn 0.000000 -1.000000 0.000000
vn 0.000000 -1.000000 0.000000
vn 0.000000 -1.000000 0.000000
vn 0.000000 -1.000000 0.000000
vn 0.000000 -1.000000 0.000000
vn 0.000000 -1.000000 0.000000
vn 1.000000 0.000000 0.000000
vn 1.000000 0.000000 0.000000
vn 1.000000 0.000000 0.000000
vn 1.000000 0.000000 0.000000
vn 1.000000 0.000000 0.000000
vn 1.000000 0.000000 0.000000
vn -1.000000 0.000000 0.000000
vn -1.000000 0.000000 0.000000
vn -1.000000 0.000000 0.000000
vn -1.000000 0.000000 0.000000
vn -1.000000 0.000000 0.000000
vn -1.000000 0.000000 0.000000
g middle3Wall
usemtl initialShadingGroup1
f 1/1/1 2/2/2 3/3/3
f 3/3/4 2/2/5 4/4/6
f 3/5/7 4/6/8 5/7/9
f 5/7/10 4/6/11 6/8/12
f 5/9/13 6/10/14 7/11/15
f 7/11/16 6/10/17 8/12/18
f 7/13/19 8/14/20 1/15/21
f 1/15/22 8/14/23 2/16/24
f 2/17/25 8/18/26 4/19/27
f 4/19/28 8/18/29 6/20/30
f 7/21/31 1/22/32 5/23/33
f 5/23/34 1/22/35 3/24/36
