# This file uses centimeters as units for non-parametric coordinates.

mtllib rampLong.mtl
v -2.500000 -1.000000 1.000000
v 2.500000 -1.000000 1.000000
v -2.500000 1.000000 1.000000
v -2.500000 1.000000 -1.000000
v -2.500000 -1.000000 -1.000000
v 2.500000 -1.000000 -1.000000
vt 0.001618 0.498379
vt 0.001618 0.001992
vt 0.200173 0.498379
vt 0.206036 0.498379
vt 0.404591 0.001992
vt 0.404591 0.498379
vt 0.410296 0.498379
vt 0.410296 0.001992
vt 0.608850 0.498379
vt 0.608850 0.001992
vt 0.612267 0.501621
vt 0.810822 0.501621
vt 0.612267 0.998008
vt 0.810822 0.998008
vt 0.408728 0.501621
vt 0.607282 0.501621
vt 0.408728 0.700176
vt 0.607282 0.700176
vn 0.000000 0.000000 1.000000
vn 0.000000 0.000000 1.000000
vn 0.000000 0.000000 1.000000
vn 0.000000 0.000000 -1.000000
vn 0.000000 0.000000 -1.000000
vn 0.000000 0.000000 -1.000000
vn 0.000000 -1.000000 0.000000
vn 0.000000 -1.000000 0.000000
vn 0.000000 -1.000000 0.000000
vn 0.000000 -1.000000 0.000000
vn 0.000000 -1.000000 0.000000
vn 0.000000 -1.000000 0.000000
vn 0.371391 0.928477 0.000000
vn 0.371391 0.928477 0.000000
vn 0.371391 0.928477 0.000000
vn 0.371391 0.928477 0.000000
vn 0.371391 0.928477 0.000000
vn 0.371391 0.928477 0.000000
vn -1.000000 0.000000 0.000000
vn -1.000000 0.000000 0.000000
vn -1.000000 0.000000 0.000000
vn -1.000000 0.000000 0.000000
vn -1.000000 0.000000 0.000000
vn -1.000000 0.000000 0.000000
g rampLong
usemtl initialShadingGroup1
f 1/1/1 2/2/2 3/3/3
f 4/4/4 6/5/5 5/6/6
f 5/7/7 6/8/8 1/9/9
f 1/9/10 6/8/11 2/10/12
f 2/11/13 6/12/14 3/13/15
f 3/13/16 6/12/17 4/14/18
f 5/15/19 1/16/20 4/17/21
f 4/17/22 1/16/23 3/18/24
