# This file uses centimeters as units for non-parametric coordinates.

mtllib side3HighWall.mtl
v -1.000000 -3.000000 0.750000
v 1.000000 -3.000000 0.750000
v -1.000000 3.000000 0.750000
v 1.000000 3.000000 0.750000
v -1.000000 3.000000 -0.750000
v 1.000000 3.000000 -0.750000
v -1.000000 -3.000000 -0.750000
v 1.000000 -3.000000 -0.750000
vt 0.001839 0.001992
vt 0.249922 0.001992
vt 0.001839 0.746240
vt 0.249922 0.746240
vt 0.735394 0.998008
vt 0.735394 0.749925
vt 0.921456 0.998008
vt 0.921456 0.749925
vt 0.255743 0.001992
vt 0.503826 0.001992
vt 0.255743 0.746240
vt 0.503826 0.746240
vt 0.543667 0.998008
vt 0.543667 0.749925
vt 0.729729 0.998008
vt 0.729729 0.749925
vt 0.511266 0.001992
vt 0.697328 0.001992
vt 0.511266 0.746240
vt 0.697328 0.746240
vt 0.703808 0.001992
vt 0.889870 0.001992
vt 0.703808 0.746240
vt 0.889870 0.746240
vn 0.000000 0.000000 1.000000
vn 0.000000 0.000000 1.000000
vn 0.000000 0.000000 1.000000
vn 0.000000 0.000000 1.000000
vn 0.000000 0.000000 1.000000
vn 0.000000 0.000000 1.000000
vn 0.000000 1.000000 0.000000
vn 0.000000 1.000000 0.000000
vn 0.000000 1.000000 0.000000
vn 0.000000 1.000000 0.000000
vn 0.000000 1.000000 0.000000
vn 0.000000 1.000000 0.000000
vn 0.000000 0.000000 -1.000000
vn 0.000000 0.000000 -1.000000
vn 0.000000 0.000000 -1.000000
vn 0.000000 0.000000 -1.000000
vn 0.000000 0.000000 -1.000000
vn 0.000000 0.000000 -1.000000
vn 0.000000 -1.000000 0.000000
vn 0.000000 -1.000000 0.000000
vn 0.000000 -1.000000 0.000000
vn 0.000000 -1.000000 0.000000
vn 0.000000 -1.000000 0.000000
vn 0.000000 -1.000000 0.000000
vn 1.000000 0.000000 0.000000
vn 1.000000 0.000000 0.000000
vn 1.000000 0.000000 0.000000
vn 1.000000 0.000000 0.000000
vn 1.000000 0.000000 0.000000
vn 1.000000 0.000000 0.000000
vn -1.000000 0.000000 0.000000
vn -1.000000 0.000000 0.000000
vn -1.000000 0.000000 0.000000
vn -1.000000 0.000000 0.000000
vn -1.000000 0.000000 0.000000
vn -1.000000 0.000000 0.000000
g side3HighWall
usemtl initialShadingGroup1
f 1/1/1 2/2/2 3/3/3
f 3/3/4 2/2/5 4/4/6
f 3/5/7 4/6/8 5/7/9
f 5/7/10 4/6/11 6/8/12
f 5/9/13 6/10/14 7/11/15
f 7/11/16 6/10/17 8/12/18
f 7/13/19 8/14/20 1/15/21
f 1/15/22 8/14/23 2/16/24
f 2/17/25 8/18/26 4/19/27
f 4/19/28 8/18/29 6/20/30
f 7/21/31 1/22/32 5/23/33
f 5/23/34 1/22/35 3/24/36
