# This file uses centimeters as units for non-parametric coordinates.

mtllib spawnCorner.mtl
v -0.500000 -1.500000 0.500000
v -0.500000 1.500000 0.500000
v -0.500000 1.500000 -0.500000
v 0.500000 1.500000 -0.500000
v -0.500000 -1.500000 -0.500000
v 0.500000 -1.500000 -0.500000
vt 0.658676 0.998008
vt 0.906773 0.749911
vt 0.906773 0.998008
vt 0.001810 0.001992
vt 0.249907 0.001992
vt 0.001810 0.746284
vt 0.249907 0.746284
vt 0.405004 0.749911
vt 0.653102 0.749911
vt 0.405004 0.998008
vt 0.511973 0.001992
vt 0.760071 0.001992
vt 0.511973 0.746284
vt 0.760071 0.746284
vt 0.256980 0.001992
vt 0.505077 0.001992
vt 0.256980 0.746284
vt 0.505077 0.746284
vn 0.000000 1.000000 0.000000
vn 0.000000 1.000000 0.000000
vn 0.000000 1.000000 0.000000
vn 0.000000 0.000000 -1.000000
vn 0.000000 0.000000 -1.000000
vn 0.000000 0.000000 -1.000000
vn 0.000000 0.000000 -1.000000
vn 0.000000 0.000000 -1.000000
vn 0.000000 0.000000 -1.000000
vn 0.000000 -1.000000 0.000000
vn 0.000000 -1.000000 0.000000
vn 0.000000 -1.000000 0.000000
vn 0.707107 0.000000 0.707107
vn 0.707107 0.000000 0.707107
vn 0.707107 0.000000 0.707107
vn 0.707107 0.000000 0.707107
vn 0.707107 0.000000 0.707107
vn 0.707107 0.000000 0.707107
vn -1.000000 0.000000 0.000000
vn -1.000000 0.000000 0.000000
vn -1.000000 0.000000 0.000000
vn -1.000000 0.000000 0.000000
vn -1.000000 0.000000 0.000000
vn -1.000000 0.000000 0.000000
g spawnCorner
usemtl initialShadingGroup1
f 2/1/1 4/2/2 3/3/3
f 3/4/4 4/5/5 5/6/6
f 5/6/7 4/5/8 6/7/9
f 5/8/10 6/9/11 1/10/12
f 1/15/13 6/16/14 2/17/15
f 2/17/16 6/16/17 4/18/18
f 5/11/19 1/12/20 3/13/21
f 3/13/22 1/12/23 2/14/24
