# This file uses centimeters as units for non-parametric coordinates.

mtllib top1Floor.mtl
v -4.500000 -0.500000 2.500000
v 4.500000 -0.500000 2.500000
v -4.500000 0.500000 2.500000
v 4.500000 0.500000 2.500000
v -4.500000 0.500000 -2.500000
v 4.500000 0.500000 -2.500000
v -4.500000 -0.500000 -2.500000
v 4.500000 -0.500000 -2.500000
vt 0.001992 0.642141
vt 0.001992 0.001432
vt 0.073182 0.642141
vt 0.073182 0.001432
vt 0.080145 0.642141
vt 0.080145 0.001432
vt 0.436095 0.642141
vt 0.436095 0.001432
vt 0.442650 0.642141
vt 0.442650 0.001432
vt 0.513840 0.642141
vt 0.513840 0.001432
vt 0.520608 0.642141
vt 0.520608 0.001432
vt 0.876558 0.642141
vt 0.876558 0.001432
vt 0.883113 0.357381
vt 0.883113 0.001432
vt 0.954303 0.357381
vt 0.954303 0.001432
vt 0.926818 0.717323
vt 0.926818 0.361373
vt 0.998008 0.717323
vt 0.998008 0.361373
vn 0.000000 0.000000 1.000000
vn 0.000000 0.000000 1.000000
vn 0.000000 0.000000 1.000000
vn 0.000000 0.000000 1.000000
vn 0.000000 0.000000 1.000000
vn 0.000000 0.000000 1.000000
vn 0.000000 1.000000 0.000000
vn 0.000000 1.000000 0.000000
vn 0.000000 1.000000 0.000000
vn 0.000000 1.000000 0.000000
vn 0.000000 1.000000 0.000000
vn 0.000000 1.000000 0.000000
vn 0.000000 0.000000 -1.000000
vn 0.000000 0.000000 -1.000000
vn 0.000000 0.000000 -1.000000
vn 0.000000 0.000000 -1.000000
vn 0.000000 0.000000 -1.000000
vn 0.000000 0.000000 -1.000000
vn 0.000000 -1.000000 0.000000
vn 0.000000 -1.000000 0.000000
vn 0.000000 -1.000000 0.000000
vn 0.000000 -1.000000 0.000000
vn 0.000000 -1.000000 0.000000
vn 0.000000 -1.000000 0.000000
vn 1.000000 0.000000 0.000000
vn 1.000000 0.000000 0.000000
vn 1.000000 0.000000 0.000000
vn 1.000000 0.000000 0.000000
vn 1.000000 0.000000 0.000000
vn 1.000000 0.000000 0.000000
vn -1.000000 0.000000 0.000000
vn -1.000000 0.000000 0.000000
vn -1.000000 0.000000 0.000000
vn -1.000000 0.000000 0.000000
vn -1.000000 0.000000 0.000000
vn -1.000000 0.000000 0.000000
g top1Floor
usemtl initialShadingGroup1
f 1/1/1 2/2/2 3/3/3
f 3/3/4 2/2/5 4/4/6
f 3/5/7 4/6/8 5/7/9
f 5/7/10 4/6/11 6/8/12
f 5/9/13 6/10/14 7/11/15
f 7/11/16 6/10/17 8/12/18
f 7/13/19 8/14/20 1/15/21
f 1/15/22 8/14/23 2/16/24
f 2/17/25 8/18/26 4/19/27
f 4/19/28 8/18/29 6/20/30
f 7/21/31 1/22/32 5/23/33
f 5/23/34 1/22/35 3/24/36
