# This file uses centimeters as units for non-parametric coordinates.

mtllib zagHighWallCorner.mtl
v -0.500000 -3.000000 0.500000
v -0.500000 3.000000 0.500000
v 0.500000 3.000000 -0.500000
v -0.500000 3.000000 -0.500000
v -0.500000 -3.000000 -0.500000
v 0.500000 -3.000000 -0.500000
vt 0.375000 0.250000
vt 0.750000 0.312500
vt 0.375000 0.500000
vt 0.375000 0.750000
vt 0.625000 0.875000
vt 0.375000 1.000000
vt 0.000000 0.000000
vt 0.000000 1.000000
vt 0.333333 0.000000
vt 0.333333 1.000000
vt 0.666667 0.000000
vt 0.666667 1.000000
vt 1.000000 0.000000
vt 1.000000 1.000000
vn 0.707107 0.000000 0.707107
vn 0.707107 0.000000 0.707107
vn 0.707107 0.000000 0.707107
vn 0.707107 0.000000 0.707107
vn 0.000000 1.000000 0.000000
vn 0.000000 1.000000 0.000000
vn 0.000000 1.000000 0.000000
vn 0.000000 0.000000 -1.000000
vn 0.000000 0.000000 -1.000000
vn 0.000000 0.000000 -1.000000
vn 0.000000 0.000000 -1.000000
vn 0.000000 -1.000000 0.000000
vn 0.000000 -1.000000 0.000000
vn 0.000000 -1.000000 0.000000
vn -1.000000 0.000000 0.000000
vn -1.000000 0.000000 0.000000
vn -1.000000 0.000000 0.000000
vn -1.000000 0.000000 0.000000
g zagHighWallCorner
usemtl initialShadingGroup
f 1/13/1 6/11/2 2/14/3
f 2/14/3 6/11/2 3/12/4
f 2/1/5 3/2/6 4/3/7
f 4/10/8 3/12/9 5/9/10
f 5/9/10 3/12/9 6/11/11
f 5/4/12 6/5/13 1/6/14
f 5/9/15 1/7/16 4/10/17
f 4/10/17 1/7/16 2/8/18

