# This file uses centimeters as units for non-parametric coordinates.

mtllib zigHighWall.mtl
v -1.000000 -3.000000 0.250000
v 1.000000 -3.000000 0.250000
v -1.000000 3.000000 0.250000
v 1.000000 3.000000 0.250000
v -1.000000 3.000000 -0.250000
v 1.000000 3.000000 -0.250000
v -1.000000 -3.000000 -0.250000
v 1.000000 -3.000000 -0.250000
vt 0.001992 0.001918
vt 0.321736 0.001918
vt 0.001992 0.961150
vt 0.321736 0.961150
vt 0.830466 0.321663
vt 0.830466 0.001918
vt 0.910402 0.321663
vt 0.910402 0.001918
vt 0.328723 0.001918
vt 0.648467 0.001918
vt 0.328723 0.961150
vt 0.648467 0.961150
vt 0.918072 0.321662
vt 0.918072 0.001918
vt 0.998008 0.321662
vt 0.998008 0.001918
vt 0.655254 0.001918
vt 0.735190 0.001918
vt 0.655254 0.961150
vt 0.735190 0.961150
vt 0.742860 0.001918
vt 0.822796 0.001918
vt 0.742860 0.961150
vt 0.822796 0.961150
vn 0.000000 0.000000 1.000000
vn 0.000000 0.000000 1.000000
vn 0.000000 0.000000 1.000000
vn 0.000000 0.000000 1.000000
vn 0.000000 0.000000 1.000000
vn 0.000000 0.000000 1.000000
vn 0.000000 1.000000 0.000000
vn 0.000000 1.000000 0.000000
vn 0.000000 1.000000 0.000000
vn 0.000000 1.000000 0.000000
vn 0.000000 1.000000 0.000000
vn 0.000000 1.000000 0.000000
vn 0.000000 0.000000 -1.000000
vn 0.000000 0.000000 -1.000000
vn 0.000000 0.000000 -1.000000
vn 0.000000 0.000000 -1.000000
vn 0.000000 0.000000 -1.000000
vn 0.000000 0.000000 -1.000000
vn 0.000000 -1.000000 0.000000
vn 0.000000 -1.000000 0.000000
vn 0.000000 -1.000000 0.000000
vn 0.000000 -1.000000 0.000000
vn 0.000000 -1.000000 0.000000
vn 0.000000 -1.000000 0.000000
vn 1.000000 0.000000 0.000000
vn 1.000000 0.000000 0.000000
vn 1.000000 0.000000 0.000000
vn 1.000000 0.000000 0.000000
vn 1.000000 0.000000 0.000000
vn 1.000000 0.000000 0.000000
vn -1.000000 0.000000 0.000000
vn -1.000000 0.000000 0.000000
vn -1.000000 0.000000 0.000000
vn -1.000000 0.000000 0.000000
vn -1.000000 0.000000 0.000000
vn -1.000000 0.000000 0.000000
g zigHighWall
usemtl initialShadingGroup1
f 1/1/1 2/2/2 3/3/3
f 3/3/4 2/2/5 4/4/6
f 3/5/7 4/6/8 5/7/9
f 5/7/10 4/6/11 6/8/12
f 5/9/13 6/10/14 7/11/15
f 7/11/16 6/10/17 8/12/18
f 7/13/19 8/14/20 1/15/21
f 1/15/22 8/14/23 2/16/24
f 2/17/25 8/18/26 4/19/27
f 4/19/28 8/18/29 6/20/30
f 7/21/31 1/22/32 5/23/33
f 5/23/34 1/22/35 3/24/36
