# This file uses centimeters as units for non-parametric coordinates.

mtllib ammoscatter.mtl
v -0.150000 -0.050000 0.170000
v 0.150000 -0.050000 0.170000
v -0.150000 0.050000 0.170000
v 0.150000 0.050000 0.170000
v -0.150000 0.050000 -0.130000
v 0.150000 0.050000 -0.130000
v -0.150000 -0.050000 -0.130000
v 0.150000 -0.050000 -0.130000
v 0.050000 0.050000 0.050000
v 0.047553 0.050000 0.034549
v 0.040451 0.050000 0.020611
v 0.029389 0.050000 0.009549
v 0.015451 0.050000 0.002447
v 0.000000 0.050000 0.000000
v -0.015451 0.050000 0.002447
v -0.029389 0.050000 0.009549
v -0.040451 0.050000 0.020611
v -0.047553 0.050000 0.034549
v -0.050000 0.050000 0.050000
v -0.047553 0.050000 0.065451
v -0.040451 0.050000 0.079389
v -0.029389 0.050000 0.090451
v -0.015451 0.050000 0.097553
v 0.000000 0.050000 0.100000
v 0.015451 0.050000 0.097553
v 0.029389 0.050000 0.090451
v 0.040451 0.050000 0.079389
v 0.047553 0.050000 0.065451
v 0.050000 0.060000 0.050000
v 0.047553 0.060000 0.034549
v 0.040451 0.060000 0.020611
v 0.029389 0.060000 0.009549
v 0.015451 0.060000 0.002447
v 0.000000 0.060000 0.000000
v -0.015451 0.060000 0.002447
v -0.029389 0.060000 0.009549
v -0.040451 0.060000 0.020611
v -0.047553 0.060000 0.034549
v -0.050000 0.060000 0.050000
v -0.047553 0.060000 0.065451
v -0.040451 0.060000 0.079389
v -0.029389 0.060000 0.090451
v -0.015451 0.060000 0.097553
v 0.000000 0.060000 0.100000
v 0.015451 0.060000 0.097553
v 0.029389 0.060000 0.090451
v 0.040451 0.060000 0.079389
v 0.047553 0.060000 0.065451
v 0.060000 0.060000 0.050000
v 0.057063 0.060000 0.031459
v 0.048541 0.060000 0.014733
v 0.035267 0.060000 0.001459
v 0.018541 0.060000 -0.007063
v -0.000000 0.060000 -0.010000
v -0.018541 0.060000 -0.007063
v -0.035267 0.060000 0.001459
v -0.048541 0.060000 0.014733
v -0.057063 0.060000 0.031459
v -0.060000 0.060000 0.050000
v -0.057063 0.060000 0.068541
v -0.048541 0.060000 0.085267
v -0.035267 0.060000 0.098541
v -0.018541 0.060000 0.107063
v 0.000000 0.060000 0.110000
v 0.018541 0.060000 0.107063
v 0.035267 0.060000 0.098541
v 0.048541 0.060000 0.085267
v 0.057063 0.060000 0.068541
v 0.060000 0.050000 0.050000
v 0.057063 0.050000 0.031459
v 0.048541 0.050000 0.014733
v 0.035267 0.050000 0.001459
v 0.018541 0.050000 -0.007063
v -0.000000 0.050000 -0.010000
v -0.018541 0.050000 -0.007063
v -0.035267 0.050000 0.001459
v -0.048541 0.050000 0.014733
v -0.057063 0.050000 0.031459
v -0.060000 0.050000 0.050000
v -0.057063 0.050000 0.068541
v -0.048541 0.050000 0.085267
v -0.035267 0.050000 0.098541
v -0.018541 0.050000 0.107063
v 0.000000 0.050000 0.110000
v 0.018541 0.050000 0.107063
v 0.035267 0.050000 0.098541
v 0.048541 0.050000 0.085267
v 0.057063 0.050000 0.068541
v -0.031045 0.050000 -0.000699
v -0.022135 0.050000 -0.005239
v -0.031045 0.060000 -0.000699
v -0.022135 0.060000 -0.005239
v -0.053745 0.060000 -0.045249
v -0.044835 0.060000 -0.049789
v -0.053745 0.050000 -0.045249
v -0.044835 0.050000 -0.049789
v -0.054014 0.060000 -0.056791
v -0.054014 0.050000 -0.056791
v -0.036059 0.060000 -0.054261
v -0.036059 0.050000 -0.054261
v -0.062521 0.060000 -0.040778
v -0.062521 0.050000 -0.040778
v 0.022195 0.050000 -0.004995
v 0.031105 0.050000 -0.000455
v 0.022195 0.060000 -0.004995
v 0.031105 0.060000 -0.000455
v 0.044895 0.060000 -0.049545
v 0.053805 0.060000 -0.045005
v 0.044895 0.050000 -0.049545
v 0.053805 0.050000 -0.045005
v 0.054074 0.060000 -0.056547
v 0.054074 0.050000 -0.056547
v 0.062581 0.060000 -0.040534
v 0.062581 0.050000 -0.040534
v 0.036119 0.060000 -0.054017
v 0.036119 0.050000 -0.054017
vt 0.001888 0.435643
vt 0.001888 0.001992
vt 0.146439 0.001992
vt 0.146439 0.435643
vt 0.153580 0.001992
vt 0.587232 0.001992
vt 0.587232 0.435643
vt 0.153580 0.435643
vt 0.593320 0.435643
vt 0.593320 0.001992
vt 0.737871 0.001992
vt 0.737871 0.435643
vt 0.512481 0.439427
vt 0.946132 0.439427
vt 0.946132 0.873079
vt 0.512481 0.873079
vt 0.362114 0.873079
vt 0.362114 0.439427
vt 0.506664 0.439427
vt 0.506664 0.873079
vt 0.211747 0.873079
vt 0.211747 0.439427
vt 0.356297 0.439427
vt 0.356297 0.873079
vt 0.242267 0.957669
vt 0.242267 0.935335
vt 0.256722 0.935335
vt 0.256722 0.957669
vt 0.242267 0.913000
vt 0.256722 0.913000
vt 0.242267 0.977817
vt 0.256722 0.977817
vt 0.242267 0.892852
vt 0.256722 0.892852
vt 0.242267 0.993807
vt 0.256722 0.993807
vt 0.242267 0.876863
vt 0.256722 0.876863
vt 0.282916 0.897011
vt 0.282916 0.876863
vt 0.297371 0.876863
vt 0.297371 0.897011
vt 0.282916 0.919345
vt 0.297371 0.919345
vt 0.282916 0.941679
vt 0.297371 0.941679
vt 0.282916 0.961828
vt 0.297371 0.961828
vt 0.282916 0.977817
vt 0.297371 0.977817
vt 0.303240 0.897011
vt 0.303240 0.876863
vt 0.317695 0.876863
vt 0.317695 0.897011
vt 0.303240 0.919345
vt 0.317695 0.919345
vt 0.303240 0.941679
vt 0.317695 0.941679
vt 0.303240 0.961828
vt 0.317695 0.961828
vt 0.303240 0.977817
vt 0.317695 0.977817
vt 0.338019 0.941679
vt 0.338019 0.961828
vt 0.323564 0.961828
vt 0.323564 0.941679
vt 0.338019 0.919345
vt 0.323564 0.919345
vt 0.338019 0.897011
vt 0.323564 0.897011
vt 0.338019 0.876863
vt 0.323564 0.876863
vt 0.141535 0.457420
vt 0.119200 0.453883
vt 0.119200 0.439427
vt 0.146001 0.443672
vt 0.096866 0.457420
vt 0.092399 0.443672
vt 0.161683 0.467686
vt 0.170179 0.455992
vt 0.076718 0.467686
vt 0.068221 0.455991
vt 0.177672 0.483675
vt 0.189367 0.475179
vt 0.060728 0.483675
vt 0.049034 0.475179
vt 0.187938 0.503824
vt 0.201686 0.499357
vt 0.050462 0.503824
vt 0.036715 0.499357
vt 0.191476 0.526158
vt 0.205931 0.526158
vt 0.046925 0.526158
vt 0.032470 0.526158
vt 0.187938 0.548492
vt 0.201686 0.552959
vt 0.050462 0.548492
vt 0.036715 0.552959
vt 0.177672 0.568640
vt 0.189367 0.577137
vt 0.060728 0.568640
vt 0.049034 0.577137
vt 0.161683 0.584630
vt 0.170179 0.596324
vt 0.076718 0.584630
vt 0.068221 0.596324
vt 0.141535 0.594896
vt 0.146001 0.608643
vt 0.096866 0.594896
vt 0.092399 0.608643
vt 0.119200 0.598433
vt 0.119200 0.612888
vt 0.195750 0.660037
vt 0.195750 0.686838
vt 0.181295 0.686838
vt 0.181295 0.660037
vt 0.195750 0.713639
vt 0.181295 0.713639
vt 0.195750 0.635860
vt 0.181295 0.635860
vt 0.195750 0.737817
vt 0.181295 0.737817
vt 0.195750 0.616672
vt 0.181295 0.616672
vt 0.195750 0.757005
vt 0.181295 0.757005
vt 0.201619 0.901041
vt 0.201619 0.876863
vt 0.216074 0.876863
vt 0.216074 0.901041
vt 0.201619 0.927842
vt 0.216074 0.927842
vt 0.201619 0.954643
vt 0.216074 0.954643
vt 0.201619 0.978820
vt 0.216074 0.978820
vt 0.201619 0.998008
vt 0.216074 0.998008
vt 0.236398 0.973830
vt 0.236398 0.998008
vt 0.221943 0.998008
vt 0.221943 0.973830
vt 0.236398 0.947029
vt 0.221943 0.947029
vt 0.236398 0.920228
vt 0.221943 0.920228
vt 0.236398 0.896050
vt 0.221943 0.896050
vt 0.236398 0.876863
vt 0.221943 0.876863
vt 0.277047 0.954643
vt 0.277047 0.978821
vt 0.262592 0.978821
vt 0.262592 0.954643
vt 0.277047 0.927842
vt 0.262592 0.927842
vt 0.277047 0.901041
vt 0.262592 0.901041
vt 0.277047 0.876863
vt 0.262592 0.876863
vt 0.171104 0.676601
vt 0.175349 0.703402
vt 0.160894 0.703402
vt 0.157357 0.681068
vt 0.171104 0.730204
vt 0.157357 0.725737
vt 0.158785 0.652424
vt 0.147091 0.660920
vt 0.158785 0.754381
vt 0.147091 0.745885
vt 0.139598 0.633236
vt 0.131101 0.644930
vt 0.139598 0.773569
vt 0.131101 0.761874
vt 0.115420 0.620917
vt 0.110953 0.634665
vt 0.115420 0.785888
vt 0.110953 0.772140
vt 0.088619 0.616672
vt 0.088619 0.631127
vt 0.088619 0.790133
vt 0.088619 0.775678
vt 0.061818 0.620917
vt 0.066285 0.634665
vt 0.061818 0.785888
vt 0.066285 0.772140
vt 0.037640 0.633236
vt 0.046136 0.644930
vt 0.037640 0.773569
vt 0.046136 0.761874
vt 0.018453 0.652424
vt 0.030147 0.660920
vt 0.018453 0.754381
vt 0.030147 0.745885
vt 0.006133 0.676601
vt 0.019881 0.681068
vt 0.006133 0.730204
vt 0.019881 0.725737
vt 0.001888 0.703402
vt 0.016344 0.703402
vt 0.765152 0.876863
vt 0.778031 0.876863
vt 0.778031 0.891318
vt 0.765152 0.891318
vt 0.389386 0.876863
vt 0.402265 0.883425
vt 0.369453 0.947823
vt 0.356574 0.941261
vt 0.356184 0.957945
vt 0.382139 0.954287
vt 0.343888 0.934797
vt 0.550576 0.893547
vt 0.563456 0.886984
vt 0.596268 0.951382
vt 0.583389 0.957945
vt 0.550187 0.876863
vt 0.537891 0.900011
vt 0.576142 0.880521
vt 0.602559 0.941261
vt 0.602559 0.876863
vt 0.617014 0.876863
vt 0.617014 0.941261
vt 0.643207 0.941261
vt 0.643207 0.876863
vt 0.657662 0.876863
vt 0.657662 0.941261
vt 0.683855 0.876863
vt 0.698310 0.876863
vt 0.698310 0.902817
vt 0.683855 0.902817
vt 0.724503 0.876863
vt 0.738958 0.876863
vt 0.738958 0.900011
vt 0.724503 0.900011
vt 0.785476 0.891318
vt 0.785476 0.876863
vt 0.798161 0.876863
vt 0.798161 0.891318
vt 0.818485 0.876863
vt 0.818485 0.891318
vt 0.805800 0.891318
vt 0.805800 0.876863
vt 0.826124 0.876863
vt 0.839003 0.876863
vt 0.839003 0.891318
vt 0.826124 0.891318
vt 0.408556 0.883425
vt 0.421435 0.876863
vt 0.454247 0.941261
vt 0.441368 0.947823
vt 0.454637 0.957945
vt 0.466933 0.934797
vt 0.428682 0.954287
vt 0.506036 0.886984
vt 0.518915 0.893547
vt 0.486103 0.957945
vt 0.473223 0.951382
vt 0.519304 0.876863
vt 0.493350 0.880521
vt 0.531601 0.900011
vt 0.622883 0.941261
vt 0.622883 0.876863
vt 0.637338 0.876863
vt 0.637338 0.941261
vt 0.663531 0.941261
vt 0.663531 0.876863
vt 0.677986 0.876863
vt 0.677986 0.941261
vt 0.759282 0.900011
vt 0.744827 0.900011
vt 0.744827 0.876863
vt 0.759282 0.876863
vt 0.718634 0.902817
vt 0.704179 0.902817
vt 0.704179 0.876863
vt 0.718634 0.876863
vt 0.846448 0.891318
vt 0.846448 0.876863
vt 0.859134 0.876863
vt 0.859134 0.891318
vt 0.879458 0.876863
vt 0.879458 0.891318
vt 0.866772 0.891318
vt 0.866772 0.876863
vn 0.000000 0.000000 1.000000
vn 0.000000 0.000000 1.000000
vn 0.000000 0.000000 1.000000
vn 0.000000 0.000000 1.000000
vn 0.000000 1.000000 0.000000
vn 0.000000 1.000000 0.000000
vn 0.000000 1.000000 0.000000
vn 0.000000 1.000000 0.000000
vn 0.000000 0.000000 -1.000000
vn 0.000000 0.000000 -1.000000
vn 0.000000 0.000000 -1.000000
vn 0.000000 0.000000 -1.000000
vn 0.000000 -1.000000 0.000000
vn 0.000000 -1.000000 0.000000
vn 0.000000 -1.000000 0.000000
vn 0.000000 -1.000000 0.000000
vn 1.000000 0.000000 0.000000
vn 1.000000 0.000000 0.000000
vn 1.000000 0.000000 0.000000
vn 1.000000 0.000000 0.000000
vn -1.000000 0.000000 0.000000
vn -1.000000 0.000000 0.000000
vn -1.000000 0.000000 0.000000
vn -1.000000 0.000000 0.000000
vn -0.951057 0.000000 0.309017
vn -1.000000 0.000000 0.000000
vn -0.951057 0.000000 0.309017
vn -1.000000 0.000000 0.000000
vn -0.809017 0.000000 0.587785
vn -0.809017 0.000000 0.587785
vn -0.587785 0.000000 0.809017
vn -0.587785 0.000000 0.809017
vn -0.309017 0.000000 0.951057
vn -0.309017 0.000000 0.951057
vn 0.000000 0.000000 1.000000
vn 0.000000 0.000000 1.000000
vn 0.309017 0.000000 0.951057
vn 0.309017 0.000000 0.951057
vn 0.587785 0.000000 0.809017
vn 0.587785 0.000000 0.809017
vn 0.809017 0.000000 0.587785
vn 0.809017 0.000000 0.587785
vn 0.951057 0.000000 0.309017
vn 0.951057 0.000000 0.309017
vn 1.000000 0.000000 0.000000
vn 1.000000 0.000000 0.000000
vn 0.951057 0.000000 -0.309017
vn 0.951057 0.000000 -0.309017
vn 0.809017 0.000000 -0.587785
vn 0.809017 0.000000 -0.587785
vn 0.587785 0.000000 -0.809017
vn 0.587785 0.000000 -0.809017
vn 0.309017 0.000000 -0.951057
vn 0.309017 0.000000 -0.951057
vn -0.000000 0.000000 -1.000000
vn 0.000000 0.000000 -1.000000
vn -0.309017 0.000000 -0.951057
vn -0.309017 0.000000 -0.951057
vn -0.587785 0.000000 -0.809017
vn -0.587785 0.000000 -0.809017
vn -0.809017 0.000000 -0.587785
vn -0.809017 0.000000 -0.587785
vn -0.951057 0.000000 -0.309017
vn -0.951057 0.000000 -0.309017
vn 0.000000 1.000000 -0.000000
vn 0.000000 1.000000 0.000000
vn 0.000000 1.000000 0.000000
vn 0.000000 1.000000 0.000000
vn 0.000000 1.000000 -0.000000
vn 0.000000 1.000000 -0.000000
vn 0.000000 1.000000 0.000000
vn 0.000000 1.000000 0.000000
vn 0.000000 1.000000 -0.000000
vn 0.000000 1.000000 -0.000001
vn 0.000000 1.000000 -0.000000
vn 0.000000 1.000000 -0.000000
vn 0.000000 1.000000 -0.000000
vn 0.000000 1.000000 -0.000000
vn 0.000000 1.000000 0.000000
vn 0.000000 1.000000 0.000000
vn 0.000000 1.000000 0.000000
vn 0.000000 1.000000 0.000000
vn 0.000000 1.000000 0.000000
vn 0.000000 1.000000 0.000000
vn 0.000000 1.000000 -0.000000
vn 0.000000 1.000000 -0.000000
vn 0.000000 1.000000 0.000000
vn 0.000000 1.000000 -0.000000
vn 0.000000 1.000000 0.000000
vn 0.000000 1.000000 0.000000
vn 0.000000 1.000000 -0.000000
vn 0.000000 1.000000 0.000000
vn 0.000000 1.000000 -0.000000
vn 0.000000 1.000000 -0.000000
vn 0.000000 1.000000 0.000000
vn 0.000000 1.000000 0.000000
vn 0.000000 1.000000 0.000000
vn 0.000000 1.000000 0.000000
vn 0.000000 1.000000 0.000000
vn 0.000000 1.000000 -0.000000
vn 0.000000 1.000000 0.000000
vn 0.000000 1.000000 0.000000
vn 0.000000 1.000000 -0.000000
vn 0.000000 1.000000 -0.000000
vn 0.951057 0.000000 -0.309017
vn 1.000000 0.000000 -0.000001
vn 0.951057 0.000000 -0.309017
vn 1.000000 0.000000 -0.000001
vn 0.809017 0.000000 -0.587785
vn 0.809017 0.000000 -0.587785
vn 0.587785 0.000000 -0.809017
vn 0.587785 0.000000 -0.809017
vn 0.309017 0.000000 -0.951057
vn 0.309017 0.000000 -0.951057
vn 0.000000 0.000000 -1.000000
vn 0.000000 0.000000 -1.000000
vn -0.309017 0.000000 -0.951056
vn -0.309017 0.000000 -0.951056
vn -0.587785 0.000000 -0.809017
vn -0.587785 0.000000 -0.809017
vn -0.809017 0.000000 -0.587785
vn -0.809017 0.000000 -0.587785
vn -0.951056 0.000000 -0.309017
vn -0.951056 0.000000 -0.309017
vn -1.000000 0.000000 0.000000
vn -1.000000 0.000000 0.000000
vn -0.951056 0.000000 0.309017
vn -0.951057 0.000000 0.309017
vn -0.809017 0.000000 0.587785
vn -0.809017 0.000000 0.587785
vn -0.587785 0.000000 0.809017
vn -0.587785 0.000000 0.809017
vn -0.309017 0.000000 0.951057
vn -0.309016 0.000000 0.951057
vn -0.000000 0.000000 1.000000
vn 0.000000 0.000000 1.000000
vn 0.309017 0.000000 0.951056
vn 0.309017 0.000000 0.951056
vn 0.587785 0.000000 0.809017
vn 0.587785 0.000000 0.809017
vn 0.809017 0.000000 0.587785
vn 0.809017 0.000000 0.587785
vn 0.951057 0.000000 0.309016
vn 0.951057 0.000000 0.309016
vn 0.000000 -1.000000 0.000000
vn 0.000000 -1.000000 0.000000
vn 0.000000 -1.000000 0.000000
vn 0.000000 -1.000000 -0.000000
vn 0.000000 -1.000000 -0.000000
vn 0.000000 -1.000000 0.000000
vn 0.000000 -1.000000 -0.000000
vn 0.000000 -1.000000 0.000000
vn 0.000000 -1.000000 -0.000000
vn 0.000000 -1.000000 -0.000000
vn 0.000000 -1.000000 0.000000
vn 0.000000 -1.000000 0.000000
vn 0.000000 -1.000000 0.000000
vn 0.000000 -1.000000 0.000000
vn 0.000000 -1.000000 0.000000
vn 0.000000 -1.000000 0.000000
vn 0.000000 -1.000000 0.000000
vn 0.000000 -1.000000 0.000000
vn 0.000000 -1.000000 -0.000000
vn 0.000000 -1.000000 -0.000000
vn 0.000000 -1.000000 -0.000000
vn 0.000000 -1.000000 -0.000000
vn 0.000000 -1.000000 0.000000
vn 0.000000 -1.000000 0.000000
vn 0.000000 -1.000000 -0.000000
vn 0.000000 -1.000000 -0.000000
vn 0.000000 -1.000000 -0.000000
vn 0.000000 -1.000000 -0.000000
vn 0.000000 -1.000000 0.000000
vn 0.000000 -1.000000 -0.000000
vn 0.000000 -1.000000 -0.000000
vn 0.000000 -1.000000 -0.000000
vn 0.000000 -1.000000 -0.000000
vn 0.000000 -1.000000 -0.000000
vn 0.000000 -1.000000 -0.000000
vn 0.000000 -1.000000 -0.000000
vn 0.000000 -1.000000 0.000000
vn 0.000000 -1.000000 -0.000000
vn 0.000000 -1.000000 0.000000
vn 0.000000 -1.000000 0.000000
vn 0.453990 0.000000 0.891007
vn 0.453990 0.000000 0.891007
vn 0.453990 0.000000 0.891007
vn 0.453990 0.000000 0.891007
vn 0.000000 1.000000 0.000000
vn 0.000000 1.000000 0.000000
vn 0.000000 1.000000 -0.000000
vn 0.000000 1.000000 -0.000000
vn 0.000000 -1.000000 0.000000
vn 0.000000 -1.000000 -0.000000
vn 0.000000 -1.000000 -0.000000
vn 0.000000 -1.000000 -0.000000
vn 0.891007 0.000000 -0.453991
vn 0.891007 0.000000 -0.453991
vn 0.891007 0.000000 -0.453991
vn 0.891007 0.000000 -0.453991
vn -0.891007 0.000000 0.453991
vn -0.891007 0.000000 0.453991
vn -0.891007 0.000000 0.453991
vn -0.891007 0.000000 0.453991
vn 0.000000 1.000000 -0.000000
vn 0.139556 0.000000 -0.990214
vn 0.139556 0.000000 -0.990214
vn -0.453991 0.000000 -0.891006
vn -0.453991 0.000000 -0.891006
vn 0.000000 -1.000000 0.000000
vn -0.883129 0.000000 -0.469130
vn -0.883129 0.000000 -0.469130
vn 0.453990 0.000000 0.891007
vn 0.453990 0.000000 0.891007
vn 0.453990 0.000000 0.891007
vn 0.453991 0.000000 0.891006
vn 0.000000 -1.000000 0.000000
vn 0.000000 1.000000 0.000000
vn 0.453991 0.000000 0.891007
vn 0.453991 0.000000 0.891006
vn 0.453991 0.000000 0.891006
vn 0.453991 0.000000 0.891006
vn 0.000000 1.000000 0.000000
vn 0.000000 -1.000000 0.000000
vn -0.453991 0.000000 0.891006
vn -0.453991 0.000000 0.891006
vn -0.453991 0.000000 0.891006
vn -0.453991 0.000000 0.891007
vn 0.000000 1.000000 -0.000000
vn 0.000000 1.000000 -0.000000
vn 0.000000 1.000000 -0.000000
vn 0.000000 1.000000 0.000000
vn 0.000000 -1.000000 0.000000
vn 0.000000 -1.000000 0.000000
vn 0.000000 -1.000000 -0.000000
vn 0.000000 -1.000000 -0.000000
vn 0.891007 0.000000 0.453991
vn 0.891007 0.000000 0.453991
vn 0.891007 0.000000 0.453991
vn 0.891007 0.000000 0.453991
vn -0.891007 0.000000 -0.453991
vn -0.891007 0.000000 -0.453991
vn -0.891007 0.000000 -0.453991
vn -0.891007 0.000000 -0.453991
vn 0.000000 1.000000 0.000000
vn 0.883129 0.000000 -0.469130
vn 0.883129 0.000000 -0.469130
vn 0.453990 0.000000 -0.891007
vn 0.453990 0.000000 -0.891007
vn 0.000000 -1.000000 -0.000000
vn -0.139556 0.000000 -0.990214
vn -0.139556 0.000000 -0.990214
vn -0.453990 0.000000 0.891007
vn -0.453991 0.000000 0.891006
vn -0.453991 0.000000 0.891006
vn -0.453991 0.000000 0.891006
vn 0.000000 -1.000000 0.000000
vn 0.000000 1.000000 0.000000
vn -0.453991 0.000000 0.891006
vn -0.453991 0.000000 0.891007
vn -0.453990 0.000000 0.891007
vn -0.453990 0.000000 0.891007
vn 0.000000 1.000000 -0.000001
vn 0.000000 -1.000000 0.000000
g ammoscatter
usemtl initialShadingGroup
f 1/1/1 2/2/2 3/4/3
f 3/4/3 2/2/2 4/3/4
f 3/5/5 4/6/6 5/8/7
f 5/8/7 4/6/6 6/7/8
f 5/9/9 6/10/10 7/12/11
f 7/12/11 6/10/10 8/11/12
f 7/13/13 8/14/14 1/16/15
f 1/16/15 8/14/14 2/15/16
f 2/17/17 8/18/18 4/20/19
f 4/20/19 8/18/18 6/19/20
f 7/21/21 1/22/22 5/24/23
f 5/24/23 1/22/22 3/23/24
f 10/25/25 9/26/26 30/28/27
f 30/28/27 9/26/26 29/27/28
f 11/31/29 10/25/25 31/32/30
f 31/32/30 10/25/25 30/28/27
f 12/35/31 11/31/29 32/36/32
f 32/36/32 11/31/29 31/32/30
f 13/39/33 12/40/31 33/42/34
f 33/42/34 12/40/31 32/41/32
f 14/43/35 13/39/33 34/44/36
f 34/44/36 13/39/33 33/42/34
f 15/45/37 14/43/35 35/46/38
f 35/46/38 14/43/35 34/44/36
f 16/47/39 15/45/37 36/48/40
f 36/48/40 15/45/37 35/46/38
f 17/49/41 16/47/39 37/50/42
f 37/50/42 16/47/39 36/48/40
f 18/51/43 17/52/41 38/54/44
f 38/54/44 17/52/41 37/53/42
f 19/55/45 18/51/43 39/56/46
f 39/56/46 18/51/43 38/54/44
f 20/57/47 19/55/45 40/58/48
f 40/58/48 19/55/45 39/56/46
f 21/59/49 20/57/47 41/60/50
f 41/60/50 20/57/47 40/58/48
f 22/61/51 21/59/49 42/62/52
f 42/62/52 21/59/49 41/60/50
f 23/63/53 22/64/51 43/66/54
f 43/66/54 22/64/51 42/65/52
f 24/67/55 23/63/53 44/68/56
f 44/68/56 23/63/53 43/66/54
f 25/69/57 24/67/55 45/70/58
f 45/70/58 24/67/55 44/68/56
f 26/71/59 25/69/57 46/72/60
f 46/72/60 25/69/57 45/70/58
f 27/33/61 26/37/59 47/34/62
f 47/34/62 26/37/59 46/38/60
f 28/29/63 27/33/61 48/30/64
f 48/30/64 27/33/61 47/34/62
f 9/26/26 28/29/63 29/27/28
f 29/27/28 28/29/63 48/30/64
f 30/73/65 29/74/66 50/76/67
f 50/76/67 29/74/66 49/75/68
f 31/79/69 30/73/65 51/80/70
f 51/80/70 30/73/65 50/76/67
f 32/83/71 31/79/69 52/84/72
f 52/84/72 31/79/69 51/80/70
f 33/87/73 32/83/71 53/88/74
f 53/88/74 32/83/71 52/84/72
f 34/91/75 33/87/73 54/92/76
f 54/92/76 33/87/73 53/88/74
f 35/95/77 34/91/75 55/96/78
f 55/96/78 34/91/75 54/92/76
f 36/99/79 35/95/77 56/100/80
f 56/100/80 35/95/77 55/96/78
f 37/103/81 36/99/79 57/104/82
f 57/104/82 36/99/79 56/100/80
f 38/107/83 37/103/81 58/108/84
f 58/108/84 37/103/81 57/104/82
f 39/111/85 38/107/83 59/112/86
f 59/112/86 38/107/83 58/108/84
f 40/109/87 39/111/85 60/110/88
f 60/110/88 39/111/85 59/112/86
f 41/105/89 40/109/87 61/106/90
f 61/106/90 40/109/87 60/110/88
f 42/101/91 41/105/89 62/102/92
f 62/102/92 41/105/89 61/106/90
f 43/97/93 42/101/91 63/98/94
f 63/98/94 42/101/91 62/102/92
f 44/93/95 43/97/93 64/94/96
f 64/94/96 43/97/93 63/98/94
f 45/89/97 44/93/95 65/90/98
f 65/90/98 44/93/95 64/94/96
f 46/85/99 45/89/97 66/86/100
f 66/86/100 45/89/97 65/90/98
f 47/81/101 46/85/99 67/82/102
f 67/82/102 46/85/99 66/86/100
f 48/77/103 47/81/101 68/78/104
f 68/78/104 47/81/101 67/82/102
f 29/74/66 48/77/103 49/75/68
f 49/75/68 48/77/103 68/78/104
f 50/113/105 49/114/106 70/116/107
f 70/116/107 49/114/106 69/115/108
f 51/119/109 50/113/105 71/120/110
f 71/120/110 50/113/105 70/116/107
f 52/123/111 51/119/109 72/124/112
f 72/124/112 51/119/109 71/120/110
f 53/127/113 52/128/111 73/130/114
f 73/130/114 52/128/111 72/129/112
f 54/131/115 53/127/113 74/132/116
f 74/132/116 53/127/113 73/130/114
f 55/133/117 54/131/115 75/134/118
f 75/134/118 54/131/115 74/132/116
f 56/135/119 55/133/117 76/136/120
f 76/136/120 55/133/117 75/134/118
f 57/137/121 56/135/119 77/138/122
f 77/138/122 56/135/119 76/136/120
f 58/139/123 57/140/121 78/142/124
f 78/142/124 57/140/121 77/141/122
f 59/143/125 58/139/123 79/144/126
f 79/144/126 58/139/123 78/142/124
f 60/145/127 59/143/125 80/146/128
f 80/146/128 59/143/125 79/144/126
f 61/147/129 60/145/127 81/148/130
f 81/148/130 60/145/127 80/146/128
f 62/149/131 61/147/129 82/150/132
f 82/150/132 61/147/129 81/148/130
f 63/151/133 62/152/131 83/154/134
f 83/154/134 62/152/131 82/153/132
f 64/155/135 63/151/133 84/156/136
f 84/156/136 63/151/133 83/154/134
f 65/157/137 64/155/135 85/158/138
f 85/158/138 64/155/135 84/156/136
f 66/159/139 65/157/137 86/160/140
f 86/160/140 65/157/137 85/158/138
f 67/121/141 66/125/139 87/122/142
f 87/122/142 66/125/139 86/126/140
f 68/117/143 67/121/141 88/118/144
f 88/118/144 67/121/141 87/122/142
f 49/114/106 68/117/143 69/115/108
f 69/115/108 68/117/143 88/118/144
f 70/161/145 69/162/146 10/164/147
f 10/164/147 69/162/146 9/163/148
f 71/167/149 70/161/145 11/168/150
f 11/168/150 70/161/145 10/164/147
f 72/171/151 71/167/149 12/172/152
f 12/172/152 71/167/149 11/168/150
f 73/175/153 72/171/151 13/176/154
f 13/176/154 72/171/151 12/172/152
f 74/179/155 73/175/153 14/180/156
f 14/180/156 73/175/153 13/176/154
f 75/183/157 74/179/155 15/184/158
f 15/184/158 74/179/155 14/180/156
f 76/187/159 75/183/157 16/188/160
f 16/188/160 75/183/157 15/184/158
f 77/191/161 76/187/159 17/192/162
f 17/192/162 76/187/159 16/188/160
f 78/195/163 77/191/161 18/196/164
f 18/196/164 77/191/161 17/192/162
f 79/199/165 78/195/163 19/200/166
f 19/200/166 78/195/163 18/196/164
f 80/197/167 79/199/165 20/198/168
f 20/198/168 79/199/165 19/200/166
f 81/193/169 80/197/167 21/194/170
f 21/194/170 80/197/167 20/198/168
f 82/189/171 81/193/169 22/190/172
f 22/190/172 81/193/169 21/194/170
f 83/185/173 82/189/171 23/186/174
f 23/186/174 82/189/171 22/190/172
f 84/181/175 83/185/173 24/182/176
f 24/182/176 83/185/173 23/186/174
f 85/177/177 84/181/175 25/178/178
f 25/178/178 84/181/175 24/182/176
f 86/173/179 85/177/177 26/174/180
f 26/174/180 85/177/177 25/178/178
f 87/169/181 86/173/179 27/170/182
f 27/170/182 86/173/179 26/174/180
f 88/165/183 87/169/181 28/166/184
f 28/166/184 87/169/181 27/170/182
f 69/162/146 88/165/183 9/163/148
f 9/163/148 88/165/183 28/166/184
f 89/201/185 90/202/186 91/204/187
f 91/204/187 90/202/186 92/203/188
f 91/205/189 92/206/190 93/208/191
f 93/208/191 92/206/190 94/207/192
f 95/212/193 96/213/194 89/215/195
f 89/215/195 96/213/194 90/214/196
f 90/219/197 96/220/198 92/222/199
f 92/222/199 96/220/198 94/221/200
f 95/223/201 89/224/202 93/226/203
f 93/226/203 89/224/202 91/225/204
f 93/208/191 94/207/192 97/209/205
f 99/227/206 100/228/207 97/230/208
f 97/230/208 100/228/207 98/229/209
f 96/213/194 95/212/193 98/216/210
f 102/231/211 101/232/212 98/234/209
f 98/234/209 101/232/212 97/233/208
f 94/235/213 96/236/214 99/238/215
f 99/238/215 96/236/214 100/237/216
f 96/213/194 98/216/210 100/218/217
f 97/209/205 94/207/192 99/210/218
f 95/239/219 93/240/220 102/242/221
f 102/242/221 93/240/220 101/241/222
f 93/208/191 97/209/205 101/211/223
f 98/216/210 95/212/193 102/217/224
f 103/243/225 104/244/226 105/246/227
f 105/246/227 104/244/226 106/245/228
f 105/247/229 106/248/230 107/250/231
f 107/250/231 106/248/230 108/249/232
f 109/254/233 110/255/234 103/257/235
f 103/257/235 110/255/234 104/256/236
f 104/261/237 110/262/238 106/264/239
f 106/264/239 110/262/238 108/263/240
f 109/265/241 103/266/242 107/268/243
f 107/268/243 103/266/242 105/267/244
f 107/250/231 108/249/232 111/251/245
f 113/269/246 114/270/247 111/272/248
f 111/272/248 114/270/247 112/271/249
f 110/255/234 109/254/233 112/258/250
f 116/273/251 115/274/252 112/276/249
f 112/276/249 115/274/252 111/275/248
f 108/277/253 110/278/254 113/280/255
f 113/280/255 110/278/254 114/279/256
f 110/255/234 112/258/250 114/260/257
f 111/251/245 108/249/232 113/252/258
f 109/281/259 107/282/260 116/284/261
f 116/284/261 107/282/260 115/283/262
f 107/250/231 111/251/245 115/253/263
f 112/258/250 109/254/233 116/259/264
