# This file uses centimeters as units for non-parametric coordinates.

v -0.150000 -0.050000 0.150000
v 0.150000 -0.050000 0.150000
v -0.150000 0.050000 0.150000
v 0.150000 0.050000 0.150000
v -0.150000 0.050000 -0.150000
v 0.150000 0.050000 -0.150000
v -0.150000 -0.050000 -0.150000
v 0.150000 -0.050000 -0.150000
vt 0.001809 0.498188
vt 0.001809 0.001992
vt 0.167207 0.001992
vt 0.167207 0.498188
vt 0.173616 0.001992
vt 0.669812 0.001992
vt 0.669812 0.498188
vt 0.173616 0.498188
vt 0.676122 0.498188
vt 0.676122 0.001992
vt 0.841521 0.001992
vt 0.841521 0.498188
vt 0.409861 0.501812
vt 0.906057 0.501812
vt 0.906057 0.998008
vt 0.409861 0.998008
vt 0.238892 0.998008
vt 0.238892 0.501812
vt 0.404291 0.501812
vt 0.404291 0.998008
vt 0.067923 0.998008
vt 0.067923 0.501812
vt 0.233322 0.501812
vt 0.233322 0.998008
vn 0.000000 0.000000 1.000000
vn 0.000000 0.000000 1.000000
vn 0.000000 0.000000 1.000000
vn 0.000000 0.000000 1.000000
vn 0.000000 1.000000 0.000000
vn 0.000000 1.000000 0.000000
vn 0.000000 1.000000 0.000000
vn 0.000000 1.000000 0.000000
vn 0.000000 0.000000 -1.000000
vn 0.000000 0.000000 -1.000000
vn 0.000000 0.000000 -1.000000
vn 0.000000 0.000000 -1.000000
vn 0.000000 -1.000000 0.000000
vn 0.000000 -1.000000 0.000000
vn 0.000000 -1.000000 0.000000
vn 0.000000 -1.000000 0.000000
vn 1.000000 0.000000 0.000000
vn 1.000000 0.000000 0.000000
vn 1.000000 0.000000 0.000000
vn 1.000000 0.000000 0.000000
vn -1.000000 0.000000 0.000000
vn -1.000000 0.000000 0.000000
vn -1.000000 0.000000 0.000000
vn -1.000000 0.000000 0.000000
g pCube1
f 1/1/1 2/2/2 4/3/3 3/4/4
f 3/5/5 4/6/6 6/7/7 5/8/8
f 5/9/9 6/10/10 8/11/11 7/12/12
f 7/13/13 8/14/14 2/15/15 1/16/16
f 2/17/17 8/18/18 6/19/19 4/20/20
f 7/21/21 1/22/22 3/23/23 5/24/24
