# This file uses centimeters as units for non-parametric coordinates.

mtllib healthpack.mtl
v -0.150000 -0.050000 0.150000
v -0.050000 -0.050000 0.150000
v 0.050000 -0.050000 0.150000
v 0.150000 -0.050000 0.150000
v -0.150000 0.050000 0.150000
v -0.050000 0.050000 0.150000
v 0.050000 0.050000 0.150000
v 0.150000 0.050000 0.150000
v -0.150000 0.050000 0.050000
v -0.050000 0.050000 0.050000
v 0.050000 0.050000 0.050000
v 0.150000 0.050000 0.050000
v -0.150000 0.050000 -0.050000
v -0.050000 0.050000 -0.050000
v 0.050000 0.050000 -0.050000
v 0.150000 0.050000 -0.050000
v -0.150000 0.050000 -0.150000
v -0.050000 0.050000 -0.150000
v 0.050000 0.050000 -0.150000
v 0.150000 0.050000 -0.150000
v -0.150000 -0.050000 -0.150000
v -0.050000 -0.050000 -0.150000
v 0.050000 -0.050000 -0.150000
v 0.150000 -0.050000 -0.150000
v -0.150000 -0.050000 -0.050000
v -0.050000 -0.050000 -0.050000
v 0.050000 -0.050000 -0.050000
v 0.150000 -0.050000 -0.050000
v -0.150000 -0.050000 0.050000
v -0.050000 -0.050000 0.050000
v 0.050000 -0.050000 0.050000
v 0.150000 -0.050000 0.050000
v -0.050000 0.060000 0.150000
v 0.050000 0.060000 0.150000
v -0.050000 0.060000 0.050000
v 0.050000 0.060000 0.050000
v -0.150000 0.060000 0.050000
v -0.150000 0.060000 -0.050000
v -0.050000 0.060000 -0.050000
v 0.050000 0.060000 -0.050000
v 0.150000 0.060000 0.050000
v 0.150000 0.060000 -0.050000
v -0.050000 0.060000 -0.150000
v 0.050000 0.060000 -0.150000
vt 0.001837 0.425702
vt 0.001837 0.284465
vt 0.143073 0.425702
vt 0.143073 0.284465
vt 0.001837 0.143229
vt 0.143073 0.143229
vt 0.001837 0.001992
vt 0.157197 0.284465
vt 0.143073 0.001992
vt 0.157197 0.143229
vt 0.027509 0.429382
vt 0.168746 0.429382
vt 0.027509 0.570618
vt 0.168746 0.570618
vt 0.304974 0.001992
vt 0.446210 0.001992
vt 0.304974 0.143229
vt 0.446210 0.143229
vt 0.304974 0.284465
vt 0.446210 0.284465
vt 0.163737 0.284465
vt 0.587447 0.143229
vt 0.304974 0.425702
vt 0.163737 0.143229
vt 0.587447 0.284465
vt 0.446210 0.425702
vt 0.001837 0.574298
vt 0.143073 0.574298
vt 0.001837 0.715535
vt 0.143073 0.715535
vt 0.149362 0.856771
vt 0.290599 0.856771
vt 0.149362 0.998008
vt 0.290599 0.998008
vt 0.296708 0.856771
vt 0.437944 0.856771
vt 0.296708 0.998008
vt 0.437944 0.998008
vt 0.607320 0.425702
vt 0.607320 0.284465
vt 0.748557 0.425702
vt 0.748557 0.284465
vt 0.607320 0.143229
vt 0.593196 0.143229
vt 0.748557 0.143229
vt 0.593196 0.284465
vt 0.607320 0.001992
vt 0.748557 0.001992
vt 0.496436 0.429382
vt 0.637673 0.429382
vt 0.496436 0.570618
vt 0.637673 0.570618
vt 0.778909 0.429382
vt 0.496436 0.711855
vt 0.778909 0.570618
vt 0.637673 0.711855
vt 0.920146 0.429382
vt 0.496436 0.853091
vt 0.920146 0.570618
vt 0.778909 0.711855
vt 0.637673 0.853091
vt 0.920146 0.711855
vt 0.778909 0.853091
vt 0.920146 0.853091
vt 0.335419 0.570618
vt 0.335419 0.429382
vt 0.476656 0.570618
vt 0.476656 0.429382
vt 0.476656 0.711855
vt 0.335419 0.711855
vt 0.490779 0.711855
vt 0.476656 0.853091
vt 0.490779 0.570618
vt 0.335419 0.853091
vt 0.174402 0.853091
vt 0.174402 0.711855
vt 0.315639 0.853091
vt 0.315639 0.711855
vt 0.174402 0.570618
vt 0.315639 0.570618
vt 0.174402 0.429382
vt 0.329763 0.711855
vt 0.315639 0.429382
vt 0.329763 0.570618
vt 0.530305 0.998008
vt 0.530305 0.856771
vt 0.544428 0.998008
vt 0.544428 0.856771
vt 0.444054 0.998008
vt 0.444054 0.856771
vt 0.458177 0.998008
vt 0.458177 0.856771
vt 0.551868 0.998008
vt 0.551868 0.856771
vt 0.565991 0.998008
vt 0.565991 0.856771
vt 0.587554 0.856771
vt 0.587554 0.998008
vt 0.573430 0.856771
vt 0.573430 0.998008
vt 0.465616 0.998008
vt 0.465616 0.856771
vt 0.479740 0.998008
vt 0.479740 0.856771
vt 0.609117 0.856771
vt 0.609117 0.998008
vt 0.594993 0.856771
vt 0.594993 0.998008
vt 0.487179 0.998008
vt 0.487179 0.856771
vt 0.501303 0.998008
vt 0.501303 0.856771
vt 0.508742 0.998008
vt 0.508742 0.856771
vt 0.522866 0.998008
vt 0.522866 0.856771
vn 0.000000 0.000000 1.000000
vn 0.000000 0.000000 1.000000
vn 0.000000 0.000000 1.000000
vn 0.000000 0.000000 1.000000
vn 0.000000 0.000000 1.000000
vn 0.000000 0.000000 1.000000
vn 0.000000 0.000000 1.000000
vn 0.000000 0.000000 1.000000
vn 0.000000 1.000000 0.000000
vn 0.000000 1.000000 0.000000
vn 0.000000 1.000000 0.000000
vn 0.000000 1.000000 0.000000
vn 0.000000 1.000000 0.000000
vn 0.000000 1.000000 0.000000
vn 0.000000 1.000000 0.000000
vn 0.000000 1.000000 0.000000
vn 0.000000 1.000000 0.000000
vn 0.000000 1.000000 0.000000
vn 0.000000 1.000000 0.000000
vn 0.000000 1.000000 0.000000
vn 0.000000 1.000000 0.000000
vn 0.000000 1.000000 0.000000
vn 0.000000 1.000000 0.000000
vn 0.000000 1.000000 0.000000
vn 0.000000 1.000000 0.000000
vn 0.000000 1.000000 0.000000
vn 0.000000 1.000000 0.000000
vn 0.000000 1.000000 0.000000
vn 0.000000 1.000000 0.000000
vn 0.000000 1.000000 0.000000
vn 0.000000 1.000000 0.000000
vn 0.000000 1.000000 0.000000
vn 0.000000 1.000000 0.000000
vn 0.000000 1.000000 0.000000
vn 0.000000 1.000000 0.000000
vn 0.000000 1.000000 0.000000
vn 0.000000 0.000000 -1.000000
vn 0.000000 0.000000 -1.000000
vn 0.000000 0.000000 -1.000000
vn 0.000000 0.000000 -1.000000
vn 0.000000 0.000000 -1.000000
vn 0.000000 0.000000 -1.000000
vn 0.000000 0.000000 -1.000000
vn 0.000000 0.000000 -1.000000
vn 0.000000 -1.000000 0.000000
vn 0.000000 -1.000000 0.000000
vn 0.000000 -1.000000 0.000000
vn 0.000000 -1.000000 0.000000
vn 0.000000 -1.000000 0.000000
vn 0.000000 -1.000000 0.000000
vn 0.000000 -1.000000 0.000000
vn 0.000000 -1.000000 0.000000
vn 0.000000 -1.000000 0.000000
vn 0.000000 -1.000000 0.000000
vn 0.000000 -1.000000 0.000000
vn 0.000000 -1.000000 0.000000
vn 0.000000 -1.000000 0.000000
vn 0.000000 -1.000000 0.000000
vn 0.000000 -1.000000 0.000000
vn 0.000000 -1.000000 0.000000
vn 1.000000 0.000000 0.000000
vn 1.000000 0.000000 0.000000
vn 1.000000 0.000000 0.000000
vn 1.000000 0.000000 0.000000
vn 1.000000 0.000000 0.000000
vn 1.000000 0.000000 0.000000
vn 1.000000 0.000000 0.000000
vn 1.000000 0.000000 0.000000
vn -1.000000 0.000000 0.000000
vn -1.000000 -0.000000 0.000000
vn -1.000000 0.000000 0.000000
vn -1.000000 -0.000000 0.000000
vn -1.000000 -0.000000 0.000000
vn -1.000000 -0.000000 0.000000
vn -1.000000 -0.000000 0.000000
vn -1.000000 0.000000 0.000000
vn 0.000000 0.000000 1.000000
vn 0.000000 0.000000 1.000000
vn -1.000000 0.000000 0.000000
vn -1.000000 0.000000 0.000000
vn -1.000000 0.000000 0.000000
vn -1.000000 0.000000 0.000000
vn 1.000000 0.000000 0.000000
vn 1.000000 0.000000 0.000000
vn 1.000000 0.000000 0.000000
vn 1.000000 0.000000 0.000000
vn 0.000000 0.000000 1.000000
vn 0.000000 0.000000 1.000000
vn 0.000000 0.000000 1.000000
vn 0.000000 0.000000 1.000000
vn -1.000000 0.000000 0.000000
vn -1.000000 0.000000 0.000000
vn 0.000000 0.000000 -1.000000
vn 0.000000 0.000000 -1.000000
vn 0.000000 0.000000 -1.000000
vn 0.000000 0.000000 -1.000000
vn 0.000000 0.000000 1.000000
vn 0.000000 0.000000 1.000000
vn 0.000000 0.000000 1.000000
vn 0.000000 0.000000 1.000000
vn 1.000000 0.000000 0.000000
vn 1.000000 0.000000 0.000000
vn 0.000000 0.000000 -1.000000
vn 0.000000 0.000000 -1.000000
vn 0.000000 0.000000 -1.000000
vn 0.000000 0.000000 -1.000000
vn -1.000000 0.000000 0.000000
vn -1.000000 0.000000 0.000000
vn -1.000000 0.000000 0.000000
vn -1.000000 0.000000 0.000000
vn 1.000000 0.000000 0.000000
vn 1.000000 0.000000 0.000000
vn 1.000000 0.000000 0.000000
vn 1.000000 0.000000 0.000000
vn 0.000000 0.000000 -1.000000
vn 0.000000 0.000000 -1.000000
g healthpack
usemtl initialShadingGroup
f 1/1/1 2/2/2 5/3/3
f 5/3/3 2/2/2 6/4/4
f 2/2/2 3/5/5 6/4/4
f 6/4/4 3/5/5 7/6/6
f 3/5/5 4/7/7 7/6/6
f 7/6/6 4/7/7 8/9/8
f 5/11/9 6/12/10 9/13/11
f 9/13/11 6/12/10 10/14/12
f 33/15/13 34/16/14 35/17/15
f 35/17/15 34/16/14 36/18/16
f 7/27/17 8/28/18 11/29/19
f 11/29/19 8/28/18 12/30/20
f 37/24/21 35/17/15 38/21/22
f 38/21/22 35/17/15 39/19/23
f 35/17/15 36/18/16 39/19/23
f 39/19/23 36/18/16 40/20/24
f 36/18/16 41/22/25 40/20/24
f 40/20/24 41/22/25 42/25/26
f 13/31/27 14/32/28 17/33/29
f 17/33/29 14/32/28 18/34/30
f 39/19/23 40/20/24 43/23/31
f 43/23/31 40/20/24 44/26/32
f 15/35/33 16/36/34 19/37/35
f 19/37/35 16/36/34 20/38/36
f 17/39/37 18/40/38 21/41/39
f 21/41/39 18/40/38 22/42/40
f 18/40/38 19/43/41 22/42/40
f 22/42/40 19/43/41 23/45/42
f 19/43/41 20/47/43 23/45/42
f 23/45/42 20/47/43 24/48/44
f 21/49/45 22/50/46 25/51/47
f 25/51/47 22/50/46 26/52/48
f 22/50/46 23/53/49 26/52/48
f 26/52/48 23/53/49 27/55/50
f 23/53/49 24/57/51 27/55/50
f 27/55/50 24/57/51 28/59/52
f 25/51/47 26/52/48 29/54/53
f 29/54/53 26/52/48 30/56/54
f 26/52/48 27/55/50 30/56/54
f 30/56/54 27/55/50 31/60/55
f 27/55/50 28/59/52 31/60/55
f 31/60/55 28/59/52 32/62/56
f 29/54/53 30/56/54 1/58/57
f 1/58/57 30/56/54 2/61/58
f 30/56/54 31/60/55 2/61/58
f 2/61/58 31/60/55 3/63/59
f 31/60/55 32/62/56 3/63/59
f 3/63/59 32/62/56 4/64/60
f 28/65/61 24/66/62 16/67/63
f 16/67/63 24/66/62 20/68/64
f 32/70/65 28/65/61 12/69/66
f 12/69/66 28/65/61 16/67/63
f 4/74/67 32/70/65 8/72/68
f 8/72/68 32/70/65 12/69/66
f 21/75/69 25/76/70 17/77/71
f 17/77/71 25/76/70 13/78/72
f 25/76/70 29/79/73 13/78/72
f 13/78/72 29/79/73 9/80/74
f 29/79/73 1/81/75 9/80/74
f 9/80/74 1/81/75 5/83/76
f 6/4/4 7/6/6 33/8/77
f 33/8/77 7/6/6 34/10/78
f 10/85/79 6/86/80 35/87/81
f 35/87/81 6/86/80 33/88/82
f 7/89/83 11/90/84 34/91/85
f 34/91/85 11/90/84 36/92/86
f 9/93/87 10/94/88 37/95/89
f 37/95/89 10/94/88 35/96/90
f 13/78/72 9/80/74 38/82/91
f 38/82/91 9/80/74 37/84/92
f 14/97/93 13/98/94 39/99/95
f 39/99/95 13/98/94 38/100/96
f 11/101/97 12/102/98 36/103/99
f 36/103/99 12/102/98 41/104/100
f 12/69/66 16/67/63 41/71/101
f 41/71/101 16/67/63 42/73/102
f 16/105/103 15/106/104 42/107/105
f 42/107/105 15/106/104 40/108/106
f 18/109/107 14/110/108 43/111/109
f 43/111/109 14/110/108 39/112/110
f 15/113/111 19/114/112 40/115/113
f 40/115/113 19/114/112 44/116/114
f 19/43/41 18/40/38 44/44/115
f 44/44/115 18/40/38 43/46/116
