# This file uses centimeters as units for non-parametric coordinates.

mtllib projectile.mtl
g default
v -0.035665 -0.011588 -0.135000
v -0.030338 -0.022042 -0.135000
v -0.022042 -0.030338 -0.135000
v -0.011588 -0.035665 -0.135000
v 0.000000 -0.037500 -0.135000
v 0.011588 -0.035665 -0.135000
v 0.022042 -0.030338 -0.135000
v 0.030338 -0.022042 -0.135000
v 0.035665 -0.011588 -0.135000
v 0.037500 -0.000000 -0.135000
v 0.035665 0.011588 -0.135000
v 0.030338 0.022042 -0.135000
v 0.022042 0.030338 -0.135000
v 0.011588 0.035665 -0.135000
v 0.000000 0.037500 -0.135000
v -0.011588 0.035665 -0.135000
v -0.022042 0.030338 -0.135000
v -0.030338 0.022042 -0.135000
v -0.035665 0.011588 -0.135000
v -0.037500 -0.000000 -0.135000
v 0.000000 -0.000000 -0.135000
v -0.000000 0.000000 0.135000
vt 0.737764 0.172746
vt 0.702254 0.103054
vt 0.646946 0.047746
vt 0.577254 0.012236
vt 0.500000 -0.000000
vt 0.422746 0.012236
vt 0.353054 0.047746
vt 0.297746 0.103054
vt 0.262236 0.172746
vt 0.250000 0.250000
vt 0.262236 0.327254
vt 0.297746 0.396946
vt 0.353054 0.452254
vt 0.422746 0.487764
vt 0.500000 0.500000
vt 0.577254 0.487764
vt 0.646946 0.452254
vt 0.702254 0.396946
vt 0.737764 0.327254
vt 0.750000 0.250000
vt 0.250000 0.500000
vt 0.275000 0.500000
vt 0.300000 0.500000
vt 0.325000 0.500000
vt 0.350000 0.500000
vt 0.375000 0.500000
vt 0.400000 0.500000
vt 0.425000 0.500000
vt 0.450000 0.500000
vt 0.475000 0.500000
vt 0.500000 0.500000
vt 0.525000 0.500000
vt 0.550000 0.500000
vt 0.575000 0.500000
vt 0.600000 0.500000
vt 0.625000 0.500000
vt 0.650000 0.500000
vt 0.675000 0.500000
vt 0.700000 0.500000
vt 0.725000 0.500000
vt 0.750000 0.500000
vt 0.500000 0.250000
vt 0.500000 1.000000
vn 0.000000 0.000000 -1.000000
vn 0.000000 0.000000 -1.000000
vn -0.000000 0.000000 -1.000000
vn -0.000001 0.000000 -1.000000
vn -0.000001 0.000000 -1.000000
vn 0.000001 0.000000 -1.000000
vn 0.000001 0.000000 -1.000000
vn 0.000000 0.000000 -1.000000
vn 0.000000 0.000000 -1.000000
vn 0.000000 0.000000 -1.000000
vn 0.000000 0.000000 -1.000000
vn 0.000000 0.000000 -1.000000
vn 0.000000 0.000000 -1.000000
vn 0.000000 0.000000 -1.000000
vn 0.000000 0.000000 -1.000000
vn 0.000000 0.000000 -1.000000
vn 0.000000 0.000000 -1.000000
vn 0.000000 0.000000 -1.000000
vn 0.000000 0.000000 -1.000000
vn 0.000000 0.000000 -1.000000
vn 0.000000 0.000000 -1.000000
vn -0.942014 -0.306078 0.137568
vn -0.801325 -0.582197 0.137568
vn 0.000037 0.000115 1.000000
vn -0.582197 -0.801325 0.137568
vn -0.306079 -0.942014 0.137568
vn 0.000000 -0.990492 0.137568
vn 0.306079 -0.942014 0.137568
vn 0.582197 -0.801325 0.137568
vn 0.801325 -0.582197 0.137568
vn 0.942014 -0.306079 0.137568
vn 0.990492 0.000000 0.137568
vn 0.942014 0.306079 0.137568
vn 0.801325 0.582197 0.137568
vn 0.582197 0.801325 0.137568
vn 0.306079 0.942014 0.137568
vn -0.000000 0.990492 0.137568
vn -0.306079 0.942014 0.137568
vn -0.582197 0.801325 0.137568
vn -0.801325 0.582197 0.137568
vn -0.942014 0.306079 0.137568
vn -0.990492 0.000001 0.137568
s 1
g pCone1
usemtl initialShadingGroup
f 2/2/1 1/1/2 21/42/3
f 3/3/4 2/2/1 21/42/3
f 4/4/5 3/3/4 21/42/3
f 5/5/6 4/4/5 21/42/3
f 6/6/7 5/5/6 21/42/3
f 7/7/8 6/6/7 21/42/3
f 8/8/9 7/7/8 21/42/3
f 9/9/10 8/8/9 21/42/3
f 10/10/11 9/9/10 21/42/3
f 11/11/12 10/10/11 21/42/3
f 12/12/13 11/11/12 21/42/3
f 13/13/14 12/12/13 21/42/3
f 14/14/15 13/13/14 21/42/3
f 15/15/16 14/14/15 21/42/3
f 16/16/17 15/15/16 21/42/3
f 17/17/18 16/16/17 21/42/3
f 18/18/19 17/17/18 21/42/3
f 19/19/20 18/18/19 21/42/3
f 20/20/21 19/19/20 21/42/3
f 1/1/2 20/20/21 21/42/3
s 2
f 1/21/22 2/22/23 22/43/24
f 2/22/23 3/23/25 22/43/24
f 3/23/25 4/24/26 22/43/24
f 4/24/26 5/25/27 22/43/24
f 5/25/27 6/26/28 22/43/24
f 6/26/28 7/27/29 22/43/24
f 7/27/29 8/28/30 22/43/24
f 8/28/30 9/29/31 22/43/24
f 9/29/31 10/30/32 22/43/24
f 10/30/32 11/31/33 22/43/24
f 11/31/33 12/32/34 22/43/24
f 12/32/34 13/33/35 22/43/24
f 13/33/35 14/34/36 22/43/24
f 14/34/36 15/35/37 22/43/24
f 15/35/37 16/36/38 22/43/24
f 16/36/38 17/37/39 22/43/24
f 17/37/39 18/38/40 22/43/24
f 18/38/40 19/39/41 22/43/24
f 19/39/41 20/40/42 22/43/24
f 20/40/42 1/41/22 22/43/24
