# This file uses centimeters as units for non-parametric coordinates.

mtllib side1HighWall2Corner.mtl
v 1.000000 -4.000000 1.000000
v 1.000000 4.000000 1.000000
v -1.000000 4.000000 -1.000000
v 1.000000 4.000000 -1.000000
v -1.000000 -4.000000 -1.000000
v 1.000000 -4.000000 -1.000000
vt 0.500000 0.250000
vt 0.375000 0.500000
vt 0.625000 0.500000
vt 0.375000 0.750000
vt 0.625000 0.750000
vt 0.500000 1.000000
vt 0.000000 0.000000
vt 0.000000 1.000000
vt 0.333333 0.000000
vt 0.333333 1.000000
vt 0.666667 0.000000
vt 0.666667 1.000000
vt 1.000000 0.000000
vt 1.000000 1.000000
vn 0.000000 1.000000 0.000000
vn 0.000000 1.000000 0.000000
vn 0.000000 1.000000 0.000000
vn 0.000000 0.000000 -1.000000
vn 0.000000 0.000000 -1.000000
vn 0.000000 0.000000 -1.000000
vn 0.000000 0.000000 -1.000000
vn 0.000000 -1.000000 0.000000
vn 0.000000 -1.000000 0.000000
vn 0.000000 -1.000000 0.000000
vn 1.000000 0.000000 0.000000
vn 1.000000 0.000000 0.000000
vn 1.000000 0.000000 0.000000
vn 1.000000 0.000000 0.000000
vn -0.707107 0.000000 0.707107
vn -0.707107 0.000000 0.707107
vn -0.707107 0.000000 0.707107
vn -0.707107 0.000000 0.707107
g side1HighWall2Corner
usemtl initialShadingGroup
f 2/1/1 4/3/2 3/2/3
f 3/10/4 4/12/5 5/9/6
f 5/9/6 4/12/5 6/11/7
f 5/4/8 6/5/9 1/6/10
f 1/13/11 6/11/12 2/14/13
f 2/14/13 6/11/12 4/12/14
f 5/9/15 1/7/16 3/10/17
f 3/10/17 1/7/16 2/8/18

