# This file uses centimeters as units for non-parametric coordinates.

mtllib rampShort.mtl
v -0.500000 -0.500000 0.750000
v 0.500000 -0.500000 0.750000
v -0.500000 0.500000 0.750000
v 0.500000 0.500000 0.750000
v -0.500000 -0.500000 -0.750000
v 0.500000 -0.500000 -0.750000
vt 0.375000 0.000000
vt 0.625000 0.000000
vt 0.312500 0.375000
vt 0.750000 0.312500
vt 0.875000 0.000000
vt 0.125000 0.000000
vt 0.000000 0.000000
vt 0.000000 1.000000
vt 0.333333 0.000000
vt 0.333333 1.000000
vt 0.666667 0.000000
vt 0.666667 1.000000
vt 1.000000 0.000000
vt 1.000000 1.000000
vn 0.000000 0.000000 1.000000
vn 0.000000 0.000000 1.000000
vn 0.000000 0.000000 1.000000
vn 0.000000 0.000000 1.000000
vn 0.000000 0.832050 -0.554700
vn 0.000000 0.832050 -0.554700
vn 0.000000 0.832050 -0.554700
vn 0.000000 0.832050 -0.554700
vn 0.000000 -1.000000 0.000000
vn 0.000000 -1.000000 0.000000
vn 0.000000 -1.000000 0.000000
vn 0.000000 -1.000000 0.000000
vn 1.000000 0.000000 0.000000
vn 1.000000 0.000000 0.000000
vn 1.000000 0.000000 0.000000
vn -1.000000 0.000000 0.000000
vn -1.000000 0.000000 0.000000
vn -1.000000 0.000000 0.000000
g rampShort
usemtl initialShadingGroup
f 1/7/1 2/8/2 3/9/3
f 3/9/3 2/8/2 4/10/4
f 3/9/5 4/10/6 5/11/7
f 5/11/7 4/10/6 6/12/8
f 5/11/9 6/12/10 1/13/11
f 1/13/11 6/12/10 2/14/12
f 2/2/13 6/5/14 4/4/15
f 5/6/16 1/1/17 3/3/18

