# This file uses centimeters as units for non-parametric coordinates.

mtllib floorcube.mtl
v -0.500000 -0.500000 0.500000
v -0.416667 -0.500000 0.500000
v 0.416667 -0.500000 0.500000
v 0.500000 -0.500000 0.500000
v -0.500000 -0.416667 0.500000
v -0.416667 -0.416667 0.500000
v 0.416667 -0.416667 0.500000
v 0.500000 -0.416667 0.500000
v -0.500000 0.416667 0.500000
v -0.416667 0.416667 0.500000
v 0.416667 0.416667 0.500000
v 0.500000 0.416667 0.500000
v -0.500000 0.500000 0.500000
v -0.416667 0.500000 0.500000
v 0.416667 0.500000 0.500000
v 0.500000 0.500000 0.500000
v -0.500000 0.500000 0.416667
v -0.416667 0.500000 0.416667
v 0.416667 0.500000 0.416667
v 0.500000 0.500000 0.416667
v -0.500000 0.500000 -0.416667
v -0.416667 0.500000 -0.416667
v 0.416667 0.500000 -0.416667
v 0.500000 0.500000 -0.416667
v -0.500000 0.500000 -0.500000
v -0.416667 0.500000 -0.500000
v 0.416667 0.500000 -0.500000
v 0.500000 0.500000 -0.500000
v -0.500000 0.416667 -0.500000
v -0.416667 0.416667 -0.500000
v 0.416667 0.416667 -0.500000
v 0.500000 0.416667 -0.500000
v -0.500000 -0.416667 -0.500000
v -0.416667 -0.416667 -0.500000
v 0.416667 -0.416667 -0.500000
v 0.500000 -0.416667 -0.500000
v -0.500000 -0.500000 -0.500000
v -0.416667 -0.500000 -0.500000
v 0.416667 -0.500000 -0.500000
v 0.500000 -0.500000 -0.500000
v -0.500000 -0.500000 -0.416667
v -0.416667 -0.500000 -0.416667
v 0.416667 -0.500000 -0.416667
v 0.500000 -0.500000 -0.416667
v -0.500000 -0.500000 0.416667
v -0.416667 -0.500000 0.416667
v 0.416667 -0.500000 0.416667
v 0.500000 -0.500000 0.416667
v 0.500000 -0.416667 -0.416667
v 0.500000 -0.416667 0.416667
v 0.500000 0.416667 -0.416667
v 0.500000 0.416667 0.416667
v -0.500000 -0.416667 -0.416667
v -0.500000 -0.416667 0.416667
v -0.500000 0.416667 -0.416667
v -0.500000 0.416667 0.416667
vt 0.375000 0.000000
vt 0.458333 0.000000
vt 0.541667 0.000000
vt 0.625000 0.000000
vt 0.375000 0.083333
vt 0.458333 0.083333
vt 0.541667 0.083333
vt 0.625000 0.083333
vt 0.375000 0.166667
vt 0.458333 0.166667
vt 0.541667 0.166667
vt 0.625000 0.166667
vt 0.375000 0.250000
vt 0.458333 0.250000
vt 0.541667 0.250000
vt 0.625000 0.250000
vt 0.375000 0.333333
vt 0.458333 0.333333
vt 0.541667 0.333333
vt 0.625000 0.333333
vt 0.375000 0.416667
vt 0.458333 0.416667
vt 0.541667 0.416667
vt 0.625000 0.416667
vt 0.375000 0.500000
vt 0.458333 0.500000
vt 0.541667 0.500000
vt 0.625000 0.500000
vt 0.375000 0.583333
vt 0.458333 0.583333
vt 0.541667 0.583333
vt 0.625000 0.583333
vt 0.375000 0.666667
vt 0.458333 0.666667
vt 0.541667 0.666667
vt 0.625000 0.666667
vt 0.375000 0.750000
vt 0.458333 0.750000
vt 0.541667 0.750000
vt 0.625000 0.750000
vt 0.375000 0.833333
vt 0.458333 0.833333
vt 0.541667 0.833333
vt 0.625000 0.833333
vt 0.375000 0.916667
vt 0.458333 0.916667
vt 0.541667 0.916667
vt 0.625000 0.916667
vt 0.375000 1.000000
vt 0.458333 1.000000
vt 0.541667 1.000000
vt 0.625000 1.000000
vt 0.875000 0.000000
vt 0.791667 0.000000
vt 0.708333 0.000000
vt 0.875000 0.083333
vt 0.791667 0.083333
vt 0.708333 0.083333
vt 0.875000 0.166667
vt 0.791667 0.166667
vt 0.708333 0.166667
vt 0.875000 0.250000
vt 0.791667 0.250000
vt 0.708333 0.250000
vt 0.125000 0.000000
vt 0.208333 0.000000
vt 0.291667 0.000000
vt 0.125000 0.083333
vt 0.208333 0.083333
vt 0.291667 0.083333
vt 0.125000 0.166667
vt 0.208333 0.166667
vt 0.291667 0.166667
vt 0.125000 0.250000
vt 0.208333 0.250000
vt 0.291667 0.250000
vn -0.577350 -0.577350 0.577350
vn 0.000000 -0.707107 0.707107
vn -0.707107 0.000000 0.707107
vn 0.000000 0.000000 1.000000
vn 0.000000 -0.707107 0.707107
vn 0.000000 0.000000 1.000000
vn 0.577350 -0.577350 0.577350
vn 0.707107 0.000000 0.707107
vn -0.707107 0.000000 0.707107
vn 0.000000 0.000000 1.000000
vn 0.000000 0.000000 1.000000
vn 0.707107 0.000000 0.707107
vn -0.577350 0.577350 0.577350
vn 0.000000 0.707107 0.707107
vn 0.000000 0.707107 0.707107
vn 0.577350 0.577350 0.577350
vn -0.707107 0.707107 0.000000
vn 0.000000 1.000000 0.000000
vn 0.000000 1.000000 0.000000
vn 0.707107 0.707107 0.000000
vn -0.707107 0.707107 0.000000
vn 0.000000 1.000000 0.000000
vn 0.000000 1.000000 0.000000
vn 0.707107 0.707107 0.000000
vn -0.577350 0.577350 -0.577351
vn 0.000000 0.707107 -0.707107
vn 0.000000 0.707107 -0.707107
vn 0.577350 0.577350 -0.577350
vn -0.707106 0.000000 -0.707107
vn 0.000000 0.000000 -1.000000
vn 0.000000 0.000000 -1.000000
vn 0.707107 0.000000 -0.707106
vn -0.707107 0.000000 -0.707106
vn 0.000000 0.000000 -1.000000
vn 0.000000 0.000000 -1.000000
vn 0.707107 0.000000 -0.707107
vn -0.577350 -0.577350 -0.577350
vn 0.000000 -0.707107 -0.707107
vn 0.000000 -0.707107 -0.707107
vn 0.577351 -0.577350 -0.577350
vn -0.707107 -0.707107 0.000000
vn 0.000000 -1.000000 0.000000
vn 0.000000 -1.000000 0.000000
vn 0.707107 -0.707107 0.000000
vn -0.707107 -0.707107 0.000000
vn 0.000000 -1.000000 0.000000
vn 0.000000 -1.000000 0.000000
vn 0.707107 -0.707107 0.000000
vn 1.000000 0.000000 0.000000
vn 1.000000 0.000000 0.000000
vn 1.000000 0.000000 0.000000
vn 1.000000 0.000000 0.000000
vn -1.000000 0.000000 0.000000
vn -1.000000 0.000000 0.000000
vn -1.000000 0.000000 0.000000
vn -1.000000 0.000000 0.000000
g floorcube
usemtl initialShadingGroup
f 1/1/1 2/2/2 5/5/3
f 5/5/3 2/2/2 6/6/4
f 2/2/2 3/3/5 6/6/4
f 6/6/4 3/3/5 7/7/6
f 3/3/5 4/4/7 7/7/6
f 7/7/6 4/4/7 8/8/8
f 5/5/3 6/6/4 9/9/9
f 9/9/9 6/6/4 10/10/10
f 6/6/4 7/7/6 10/10/10
f 10/10/10 7/7/6 11/11/11
f 7/7/6 8/8/8 11/11/11
f 11/11/11 8/8/8 12/12/12
f 9/9/9 10/10/10 13/13/13
f 13/13/13 10/10/10 14/14/14
f 10/10/10 11/11/11 14/14/14
f 14/14/14 11/11/11 15/15/15
f 11/11/11 12/12/12 15/15/15
f 15/15/15 12/12/12 16/16/16
f 13/13/13 14/14/14 17/17/17
f 17/17/17 14/14/14 18/18/18
f 14/14/14 15/15/15 18/18/18
f 18/18/18 15/15/15 19/19/19
f 15/15/15 16/16/16 19/19/19
f 19/19/19 16/16/16 20/20/20
f 17/17/17 18/18/18 21/21/21
f 21/21/21 18/18/18 22/22/22
f 18/18/18 19/19/19 22/22/22
f 22/22/22 19/19/19 23/23/23
f 19/19/19 20/20/20 23/23/23
f 23/23/23 20/20/20 24/24/24
f 21/21/21 22/22/22 25/25/25
f 25/25/25 22/22/22 26/26/26
f 22/22/22 23/23/23 26/26/26
f 26/26/26 23/23/23 27/27/27
f 23/23/23 24/24/24 27/27/27
f 27/27/27 24/24/24 28/28/28
f 25/25/25 26/26/26 29/29/29
f 29/29/29 26/26/26 30/30/30
f 26/26/26 27/27/27 30/30/30
f 30/30/30 27/27/27 31/31/31
f 27/27/27 28/28/28 31/31/31
f 31/31/31 28/28/28 32/32/32
f 29/29/29 30/30/30 33/33/33
f 33/33/33 30/30/30 34/34/34
f 30/30/30 31/31/31 34/34/34
f 34/34/34 31/31/31 35/35/35
f 31/31/31 32/32/32 35/35/35
f 35/35/35 32/32/32 36/36/36
f 33/33/33 34/34/34 37/37/37
f 37/37/37 34/34/34 38/38/38
f 34/34/34 35/35/35 38/38/38
f 38/38/38 35/35/35 39/39/39
f 35/35/35 36/36/36 39/39/39
f 39/39/39 36/36/36 40/40/40
f 37/37/37 38/38/38 41/41/41
f 41/41/41 38/38/38 42/42/42
f 38/38/38 39/39/39 42/42/42
f 42/42/42 39/39/39 43/43/43
f 39/39/39 40/40/40 43/43/43
f 43/43/43 40/40/40 44/44/44
f 41/41/41 42/42/42 45/45/45
f 45/45/45 42/42/42 46/46/46
f 42/42/42 43/43/43 46/46/46
f 46/46/46 43/43/43 47/47/47
f 43/43/43 44/44/44 47/47/47
f 47/47/47 44/44/44 48/48/48
f 45/45/45 46/46/46 1/49/1
f 1/49/1 46/46/46 2/50/2
f 46/46/46 47/47/47 2/50/2
f 2/50/2 47/47/47 3/51/5
f 47/47/47 48/48/48 3/51/5
f 3/51/5 48/48/48 4/52/7
f 44/54/44 40/53/40 49/57/49
f 49/57/49 40/53/40 36/56/36
f 48/55/48 44/54/44 50/58/50
f 50/58/50 44/54/44 49/57/49
f 4/4/7 48/55/48 8/8/8
f 8/8/8 48/55/48 50/58/50
f 49/57/49 36/56/36 51/60/51
f 51/60/51 36/56/36 32/59/32
f 50/58/50 49/57/49 52/61/52
f 52/61/52 49/57/49 51/60/51
f 8/8/8 50/58/50 12/12/12
f 12/12/12 50/58/50 52/61/52
f 51/60/51 32/59/32 24/63/24
f 24/63/24 32/59/32 28/62/28
f 52/61/52 51/60/51 20/64/20
f 20/64/20 51/60/51 24/63/24
f 12/12/12 52/61/52 16/16/16
f 16/16/16 52/61/52 20/64/20
f 37/65/37 41/66/41 33/68/33
f 33/68/33 41/66/41 53/69/53
f 41/66/41 45/67/45 53/69/53
f 53/69/53 45/67/45 54/70/54
f 45/67/45 1/1/1 54/70/54
f 54/70/54 1/1/1 5/5/3
f 33/68/33 53/69/53 29/71/29
f 29/71/29 53/69/53 55/72/55
f 53/69/53 54/70/54 55/72/55
f 55/72/55 54/70/54 56/73/56
f 54/70/54 5/5/3 56/73/56
f 56/73/56 5/5/3 9/9/9
f 29/71/29 55/72/55 25/74/25
f 25/74/25 55/72/55 21/75/21
f 55/72/55 56/73/56 21/75/21
f 21/75/21 56/73/56 17/76/17
f 56/73/56 9/9/9 17/76/17
f 17/76/17 9/9/9 13/13/13

